<svg xmlns="http://www.w3.org/2000/svg" viewBox="0 0 97.29 97.29"><defs><style>.cls-1{fill:#fefeff;}.cls-2{fill:#adb5d7;}.cls-3{fill:#90bfe5;}.cls-4{fill:#196dab;}.cls-5{fill:#ffd77b;}.cls-6{fill:#cd4778;}.cls-7{fill:#6873b3;}.cls-8{fill:#902b50;}.cls-9{fill:#0f4f9a;}.cls-10{fill:#344e89;}.cls-11{fill:#1a4a90;}.cls-12{fill:#1d3d6b;}.cls-13{fill:#1e4583;}.cls-14{fill:#342217;}.cls-15{fill:#a8406c;}.cls-16{fill:#4aaedf;}.cls-17{fill:#095ea0;}.cls-18{fill:#4a4886;}.cls-19{fill:#2c2f37;}.cls-20{fill:#0794c8;}.cls-21{fill:#6a4a97;}.cls-22{fill:#efa686;}.cls-23{fill:#5c5ba3;}.cls-24{fill:#e79878;}.cls-25{fill:#8cc588;}.cls-26{fill:#ef91b8;}.cls-27{fill:#c5e4f4;}.cls-28{fill:#124f86;}.cls-29{fill:#7ba6d6;}.cls-30{fill:#561d30;}</style></defs><title>Asset 1</title><g id="Layer_2" data-name="Layer 2"><g id="Layer_1-2" data-name="Layer 1"><path class="cls-1" d="M80.19,97.29H0s0,0,0,0V20.94H.5a.8.8,0,0,0,.27,0,1.17,1.17,0,0,1,.45-.06.84.84,0,0,0,.32,0c.29-.12.61,0,.89-.16a8.08,8.08,0,0,0,.86-.1A3.9,3.9,0,0,1,4,20.46c.23,0,.44-.12.67-.15s.38-.09.58-.12.41-.1.61-.14c.36-.08.71-.18,1.06-.28s.82-.22,1.22-.36l1-.31a5.44,5.44,0,0,0,.57-.19c.62-.28,1.28-.48,1.89-.8l.12-.05a17.76,17.76,0,0,0,1.81-.88c.43-.22.83-.49,1.26-.72a.83.83,0,0,0,.16-.09c.63-.43,1.28-.82,1.88-1.29.4-.3.8-.6,1.17-.93.12-.12.27-.21.39-.32s.26-.25.4-.38a.39.39,0,0,1,.1-.08,1.14,1.14,0,0,0,.32-.26c.53-.53,1.06-1,1.58-1.58a1.17,1.17,0,0,0,.21-.24,2,2,0,0,1,.33-.38,3.89,3.89,0,0,0,.44-.47c.18-.28.46-.48.62-.78s.54-.65.8-1,.56-.72.81-1.1c.38-.57.76-1.13,1.12-1.72s.7-1.24,1-1.87c.19-.33.31-.69.48-1a14.9,14.9,0,0,0,.6-1.43c.16-.41.29-.83.42-1.25A2.56,2.56,0,0,0,27.62,0H97.27l0,0s0,0,0,.05v76.1a6.1,6.1,0,0,0-.84.33l-1.19.59-.24.13-1.56,1c-.37.24-.75.47-1.1.73s-.89.64-1.32,1-.57.4-.83.63a7.24,7.24,0,0,0-.73.62l-.11.08a1.14,1.14,0,0,0-.32.26.86.86,0,0,1-.2.18,1.78,1.78,0,0,0-.42.35,1.12,1.12,0,0,1-.2.18,2.51,2.51,0,0,0-.52.45l-1.19,1.19a3.53,3.53,0,0,0-.54.62,1.25,1.25,0,0,1-.16.17,1.16,1.16,0,0,0-.18.2,3.17,3.17,0,0,1-.28.36,3.07,3.07,0,0,0-.27.36c-.31.41-.64.81-.91,1.25l-.39.62c-.25.39-.48.8-.71,1.22a6.1,6.1,0,0,1-.39.71,1.48,1.48,0,0,0-.17.33,5.58,5.58,0,0,1-.35.79c0,.1-.09.19-.13.29-.15.37-.28.74-.44,1.1A15.07,15.07,0,0,0,81,93.54a15.59,15.59,0,0,0-.44,1.66c-.06.31-.15.62-.22.93s-.1.66-.18,1C80.19,97.17,80.2,97.23,80.19,97.29Zm-28.91-39h0a.49.49,0,0,0,.06.17,1.55,1.55,0,0,0,.68.5c.09,0,.18,0,.25,0a.74.74,0,0,1,.29-.12l.3.11,2.42,1,1.67.71a.18.18,0,0,1-.12.17l-1.6.68-.93.38-1.13.48c-.1,0-.19.1-.29.15l.09.12,1.85,1.25,1.55,1,.76.5a.24.24,0,0,0,.26,0l0,0a1.43,1.43,0,0,0,.83-.79.66.66,0,0,1,.28-.36,1.76,1.76,0,0,1,.87-.25c.29,0,.56.1.85.11a5.3,5.3,0,0,1,1.1.45,2.58,2.58,0,0,1,.7.58.85.85,0,0,1,.18.77.34.34,0,0,1-.06.12c-.06,0-.11.11-.17.15a1.32,1.32,0,0,1-.69.2c-.25,0-.49,0-.73,0a6.06,6.06,0,0,0-.73.09,1.34,1.34,0,0,0-.64.2.08.08,0,0,0,0,.12,1.84,1.84,0,0,0,.22.17c1.23.81,2.44,1.65,3.67,2.47.46.32.3.32.91.08s1-.4,1.42-.61a.63.63,0,0,1,.36,0c0,.31-.06.63-.1.95-.06.51-.06,1-.07,1.54a1.9,1.9,0,0,0,.09.58,4.21,4.21,0,0,1,.12.48c.24,1.19.47,2.38.7,3.57a2.45,2.45,0,0,1,0,.27L66,76l-.35-.12a.29.29,0,0,0-.22,0l-.19.14a.48.48,0,0,0-.21.38,2.62,2.62,0,0,1,0,.28.67.67,0,0,1-.43.63,1.54,1.54,0,0,1-.35.1.57.57,0,0,0-.18,0,1.08,1.08,0,0,1-.59,0,.61.61,0,0,0-.27,0,2.19,2.19,0,0,1-.67-.11,4.29,4.29,0,0,1-1.45-.64,1.57,1.57,0,0,1-.39-.38c-.23-.35-.15-.51.1-.71a.69.69,0,0,1,.32-.16,6,6,0,0,1,.72-.11,3.6,3.6,0,0,0,.93-.21A1.14,1.14,0,0,0,63,75a.18.18,0,0,0,.09-.16l-.19-.1-1.39-.57-1.42-.61-1.64-.69-.72-.31a.23.23,0,0,0-.25,0l-.19.13c-.74.51-1.5,1-2.23,1.51-.47.34-1,.64-1.44,1s-.39.28-.9,0l-.08,0a.71.71,0,0,1-.28-.29c-.06-.12-.11-.24-.18-.36a.83.83,0,0,0-.62-.44,1.45,1.45,0,0,0-.8,0,.53.53,0,0,1-.18,0,2.51,2.51,0,0,0-.67.15,3.45,3.45,0,0,0-1.12.59,1.4,1.4,0,0,0-.51.69.47.47,0,0,0,.11.51,1,1,0,0,0,.49.3,1.49,1.49,0,0,0,.36,0h.92a2.81,2.81,0,0,1,1.1.26.09.09,0,0,1,0,.12c-.07.05-.13.12-.21.17l-3.22,2.16c-.21.14-.42.3-.62.46a.09.09,0,0,0,0,.15l.24.13.34.13,1.47.62.3.12,1.42.61.26.1c.51.22,1,.45,1.55.65l.21.09,1.47.62.3.13,1,.44,1.26.53,1.42.61,1.64.69.26.09a.27.27,0,0,0,.26,0l.72-.49.75-.51c.15-.1.23-.06.25.11a1.49,1.49,0,0,0,0,.36,2.39,2.39,0,0,0,.67,1,3.53,3.53,0,0,0,.48.36,6,6,0,0,0,1.33.69,11.21,11.21,0,0,0,2,.6c.23,0,.46,0,.68.11a2.69,2.69,0,0,0,.63.06c.21,0,.41.09.63.09H71.3a1.4,1.4,0,0,0,.41,0,.57.57,0,0,1,.18,0,5.58,5.58,0,0,0,.81-.09l.76-.14A10.93,10.93,0,0,0,75,86.84a7.2,7.2,0,0,0,2-1.12,2,2,0,0,0,.25-.26c.12-.16.23-.33.33-.49a1.19,1.19,0,0,0,.16-.48,1.72,1.72,0,0,0-.26-1.26.85.85,0,0,0-.14-.19,5.58,5.58,0,0,0-.67-.61,7.1,7.1,0,0,0-1.82-.93,1,1,0,0,0-.17,0,1.21,1.21,0,0,1,0-.19c.05-.36.1-.72.14-1.08.07-.65.14-1.3.22-2a20.65,20.65,0,0,0,.18-2.6,12.56,12.56,0,0,0-.06-1.37,7.64,7.64,0,0,0-.47-1.94.87.87,0,0,1-.06-.45c0-.5.1-1,.14-1.5,0-.33.07-.67.1-1,0-.56.1-1.12.14-1.68L75.19,66c0-.39.06-.79.1-1.18a.48.48,0,0,1,.17,0l.36,0h.73a1.7,1.7,0,0,1,.5,0,.94.94,0,0,0,.5,0,2.57,2.57,0,0,1,.68,0,4.1,4.1,0,0,0,1-.08.55.55,0,0,1,.18,0c.31,0,.6-.11.91-.12.6-.16,1.2-.29,1.79-.5a6.67,6.67,0,0,0,1.86-1,2.6,2.6,0,0,0,.9-1.07c.06-.15.08-.3.13-.44a.61.61,0,0,0,0-.4c0-.07,0-.15,0-.23a1.73,1.73,0,0,0-.39-.76,4.6,4.6,0,0,0-1.25-1c-.43-.22-.88-.41-1.33-.6a2.43,2.43,0,0,1,0-.27c0-1.05.09-2.1.14-3.15,0-.47,0-.94.07-1.41,0-.12,0-.25,0-.37A14.93,14.93,0,0,0,82,50.58a9.58,9.58,0,0,0-.65-2.28c-.07-.17-.16-.33-.23-.49a.57.57,0,0,1,0-.22,3.55,3.55,0,0,1,0-.46c.06-.5.07-1,.08-1.5,0-1.56,0-3.11,0-4.66,0-.14,0-.27,0-.41,0-1-.09-1.92-.14-2.88,0-.7-.07-1.39-.1-2.09l0-.23a1.9,1.9,0,0,0,.14-.57.3.3,0,0,1,.08-.17l1.35-2a8.87,8.87,0,0,0,.55-.94.84.84,0,0,0,.08-.62L83,30.79c0-.31-.1-.62-.16-.94l-.21-1.12c-.09-.44-.19-.89-.28-1.33a.35.35,0,0,0-.09-.16l0-.09,0,0v0a.37.37,0,0,0,.09-.41s0-.06,0-.09l-.78-2.76a2.52,2.52,0,0,0-1.3-1.62c-.41-.23-.84-.43-1.26-.63s-.75-.34-1.13-.5a1.46,1.46,0,0,0-.43-.15,1.73,1.73,0,0,1-.16-.37,3.17,3.17,0,0,1-.12-.81.91.91,0,0,0,0-.4l.58-.52a3,3,0,0,0,.78-1,6,6,0,0,0,.38-1,2.17,2.17,0,0,0,.09-.76,3.45,3.45,0,0,0-.16-.85,2.17,2.17,0,0,0-.19-.41,1.21,1.21,0,0,0-.66-.54l-.21-.08a1,1,0,0,0-.69-.73,1.22,1.22,0,0,0-.17-.07,3.82,3.82,0,0,0-1.12-.2,4,4,0,0,1-.85-.1,1.33,1.33,0,0,1-.64-.35s-.08.09-.11.14a.78.78,0,0,0-.1.39c0,.06-.06.1-.13.1a.66.66,0,0,1-.53-.2l-.22-.25a.83.83,0,0,0-.07.18,3.36,3.36,0,0,0,0,1.14,1,1,0,0,0,.31.59.27.27,0,0,1,.13.2,1.79,1.79,0,0,0,.1,1.18,5.19,5.19,0,0,0,.12.79,2.77,2.77,0,0,0,0,.76.27.27,0,0,0,0,.09c.09.46.18.92.28,1.38a2,2,0,0,0,.1.35.64.64,0,0,0,.24.32.66.66,0,0,0,.42.15H75l0,.54a6,6,0,0,0-1,.05c-.38.06-.75.09-1.13.14a1.78,1.78,0,0,0-1,.45,2.43,2.43,0,0,0-.44.52l-1.27,1.83c-.08.12-.18.24-.27.36,0-.16,0-.33,0-.5a.75.75,0,0,0-.15-.46,2,2,0,0,0-.32-.33,1,1,0,0,0-1.15.05c-.06.06-.13.12-.19.19A1,1,0,0,0,68.08,24a1.17,1.17,0,0,0,.35.35.8.8,0,0,0,.43.13,1,1,0,0,0,.57-.11.28.28,0,0,1,.22,0c-.37.57-.78,1.11-1.15,1.69l.14.34c-.07.09-.14.16-.2.25s-.23.32-.33.49a1,1,0,0,1-.39.37l-2.5,1.41c-.64.35-1.29.69-1.94,1a.62.62,0,0,1-.29.12,1.67,1.67,0,0,1-.39-.23,5.67,5.67,0,0,0-.84-.45s-.06,0-.08,0a.11.11,0,0,0,0,.08.19.19,0,0,0,0,.08.83.83,0,0,0,.08.12l.09.1c0,.07,0,.14-.06.18l-.81.31-.43.16a.28.28,0,0,0-.21.26l0,.14.2.18a1.25,1.25,0,0,0,1,.32,2.62,2.62,0,0,0,1.18-.45l.27-.18a.48.48,0,0,1,.16-.08,2.44,2.44,0,0,1,.76-.1s0,.06-.05.07l-.29.14L61,31.84l-1,.45-.09.09a1.92,1.92,0,0,0,0,.22c0,.78,0,1.55,0,2.33,0,0-.07.07-.11.07a2.75,2.75,0,0,1-1,0,3,3,0,0,1-.39-.13.6.6,0,0,1-.38-.52c0-.11,0-.21,0-.32a.55.55,0,0,0-.21-.44c-.31-.26-.32-.25-.65-.11l-.25.1-2.18.92-2.77,1.17c-.05,0-.11,0-.13.1a1.26,1.26,0,0,0,0,.27c0,.88,0,1.77,0,2.65a2,2,0,0,0,0,.23l.29.22,3.86,2.6.19.12a.23.23,0,0,0,.18,0l.21-.08a1.31,1.31,0,0,0,.67-.66,1.24,1.24,0,0,1,.1-.2.8.8,0,0,1,.62-.41.1.1,0,0,1,.12.1.57.57,0,0,1,0,.13c0,.64,0,1.28,0,1.92v.46c.07,0,.12.11.18.15l4,2.73.16.07a.11.11,0,0,0,.13,0l.58-.24,5.34-2.24a2.26,2.26,0,0,1,.09.58,4.51,4.51,0,0,0,.07.53.55.55,0,0,0,.45.5,1.26,1.26,0,0,0,.27,0,.68.68,0,0,1,0,.14,4.78,4.78,0,0,0,.46,1.65.65.65,0,0,1,0,.13l-.66.37-.62.35a.33.33,0,0,0-.14.17.29.29,0,0,0-.25.08,1.28,1.28,0,0,0-.37.4,3,3,0,0,0-.38,1c0,.25-.08.5-.11.76l-.25-.1-2.06-.86c-.17-.07-.33-.15-.5-.21a.28.28,0,0,0-.18,0,2.51,2.51,0,0,0-.32.25.42.42,0,0,0-.14.28c0,.12,0,.24,0,.36a.62.62,0,0,1-.39.57l-.22.07a2.8,2.8,0,0,1-1,.07,1.11,1.11,0,0,1-.16-.07l0-2.35a.7.7,0,0,0,0-.14s0-.09-.07-.1a2,2,0,0,0-.33-.15l-4.29-1.81-.83-.35a1.17,1.17,0,0,0-.38.21L52.45,48.5c-.3.2-.28.2-.62,0a1.22,1.22,0,0,1-.63-.69.89.89,0,0,0-.72-.56l-.23,0a3.76,3.76,0,0,0-2.37.67,2.09,2.09,0,0,0-.28.24,1.07,1.07,0,0,0-.4,1c0,.08,0,.15,0,.23,0,.76,0,1.53,0,2.3a1.62,1.62,0,0,0,0,.22.3.3,0,0,0,0,.08,1.86,1.86,0,0,1-.47-.16l-1.42-.6c-.57-.25-1.14-.49-1.72-.72a2.46,2.46,0,0,0-.38-.14.3.3,0,0,0-.26,0c-.2.14-.4.28-.61.41s-.56.4-.87.56a3.94,3.94,0,0,1,0-.77.22.22,0,0,1,.14-.21l.29-.13L44,49.38l.29-.13a.22.22,0,0,0,.05-.08.91.91,0,0,0,0-.17c0-.91,0-1.82,0-2.73a1.13,1.13,0,0,0,0-.18c0-.07-.05-.1-.09-.14l-.85-.57a.64.64,0,0,1-.23-.2c0-.08,0-.15,0-.23,0-.77,0-1.54,0-2.31,0-.1,0-.21,0-.31a1.11,1.11,0,0,0-.34-1,2.46,2.46,0,0,0-.57-.45,4.15,4.15,0,0,0-1.68-.54,2.23,2.23,0,0,0-.85.06.88.88,0,0,0-.59.47l-.09.21a1.35,1.35,0,0,1-1,.69l-.43-.28-1.13-.76c0-.09,0-.18.05-.26.1-.57.19-1.14.28-1.7l.32,0a2.5,2.5,0,0,0,1.12-.09l.13,0a.64.64,0,0,0,.39-.57c0-.12,0-.24,0-.36a.56.56,0,0,1,.09-.21.83.83,0,0,1,.34-.3.33.33,0,0,1,.17,0,.81.81,0,0,1,.22.07l1.3.54,3.82,1.61.13.05a.15.15,0,0,0,.16-.07,1.71,1.71,0,0,0,.23-.13l1.32-.89L49,36.76a.69.69,0,0,0,.29-.25c0-.13,0-.29,0-.44,0-.57,0-1.15,0-1.73v-.27s.06-.1.09-.09a.78.78,0,0,1,.66.43,1.24,1.24,0,0,0,.1.2,1.17,1.17,0,0,0,.6.6c.33.15.35.13.62-.05l.12-.08,3.59-2.42.34-.24a2,2,0,0,0,0-.23c0-.18,0-.37,0-.55,0-.48,0-1,0-1.46a6.59,6.59,0,0,0,0-.77c0-.09-.07-.13-.15-.13a.44.44,0,0,0-.08-.1,2.49,2.49,0,0,0-.33-.16l-1.64-.69L52.38,28l-1.3-.55-1.51-.64-1.3-.54-1.42-.61L45.25,25l-.93-.38c-.47-.21-.94-.42-1.42-.61A9.66,9.66,0,0,0,42,23.6l-.2.11c-.16.1-.3.21-.45.31a2.77,2.77,0,0,1-.7.42l-.44-.34-.25-.2a.48.48,0,0,1-.15-.22c0-.11-.06-.21-.08-.31-.28-1-.56-2-.83-3-.2-.72-.39-1.44-.59-2.16a3.75,3.75,0,0,0-.6-1.22,1.3,1.3,0,0,0-.54-.47,1.78,1.78,0,0,0-1.26-.45h0a.08.08,0,0,0-.07,0h-.36l-.19,0,0-.35a2.65,2.65,0,0,0,.49-.09.3.3,0,0,0,.17-.14,1.8,1.8,0,0,0,.08-.21c.14-.45.28-.89.41-1.34a1,1,0,0,0,0-.58,1.61,1.61,0,0,1-.06-.49v-.36l0-.16c0-.09.09-.17.06-.27l0-.5a1.64,1.64,0,0,0-.09-.58,1.4,1.4,0,0,0-.75-.93,2.1,2.1,0,0,0-.7-.21,4.77,4.77,0,0,0-1.76.15.41.41,0,0,1-.22,0,3.28,3.28,0,0,0-.31-.2,1.24,1.24,0,0,0-1.14,0,1.29,1.29,0,0,0-.73,1.39,1.35,1.35,0,0,0,.49.8c.09.08.21.11.28.21s0,0,0,.05v.23a2.62,2.62,0,0,0,.32,1.31A3.42,3.42,0,0,0,32.91,15S33,15,33,15a.89.89,0,0,1,.07.36c0,.29-.06.57-.08.85a1.16,1.16,0,0,1-.18.51,2.67,2.67,0,0,0-.41.22l-1.37.73a4,4,0,0,0-.34.23,1.78,1.78,0,0,0-.65.92,5.37,5.37,0,0,0-.15.8c-.05.33-.07.67-.13,1a13,13,0,0,0-.17,1.4s0,.09,0,.13a2.51,2.51,0,0,0-.07.55,1.23,1.23,0,0,1,0,.27,3.07,3.07,0,0,0-.06.68,3.38,3.38,0,0,1,0,.55,3.4,3.4,0,0,0,0,1.27.9.9,0,0,0,.43.7c.29.17.57.37.84.56a.44.44,0,0,1,.2.18c-.25.7-.48,1.4-.69,2.12a7.12,7.12,0,0,0-.31,2.38c0,.87.06,1.74.09,2.6,0,.54.06,1.07.1,1.6,0,.06,0,.12,0,.18.05.53.09,1.06.14,1.59s.14,1.24.22,1.86c0,.27.09.54.14.81a3.31,3.31,0,0,1-.33.15L25,42.43a7.36,7.36,0,0,1-.21-.93,4.19,4.19,0,0,0-.69-1.66A2.63,2.63,0,0,0,23,39c-.24-.11-.47-.22-.69-.34a4.32,4.32,0,0,0-.53-.26,5.66,5.66,0,0,0-1.1-.42c0-.32,0-.64-.05-1a.17.17,0,0,1,.15-.19l.27-.05a.5.5,0,0,0,.37-.37c0-.2.09-.39.12-.58s.1-.6.15-.9a2.51,2.51,0,0,0,0-1.09,2.22,2.22,0,0,1-.05-.45,2.84,2.84,0,0,1,0-.41,1.35,1.35,0,0,0-.14-.71l0-.09a.82.82,0,0,1,.33-.62.53.53,0,0,0,.13-.13.89.89,0,0,0,.21-.63.51.51,0,0,0-.22-.43,1.08,1.08,0,0,0-.29-.13,1.79,1.79,0,0,0-.4-.09,1.24,1.24,0,0,1-.74-.29.44.44,0,0,0-.52-.06,1,1,0,0,1-.79.07L19,29.76c-.12,0-.24,0-.36,0a1.66,1.66,0,0,0-.66.14,1.3,1.3,0,0,0-.84.71,2.44,2.44,0,0,1-.39.56c-.12.14-.22.29-.33.44l-.23.28a1.89,1.89,0,0,0-.39.82,1.06,1.06,0,0,0,.07.66,2.17,2.17,0,0,0,.51.75,1.16,1.16,0,0,1,.29.46,2.56,2.56,0,0,0,.6,1c.11.11.21.23.31.34a2.87,2.87,0,0,1,.54.84.32.32,0,0,0,.19.19l0,.4a.15.15,0,0,1-.12.12l-.31,0a1.2,1.2,0,0,0-.5,0,2.5,2.5,0,0,1-.55.05,5.75,5.75,0,0,0-1.16.2A1.82,1.82,0,0,0,15,38a1.86,1.86,0,0,0-.64,1.08,3.94,3.94,0,0,0-.08.77c0,.41,0,.82,0,1.23a1.69,1.69,0,0,1,0,.32,3.54,3.54,0,0,0-.06.73c0,.44,0,.88,0,1.32a1.13,1.13,0,0,1,0,.32,5.49,5.49,0,0,0-.05.91.31.31,0,0,0,.17.3c0,.55,0,1.11,0,1.67a1.41,1.41,0,0,0,.49,1.08,3,3,0,0,0,1.14.62c0,.15,0,.3,0,.46a17.54,17.54,0,0,1-.08,1.91c0,.82,0,1.64,0,2.46a.44.44,0,0,0,.25.45l.07.05a2.12,2.12,0,0,0,0,.71.81.81,0,0,0,0,.22c0,.38,0,.77,0,1.15s0,.54,0,.82c.05.62.09,1.24.14,1.87s.07,1,.13,1.45c.11.95.23,1.91.35,2.86a1.64,1.64,0,0,1,0,1,.29.29,0,0,0,0,.09,10.5,10.5,0,0,0-.24,1.67c0,.61-.06,1.22-.1,1.83s-.05,1,0,1.55c0,1.52,0,3,.05,4.57,0,.17,0,.34,0,.5a1.19,1.19,0,0,1-.25.13,11.63,11.63,0,0,0-1.24.58,5.83,5.83,0,0,0-1.62,1.17,3.34,3.34,0,0,0-.7,1,2.18,2.18,0,0,0,0,1.85,3.75,3.75,0,0,0,1.21,1.46,9,9,0,0,0,2.58,1.35,15.49,15.49,0,0,0,1.88.54,14.27,14.27,0,0,0,2,.35.34.34,0,0,1,.14,0,2,2,0,0,0,.54.06,2.71,2.71,0,0,1,.4,0,1.92,1.92,0,0,0,.41,0h3.06a1.13,1.13,0,0,0,.32,0,2.32,2.32,0,0,1,.59-.06,1.73,1.73,0,0,0,.32,0,3,3,0,0,1,.45-.07c.16,0,.32-.06.49-.08a11,11,0,0,0,1.25-.24c.37-.07.73-.19,1.1-.29a13.07,13.07,0,0,0,1.84-.68,7.51,7.51,0,0,0,1.44-.86c.17-.13.34-.26.5-.4A3.62,3.62,0,0,0,34,78.6a1.31,1.31,0,0,0,.12-.44c0-.16.06-.33.09-.49a.23.23,0,0,1,.12-.18l.25-.12c.21-.08.43-.15.63-.25.63-.28,1.27-.53,1.89-.8a.48.48,0,0,1,.48,0,.66.66,0,0,1,.32.42,1.06,1.06,0,0,1,0,.31,1.77,1.77,0,0,0,0,.23.45.45,0,0,0,.21.34,1.75,1.75,0,0,0,.86.25,3,3,0,0,0,1-.08,4.16,4.16,0,0,0,1.3-.39,2.72,2.72,0,0,0,1-.72.5.5,0,0,0-.12-.75,1.23,1.23,0,0,0-.29-.13,4,4,0,0,0-.68-.11,4,4,0,0,1-1-.2.8.8,0,0,1-.36-.2.63.63,0,0,1-.07-.12l.17-.1.92-.39,1.31-.54,1.42-.61L45,73l.28-.15s0-.07,0-.08a.37.37,0,0,0-.12-.13l-1.06-.72-1.89-1.27-1-.64-.11-.08a.1.1,0,0,1,0-.18,3,3,0,0,1,1.14-.26h.92a1.51,1.51,0,0,0,.65-.18.58.58,0,0,0,.2-.18.73.73,0,0,0-.07-.82,2,2,0,0,0-.42-.41,4,4,0,0,0-2.38-.78,1.64,1.64,0,0,0-.66.16.89.89,0,0,0-.22.16.75.75,0,0,0-.21.34,1.18,1.18,0,0,1-.74.71l-.26.07L39,68.49c-.79-.54-1.6-1.06-2.38-1.61-.57-.41-1.16-.78-1.75-1.17a.31.31,0,0,0-.23-.09l-1.57.65-1.47.63L30,67.59l-.88.36c-.42.18-.85.35-1.26.54-.14.06-.27.14-.41.21h0a.09.09,0,0,0-.06-.11l-.09-.31c-.27-1.1-.55-2.21-.81-3.31a10.51,10.51,0,0,1-.34-1.65c-.05-.55-.16-1.09-.26-1.62-.25-1.3-.54-2.59-.85-3.87-.08-.34-.16-.68-.23-1a.29.29,0,0,1,0-.09c0-.07.09-.1.14-.07a2.43,2.43,0,0,0,.25.2,7.65,7.65,0,0,0,1.6.78,12.18,12.18,0,0,0,2.92.63l.14,0a1.45,1.45,0,0,0,.58.07h2.33a2.24,2.24,0,0,0,.73-.07.8.8,0,0,1,.27,0,1.65,1.65,0,0,0,.32,0,.47.47,0,0,1,.31,0l.58.25,1.68.71.93.38.38.16a.09.09,0,0,1,0,.15,1.47,1.47,0,0,1-.62.29c-.35.08-.72.13-1.08.18a1.83,1.83,0,0,0-.6.19.38.38,0,0,0-.23.36.61.61,0,0,0,.16.42,2.28,2.28,0,0,0,.68.52,4.33,4.33,0,0,0,1.64.53,2.49,2.49,0,0,0,.86.08,1.42,1.42,0,0,0,.7-.17.59.59,0,0,0,.4-.6v-.23a.71.71,0,0,1,.13-.34.84.84,0,0,1,.31-.25.32.32,0,0,1,.27,0l1.6.67,1.46.63,1.68.7.55.23a.29.29,0,0,0,.3,0l.34-.24,2.42-1.63c.43-.28.86-.56,1.28-.88a.09.09,0,0,0,0-.15,1.54,1.54,0,0,0-.78-.23h-1a1.94,1.94,0,0,1-1-.29.58.58,0,0,1-.14-.7l.09-.16a1.69,1.69,0,0,1,.47-.49,3.4,3.4,0,0,1,.88-.47,2.22,2.22,0,0,1,1-.18h0l1.37.58A.15.15,0,0,0,51.28,58.25ZM85,13.81v-.46s-.07-.07-.11-.07H83.59s-.07,0-.11.07a1.24,1.24,0,0,0,0,.47.24.24,0,0,0,.19.08h1a.3.3,0,0,0,.13,0A.34.34,0,0,0,85,13.81ZM38.53,87a.14.14,0,0,0,.14.09h1.77l.09,0,.07,0a1.49,1.49,0,0,0,0-.47.25.25,0,0,0-.24-.09H38.75a.32.32,0,0,0-.14,0s-.06,0-.09.08Zm-22.87.68a1.88,1.88,0,1,0-1.89,1.87A1.85,1.85,0,0,0,15.66,87.63Zm55-79.19a1.85,1.85,0,0,0,1.86,1.89,1.91,1.91,0,0,0,1.9-1.88,1.88,1.88,0,0,0-3.76,0ZM42.72,7.13A1.36,1.36,0,0,0,44.07,5.8a1.36,1.36,0,1,0-2.72,0A1.37,1.37,0,0,0,42.72,7.13ZM85,82.22a2.22,2.22,0,0,0,.45-.06,1.26,1.26,0,0,0,.59-.42A1.32,1.32,0,0,0,86,80a1.34,1.34,0,0,0-1.08-.48,1.35,1.35,0,0,0-1.24,1.77,1.32,1.32,0,0,0,.33.54A1.27,1.27,0,0,0,85,82.22ZM12.47,21.4a1.42,1.42,0,0,0-1.39,1.34.37.37,0,0,0,0,.18,1.41,1.41,0,0,0,.41.8,1.28,1.28,0,0,0,1.42.31,1.34,1.34,0,0,0,.76-.75,1.13,1.13,0,0,0,.12-.62,1.44,1.44,0,0,0-.71-1.07A1.28,1.28,0,0,0,12.47,21.4ZM6.78,49.83a1.1,1.1,0,0,0-.72.17,1.58,1.58,0,0,0-.34.29,1.29,1.29,0,0,0-.32.88.57.57,0,0,0,0,.18c0,.14.1.28.15.42a1.09,1.09,0,0,0,.45.5,1.28,1.28,0,0,0,1,.2A1.19,1.19,0,0,0,8,51.75c0-.1.07-.2.11-.29a1.1,1.1,0,0,0-.18-1.08A1.22,1.22,0,0,0,6.78,49.83ZM90.11,34.21h0a2.22,2.22,0,0,0,.45,0,1.36,1.36,0,0,0,.83-1.78.34.34,0,0,0-.06-.12,1.4,1.4,0,0,0-1.23-.73,1.34,1.34,0,0,0-1.32,1.39,1.23,1.23,0,0,0,.36.86l.2.19a1,1,0,0,0,.58.23Zm-36-14.28V19.7a.82.82,0,0,0-.22-.58,3.19,3.19,0,0,0-.26-.26,1.3,1.3,0,0,0-1.07-.27,1.36,1.36,0,0,0-1.07,1.06,1,1,0,0,0,0,.59,1.44,1.44,0,0,0,1.31,1,.2.2,0,0,0,.13,0l.39-.13a1.18,1.18,0,0,0,.78-1.21ZM91.21,58.7H91a1.07,1.07,0,0,0-.74.3,1.14,1.14,0,0,0-.41.88,1.08,1.08,0,0,1,0,.18,1.12,1.12,0,0,0,.23.73,1.1,1.1,0,0,0,.4.37,1.36,1.36,0,0,0,1.13.12,1.25,1.25,0,0,0,.65-.47,1,1,0,0,0,.25-.77v-.13a1.07,1.07,0,0,0-.3-.74L92,58.92a.79.79,0,0,0-.54-.22Zm-1.1-15h3a.15.15,0,0,0,.09,0s.06,0,.06-.06c.07-.4,0-.48-.31-.47h-5.8a.15.15,0,0,0-.13.16s0,.06,0,.09c0,.23.07.29.3.3h2.83ZM87.66,71h2.1L90,71a.14.14,0,0,0,.09-.09.61.61,0,0,0,0-.13c0-.33-.05-.39-.36-.39-.1,0-.21,0-.32,0H85.36a.15.15,0,0,0-.13.11.9.9,0,0,0,0,.4.14.14,0,0,0,.09.09l.32,0ZM43.39,86.42H41.56a.83.83,0,0,0-.22,0s-.05,0-.06.06a.72.72,0,0,0,0,.41.16.16,0,0,0,.09.09.47.47,0,0,0,.17,0c1.24,0,2.47,0,3.7,0,.26,0,.29,0,.29-.29a1.09,1.09,0,0,0,0-.18.13.13,0,0,0-.11-.12l-.28,0ZM21.68,20s0-.14,0-.26a1.06,1.06,0,0,0-1.39-.59,1.09,1.09,0,0,0-.49,1.4,1,1,0,0,0,1.35.46A1,1,0,0,0,21.68,20ZM5.35,61.92H7.12l.27,0s.09-.06.09-.09,0-.21,0-.32a.14.14,0,0,0-.12-.12H3.46a.15.15,0,0,0-.09,0,.17.17,0,0,0-.06.06.55.55,0,0,0,0,.36.18.18,0,0,0,.08.09l.27,0Zm86.7,9h1c.19,0,.24-.06.25-.25a2.45,2.45,0,0,0,0-.27s0-.08-.09-.09a.3.3,0,0,0-.13,0h-2l-.14,0s-.11.07-.12.12a.68.68,0,0,0,0,.4s0,.05.06.06a.57.57,0,0,0,.18,0Zm-10-57.09h.55c.37,0,.38,0,.37-.39a.28.28,0,0,0,0-.13.11.11,0,0,0-.06-.07l-.13,0H81.33s-.12.07-.12.12v.32a.15.15,0,0,0,.15.15ZM9.23,61.36H8.41l-.18,0s-.06,0-.06.06a.55.55,0,0,0,0,.4.11.11,0,0,0,.07.06l.13,0h1.74c.05,0,.12-.06.12-.12a.81.81,0,0,0,0-.22c0-.12,0-.21-.19-.21ZM6.53,31.47l-.16.15c-.47.37-.36.42-.79,0a.83.83,0,0,0-.18-.13s-.06,0-.08,0a.78.78,0,0,0-.3.27.15.15,0,0,0,0,.13,1.92,1.92,0,0,0,.44.46.15.15,0,0,0,.17,0l.24-.21a.15.15,0,0,1,.17,0l.13.12.11.09a.15.15,0,0,0,.17,0l.42-.42c.06-.05,0-.13,0-.2s-.16-.15-.24-.21S6.58,31.48,6.53,31.47ZM51.32,68.56s0-.06,0-.08a2.39,2.39,0,0,0-.23-.22.15.15,0,0,0-.21,0l-.4.37a.14.14,0,0,1-.17,0l-.4-.37a.14.14,0,0,0-.2,0,2,2,0,0,0-.25.26.11.11,0,0,0,0,.13l.45.45a.14.14,0,0,0,.17,0l.24-.21a.15.15,0,0,1,.17,0l.07.06c.24.25.27.18.47,0s.19-.19.29-.29ZM5,33.07l.22.22a.17.17,0,0,0,.28,0l.1-.09c.38-.39.33-.38.73,0l.14.12a.17.17,0,0,0,.17,0l.23-.22a.13.13,0,0,0,0-.2l-.42-.42a.15.15,0,0,0-.17,0l0,0,0,0c-.26.26-.28.24-.55,0a.39.39,0,0,0-.11-.06A1.64,1.64,0,0,0,5,33.07ZM50.33,69.62l.07,0,.36.35c.18.16.25.16.42,0a1,1,0,0,0,.08-.11.2.2,0,0,0,0-.21,2,2,0,0,0-.41-.42.15.15,0,0,0-.17,0l-.2.18c-.09.07-.15.07-.25,0l-.13-.12L50,69.25a.15.15,0,0,0-.17,0l-.44.45a.11.11,0,0,0,0,.13l.22.23a.14.14,0,0,0,.21,0ZM79.86,13.88h.64a.19.19,0,0,0,.21-.19,1.08,1.08,0,0,0,0-.18.2.2,0,0,0-.22-.23H79.35l-.09,0s-.11.07-.12.12,0,.21,0,.31a.15.15,0,0,0,.14.15ZM56.4,12s0-.07,0-.09c-.31-.36-.31-.36-.62,0a2.29,2.29,0,0,0-.21.23.09.09,0,0,0,0,.13.39.39,0,0,0,.08.1c.21.21.21.28,0,.49l-.06.06c-.06.08-.06.14,0,.2l.35.36c.1.1.17.1.27,0l.1-.09c.15-.15.15-.2,0-.34L56,12.68a.17.17,0,0,1,0-.21l.35-.36Zm-1.53-.36h0a.93.93,0,0,0-.28.28.09.09,0,0,0,0,.09.76.76,0,0,0,.08.11l.4.43c-.08.2-.28.31-.41.47l0,0a.15.15,0,0,0,0,.21l.23.22a.15.15,0,0,0,.17,0l.41-.42a.14.14,0,0,0,0-.17l-.2-.24a.14.14,0,0,1,0-.16c.07-.09.15-.16.21-.25a.17.17,0,0,0,0-.12,2.43,2.43,0,0,0-.48-.48Z"/><path class="cls-2" d="M27.41,68.7c.14-.07.27-.15.41-.21.41-.19.84-.36,1.26-.54l.88-.36,1.64-.69,1.47-.63,1.57-.65a.31.31,0,0,1,.23.09c.59.39,1.18.76,1.75,1.17.78.55,1.59,1.07,2.38,1.61l.12.07.26-.07a1.18,1.18,0,0,0,.74-.71.75.75,0,0,1,.21-.34.89.89,0,0,1,.22-.16,1.64,1.64,0,0,1,.66-.16,4,4,0,0,1,2.38.78,2,2,0,0,1,.42.41.73.73,0,0,1,.07.82.58.58,0,0,1-.2.18,1.51,1.51,0,0,1-.65.18h-.92a3,3,0,0,0-1.14.26.1.1,0,0,0,0,.18l.11.08,1,.64,1.89,1.27,1.06.72a.37.37,0,0,1,.12.13s0,.07,0,.08L45,73l-1.35.55-1.42.61-1.31.54L40,75.1l-.17.1a.63.63,0,0,0,.07.12.8.8,0,0,0,.36.2,4,4,0,0,0,1,.2,4,4,0,0,1,.68.11,1.23,1.23,0,0,1,.29.13.5.5,0,0,1,.12.75,2.72,2.72,0,0,1-1,.72,4.16,4.16,0,0,1-1.3.39,3,3,0,0,1-1,.08,1.75,1.75,0,0,1-.86-.25.45.45,0,0,1-.21-.34,1.77,1.77,0,0,1,0-.23,1.06,1.06,0,0,0,0-.31.66.66,0,0,0-.32-.42.48.48,0,0,0-.48,0c-.62.27-1.26.52-1.89.8-.2.1-.42.17-.63.25l-.25.12a.23.23,0,0,0-.12.18c0,.16-.07.33-.09.49a1.31,1.31,0,0,1-.12.44,3.62,3.62,0,0,1-.85,1.23c-.16.14-.33.27-.5.4a7.51,7.51,0,0,1-1.44.86,13.07,13.07,0,0,1-1.84.68c-.37.1-.73.22-1.1.29A11,11,0,0,1,27,82.3c-.17,0-.33.07-.49.08a3,3,0,0,0-.45.07,1.73,1.73,0,0,1-.32,0,2.32,2.32,0,0,0-.59.06,1.13,1.13,0,0,1-.32,0H21.78a1.92,1.92,0,0,1-.41,0,2.71,2.71,0,0,0-.4,0,2,2,0,0,1-.54-.06.34.34,0,0,0-.14,0,14.27,14.27,0,0,1-2-.35,15.49,15.49,0,0,1-1.88-.54,9,9,0,0,1-2.58-1.35,3.75,3.75,0,0,1-1.21-1.46,2.18,2.18,0,0,1,0-1.85,3.34,3.34,0,0,1,.7-1A5.83,5.83,0,0,1,15,74.68a11.63,11.63,0,0,1,1.24-.58,1.19,1.19,0,0,0,.25-.13c0,.11,0,.22,0,.32,0,.61,0,1.22,0,1.83a.28.28,0,0,0,.13.23l.14.1c0,.26,0,.52-.07.78a.57.57,0,0,0,0,.13.27.27,0,0,0,.06.12,1.34,1.34,0,0,0,.73.23h0a4.34,4.34,0,0,0,.69-.24.13.13,0,0,0,.07,0,.27.27,0,0,1,.3-.14,1.64,1.64,0,0,0,.54-.08,5.67,5.67,0,0,0,1.07-.38,3.78,3.78,0,0,0,.43-.26,1.21,1.21,0,0,0,.21-.24.32.32,0,0,0-.17-.51.85.85,0,0,0-.35-.08,2.88,2.88,0,0,0-.59,0l-.95.13c0-.13,0-.27,0-.4,0-.45.1-.9.15-1.35,0-.27.07-.54.11-.81h.13a3.41,3.41,0,0,1,.54-.1l.54-.08a5.09,5.09,0,0,1,.95-.09.34.34,0,0,0,.14,0,1.41,1.41,0,0,1,.54-.06h1.19a.13.13,0,0,0,.07,0s0-.08,0-.12l-.41-.28c-.47-.32-.94-.62-1.4-1-.3-.22-.21-.23.05-.35l.79-.34,1.35-.56c.38-.17.76-.32,1.14-.47,0,.06.06.11.08.16l.45,1.3L27,76.62c.16.48.12.42.59.5l0,.5a.24.24,0,0,0,.16.24,1.44,1.44,0,0,0,1.39-.11l0,0c.07-.15.19-.16.34-.15a1.81,1.81,0,0,0,.4,0,7.47,7.47,0,0,0,1-.35,4.39,4.39,0,0,0,.47-.27.86.86,0,0,0,.29-.28.41.41,0,0,0,.07-.26.23.23,0,0,0-.1-.19.37.37,0,0,0-.12-.07,1.23,1.23,0,0,0-.63-.09c-.27,0-.54.08-.81.12l-.9.11a1.37,1.37,0,0,0-.05-.4c-.18-.77-.36-1.53-.55-2.3-.37-1.48-.74-3-1.1-4.45C27.44,69,27.43,68.83,27.41,68.7Z"/><path class="cls-2" d="M74.75,81.47a1,1,0,0,1,.17,0,7.1,7.1,0,0,1,1.82.93,5.58,5.58,0,0,1,.67.61.85.85,0,0,1,.14.19,1.72,1.72,0,0,1,.26,1.26,1.19,1.19,0,0,1-.16.48c-.1.16-.21.33-.33.49a2,2,0,0,1-.25.26,7.2,7.2,0,0,1-2,1.12,10.93,10.93,0,0,1-1.58.45l-.76.14a5.58,5.58,0,0,1-.81.09.57.57,0,0,0-.18,0,1.4,1.4,0,0,1-.41,0H69c-.22,0-.42-.07-.63-.09a2.69,2.69,0,0,1-.63-.06c-.22-.06-.45-.07-.68-.11a11.21,11.21,0,0,1-2-.6,6,6,0,0,1-1.33-.69,3.53,3.53,0,0,1-.48-.36,2.39,2.39,0,0,1-.67-1,1.49,1.49,0,0,1,0-.36c0-.17-.1-.21-.25-.11l-.75.51-.72.49a.27.27,0,0,1-.26,0l-.26-.09-1.64-.69-1.42-.61-1.26-.53-1-.44-.3-.13-1.47-.62L52.86,82c-.52-.2-1-.43-1.55-.65l-.26-.1-1.42-.61-.3-.12-1.47-.62-.34-.13-.24-.13a.09.09,0,0,1,0-.15c.2-.16.41-.32.62-.46l3.22-2.16c.08,0,.14-.12.21-.17a.09.09,0,0,0,0-.12,2.81,2.81,0,0,0-1.1-.26h-.92a1.49,1.49,0,0,1-.36,0,1,1,0,0,1-.49-.3.47.47,0,0,1-.11-.51,1.4,1.4,0,0,1,.51-.69,3.45,3.45,0,0,1,1.12-.59,2.51,2.51,0,0,1,.67-.15.53.53,0,0,0,.18,0,1.45,1.45,0,0,1,.8,0,.83.83,0,0,1,.62.44c.07.12.12.24.18.36a.71.71,0,0,0,.28.29l.08,0c.51.25.42.3.9,0s1-.62,1.44-1c.73-.53,1.49-1,2.23-1.51l.19-.13a.23.23,0,0,1,.25,0l.72.31,1.64.69,1.42.61,1.39.57.19.1A.18.18,0,0,1,63,75a1.14,1.14,0,0,1-.29.15,3.6,3.6,0,0,1-.93.21,6,6,0,0,0-.72.11.69.69,0,0,0-.32.16c-.25.2-.33.36-.1.71a1.57,1.57,0,0,0,.39.38,4.29,4.29,0,0,0,1.45.64,2.19,2.19,0,0,0,.67.11.61.61,0,0,1,.27,0,1.08,1.08,0,0,0,.59,0,.57.57,0,0,1,.18,0,1.54,1.54,0,0,0,.35-.1.67.67,0,0,0,.43-.63,2.62,2.62,0,0,0,0-.28.48.48,0,0,1,.21-.38l.19-.14a.29.29,0,0,1,.22,0L66,76l.59.24a.8.8,0,0,1,.09.3l.51,2.63c.1.52.22,1,.3,1.56a.41.41,0,0,0-.22,0L67,81a.06.06,0,0,0,0,0s0,.06.05,0a1.35,1.35,0,0,1,.45,0,.26.26,0,0,1,.07.15c.12.58.23,1.15.35,1.73s.18.94.28,1.41a8.78,8.78,0,0,1-1-.13c-.17,0-.33,0-.49-.06a5,5,0,0,1-.54-.07L65.68,84a2,2,0,0,0-1.11.14.25.25,0,0,0-.14.34.7.7,0,0,0,.24.32,2,2,0,0,0,.69.35,14.33,14.33,0,0,0,3.1.69,2.75,2.75,0,0,0,1,0,.84.84,0,0,0,.37-.17.25.25,0,0,0,.11-.23l-.18-1s0,0,0-.08a.36.36,0,0,0,.09-.24c0-.07,0-.15,0-.22l.26.09a14.66,14.66,0,0,0,2.92.72,5.42,5.42,0,0,0,1.14,0,1,1,0,0,0,.55-.2.29.29,0,0,0,.11-.28c0-.12,0-.24-.06-.36a2.67,2.67,0,0,0-.15-.62c0-.22,0-.45.07-.67S74.7,81.82,74.75,81.47Z"/><path class="cls-3" d="M40.61,24.44a2.77,2.77,0,0,0,.7-.42c.15-.1.29-.21.45-.31l.2-.11a9.66,9.66,0,0,1,.94.37c.48.19,1,.4,1.42.61l.93.38,1.6.67,1.42.61,1.3.54,1.51.64,1.3.55.89.36,1.64.69a2.49,2.49,0,0,1,.33.16.44.44,0,0,1,.08.1.5.5,0,0,1-.21.22q-1.15.8-2.31,1.56l-1.59,1.07a.27.27,0,0,1-.26,0,1.42,1.42,0,0,1-.84-.79.78.78,0,0,0-.11-.2.37.37,0,0,0-.12-.13,1.11,1.11,0,0,0-.54-.22l-.18,0a.56.56,0,0,0-.36,0,.57.57,0,0,1-.18,0,1.92,1.92,0,0,0-.67.11,3.25,3.25,0,0,0-1.52.88.88.88,0,0,0-.26.7.43.43,0,0,0,.19.35,1.15,1.15,0,0,0,.67.25h1l.63.08a1.1,1.1,0,0,1,.53.23s0,0,0,0l-.08.1c-.44.3-.88.6-1.33.89s-.83.55-1.24.84-1,.69-1.52,1a1.51,1.51,0,0,1-.36-.06L43.92,36c-.28-.12-.55-.25-.83-.36s-.65-.25-1-.4-.5-.23-.75-.32c-.56-.21-1.1-.45-1.64-.69a.75.75,0,0,0-.44-.07l-.13,0a.83.83,0,0,0-.39.69,2.43,2.43,0,0,1,0,.27.3.3,0,0,1-.11.24,1.12,1.12,0,0,1-.69.31c-.28,0-.55,0-.82,0a2.38,2.38,0,0,1-.59-.07,7.79,7.79,0,0,1-1-.32,2.43,2.43,0,0,1-1-.73.46.46,0,0,1-.11-.29v-.14a.32.32,0,0,1,.14-.27,1.12,1.12,0,0,1,.28-.16,2.14,2.14,0,0,1,.66-.12,5.06,5.06,0,0,0,.68-.1,1.54,1.54,0,0,0,.35-.1,1.08,1.08,0,0,0,.24-.12,1.49,1.49,0,0,0,.14-.12.1.1,0,0,0,0-.15c-.23-.11-.47-.22-.71-.31s-.62-.24-.92-.38a5.65,5.65,0,0,0-.8-.34c-.45-.17-.89-.37-1.34-.56l-1-.4a3.75,3.75,0,0,1-.41-.19.32.32,0,0,1-.14-.18l.21-.16L33.91,29l.21-.17.08,0,1-.64c.05,0,.07-.09.11-.14a.94.94,0,0,0,.32-.15l1.33-.9a.72.72,0,0,0,.24-.14l1.66-1.11a.31.31,0,0,0,.15-.17l.16-.08,1.34-.9Z"/><path class="cls-2" d="M49.75,57.59h0a2.22,2.22,0,0,0-1,.18,3.4,3.4,0,0,0-.88.47,1.69,1.69,0,0,0-.47.49l-.09.16a.58.58,0,0,0,.14.7,1.94,1.94,0,0,0,1,.29h1a1.54,1.54,0,0,1,.78.23.09.09,0,0,1,0,.15c-.42.32-.85.6-1.28.88l-2.42,1.63-.34.24a.29.29,0,0,1-.3,0l-.55-.23-1.68-.7-1.46-.63-1.6-.67a.32.32,0,0,0-.27,0,.84.84,0,0,0-.31.25.71.71,0,0,0-.13.34v.23a.59.59,0,0,1-.4.6,1.42,1.42,0,0,1-.7.17,2.49,2.49,0,0,1-.86-.08,4.33,4.33,0,0,1-1.64-.53,2.28,2.28,0,0,1-.68-.52.61.61,0,0,1-.16-.42.38.38,0,0,1,.23-.36,1.83,1.83,0,0,1,.6-.19c.36-.05.73-.1,1.08-.18a1.47,1.47,0,0,0,.62-.29.09.09,0,0,0,0-.15l-.38-.16-.93-.38L35,58.48l-.58-.25a.47.47,0,0,0-.31,0,1.65,1.65,0,0,1-.32,0,.8.8,0,0,0-.27,0,2.24,2.24,0,0,1-.73.07H30.42a1.45,1.45,0,0,1-.58-.07l-.14,0a12.18,12.18,0,0,1-2.92-.63,7.65,7.65,0,0,1-1.6-.78,2.43,2.43,0,0,1-.25-.2c-.05,0-.11,0-.14.07a.29.29,0,0,0,0,.09.79.79,0,0,1-.08-.16c-.06-.24-.1-.48-.16-.71l-.45-1.81a.66.66,0,0,0,.22-.22,1.81,1.81,0,0,1,.49-.54,5.34,5.34,0,0,1,1.57-.9.39.39,0,0,0,.23-.14h.05l1.35.9a.48.48,0,0,1,.09.14c-.15.44-.23.89-.34,1.33a.13.13,0,0,0,.07.15l.13,0,.14-.12a.05.05,0,0,1,.08,0l0,0a1.21,1.21,0,0,1,0,.19.66.66,0,0,0,.12.43,1.15,1.15,0,0,0,.14.17,3.77,3.77,0,0,0,1.3.82.58.58,0,0,0,.23,0,.17.17,0,0,0,.17-.25,6.11,6.11,0,0,0-.27-.58,1.49,1.49,0,0,0-.12-.14,3.59,3.59,0,0,1-.08-.35,2.67,2.67,0,0,1-.12-.8c.09,0,.18.09.27.15l.66.44a.24.24,0,0,0,.16.05.87.87,0,0,0,.43-.13c.65-.27,1.29-.55,1.94-.81a1.56,1.56,0,0,1,.47-.17c0,.22.05.43.08.64a.61.61,0,0,0,0,.13.17.17,0,0,0,.16.06s.09,0,.1-.08l.09-.44s0,0,0,0a.79.79,0,0,1,.05.4.67.67,0,0,0,.28.55,1.8,1.8,0,0,0,.48.24,4.2,4.2,0,0,0,.85.2,4.13,4.13,0,0,0,.5,0,.21.21,0,0,0,.18-.12.18.18,0,0,0,0-.21c-.15-.17-.32-.33-.48-.49a.45.45,0,0,0-.12-.06l-.2-.35a4.67,4.67,0,0,1-.5-1.06.85.85,0,0,1,.31-.17c.22-.1.45-.18.67-.29s.43-.11.69.12l0,0a.48.48,0,0,1,.16.36c0,.1,0,.21,0,.32a.78.78,0,0,0,.56.63,3,3,0,0,0,.67.1,4.31,4.31,0,0,0,.95-.09,5,5,0,0,0,1.5-.52,2.37,2.37,0,0,0,.65-.49.81.81,0,0,0,.21-.54c0-.15,0-.3,0-.45s0-.55,0-.82c.31-.16.58-.38.87-.56s.41-.27.61-.41a.3.3,0,0,1,.26,0,2.46,2.46,0,0,1,.38.14c.58.23,1.15.47,1.72.72l1.42.6a1.86,1.86,0,0,0,.47.16.36.36,0,0,1-.07.1l-.84.57a.81.81,0,0,0-.16.16l-.06.06a1.1,1.1,0,0,0,0,.18c0,.88,0,1.76,0,2.64a.52.52,0,0,0,0,.18.21.21,0,0,0,.07.11l.2.1c.55.23,1.09.47,1.64.69l1.77.73S49.72,57.57,49.75,57.59Z"/><path class="cls-4" d="M46.08,52.85a.81.81,0,0,1,.16-.16l.84-.57a.36.36,0,0,0,.07-.1.3.3,0,0,1,0-.08.65.65,0,0,0,.37-.16l1.06-.7,1.49-1a.25.25,0,0,0,.13-.19l-.32-.16-.13,0a4.92,4.92,0,0,0-.94-.1,5,5,0,0,1-.55,0,1.4,1.4,0,0,1-.89-.27.51.51,0,0,0-.21-.1,1.07,1.07,0,0,1,.4-1,2.09,2.09,0,0,1,.28-.24,3.76,3.76,0,0,1,2.37-.67l.23,0a.89.89,0,0,1,.72.56,1.22,1.22,0,0,0,.63.69c.34.15.32.15.62,0L56.2,46a1.17,1.17,0,0,1,.38-.21l.83.35,4.29,1.81a2,2,0,0,1,.33.15s0,.07.07.1a1.8,1.8,0,0,0-.21.08,2.73,2.73,0,0,1-1.22.31c-.25.06-.51.08-.76.16a.81.81,0,0,0-.4.28.3.3,0,0,0,0,.3.76.76,0,0,0,.15.28,1.46,1.46,0,0,0,.36.34,4.43,4.43,0,0,0,1.46.64,1.71,1.71,0,0,0,.67.1,1.11,1.11,0,0,0,.16.07,2.8,2.8,0,0,0,1-.07l.22-.07a.62.62,0,0,0,.39-.57c0-.12,0-.24,0-.36a.42.42,0,0,1,.14-.28,2.51,2.51,0,0,1,.32-.25.28.28,0,0,1,.18,0c.17.06.33.14.5.21l2.06.86.25.1c0,.12,0,.24,0,.36,0,.77,0,1.54,0,2.31a2.45,2.45,0,0,1,0,.27l-.31.18-1.65,1.13c-1.39,1-2.81,1.85-4.19,2.82-.49.34-1,.66-1.48,1a1.21,1.21,0,0,1-.2.09,1,1,0,0,1-.53-.13,1.43,1.43,0,0,0-.28-.13c-.33-.12-.65-.25-1-.4s-.53-.24-.79-.34L56,57.06l-.79-.35c-.32-.13-.65-.25-1-.39s-.49-.23-.75-.33c-.45-.16-.9-.36-1.34-.55l-1.38-.59-.8-.34-.92-.38c-.27-.11-.53-.24-.79-.34s-.65-.25-1-.4-.52-.24-.79-.34Z"/><path class="cls-5" d="M14.26,45a.31.31,0,0,1-.17-.3,5.49,5.49,0,0,1,.05-.91,1.13,1.13,0,0,0,0-.32c0-.44,0-.88,0-1.32a3.54,3.54,0,0,1,.06-.73,1.69,1.69,0,0,0,0-.32c0-.41,0-.82,0-1.23a3.94,3.94,0,0,1,.08-.77A1.86,1.86,0,0,1,15,38a1.82,1.82,0,0,1,.65-.33,5.75,5.75,0,0,1,1.16-.2,2.5,2.5,0,0,0,.55-.05,1.2,1.2,0,0,1,.5,0,1.52,1.52,0,0,0,.62.24,4.4,4.4,0,0,0,1.25.19.3.3,0,0,1,.13,0,2.08,2.08,0,0,0,.86,0,5.66,5.66,0,0,1,1.1.42,4.32,4.32,0,0,1,.53.26c.22.12.45.23.69.34a2.63,2.63,0,0,1,1.07.89,4.19,4.19,0,0,1,.69,1.66,7.36,7.36,0,0,0,.21.93c.22,1,.45,2,.67,3l-.09.25-.21.07-.62.38a7.31,7.31,0,0,1-.68.35c-.42.16-.38.18-.38.55a2.44,2.44,0,0,0,0,.27.26.26,0,0,0,.07.11.66.66,0,0,0,0,.14c0,1,.08,1.93.13,2.89,0,.31,0,.61,0,.91s0,.42,0,.64c0,.41,0,.82,0,1.23,0,.16,0,.33,0,.5a.2.2,0,0,0-.07.06,1.68,1.68,0,0,1-.9.58,4.86,4.86,0,0,1-1.26.19,14.39,14.39,0,0,1-2.54-.16,15.94,15.94,0,0,1-3.05-.73l-.07-.05a.44.44,0,0,1-.25-.45c0-.82,0-1.64,0-2.46a17.54,17.54,0,0,0,.08-1.91c0-.16,0-.31,0-.46a2.51,2.51,0,0,0,0-.27c0-.1,0-.21.05-.31V46.2a1.28,1.28,0,0,0-.15-.64A7.35,7.35,0,0,1,14.26,45Z"/><path class="cls-6" d="M25.58,45.72l.09-.25c-.22-1-.45-2-.67-3l5.29-2.23a3.31,3.31,0,0,0,.33-.15.56.56,0,0,0,.26-.07l2.5-1a.83.83,0,0,0,.16-.09l.22,0a1.23,1.23,0,0,0,.35.29c.59.41,1.19.81,1.8,1.22l.57.36,1.13.76.43.28a1.35,1.35,0,0,0,1-.69l.09-.21a.88.88,0,0,1,.59-.47,2.23,2.23,0,0,1,.85-.06,4.15,4.15,0,0,1,1.68.54,2.46,2.46,0,0,1,.57.45,1.11,1.11,0,0,1,.34,1,.26.26,0,0,0-.12.05,1.49,1.49,0,0,1-1,.33h-.41a3.82,3.82,0,0,0-1,.08,2.24,2.24,0,0,0-.55.19.09.09,0,0,0,0,.15l.29.21c.3.21.62.39.91.61.51.38,1.06.71,1.58,1.08a.77.77,0,0,0,.33.15.64.64,0,0,0,.23.2l.85.57s.1.07.09.14a3.81,3.81,0,0,0-.64.24c-.28.14-.58.26-.87.38l-.93.38c-.26.12-.52.24-.79.34l-1,.4c-.3.14-.62.25-.92.39a2.47,2.47,0,0,0-.36.19.11.11,0,0,0,0,.12.22.22,0,0,0,.06.07,2.31,2.31,0,0,0,1,.32,1.39,1.39,0,0,1,.4.06.85.85,0,0,0,.23,0,1.69,1.69,0,0,1,.39.08.74.74,0,0,1,.39.3.35.35,0,0,1,0,.13.7.7,0,0,1-.06.35,1,1,0,0,1-.33.38,4.41,4.41,0,0,1-1.34.66,4.33,4.33,0,0,1-.79.19c-.26,0-.52,0-.78,0h-.18a1.43,1.43,0,0,1-.7-.18.43.43,0,0,1-.22-.22.57.57,0,0,1-.08-.26v-.32a.55.55,0,0,0-.28-.49l-.19-.13a.2.2,0,0,0-.21,0c-.42.19-.85.32-1.26.53a2.29,2.29,0,0,1-.56.18.54.54,0,0,0-.56-.38.48.48,0,0,1-.17,0,1.57,1.57,0,0,0-.86,0,1.47,1.47,0,0,1-.72,0,6.17,6.17,0,0,1-.85-.2c-.56-.18-1.11-.4-1.66-.62a2.49,2.49,0,0,1-.28-.15,11.9,11.9,0,0,1-2-1.56c-.46-.44-.91-.9-1.36-1.35C25.77,45.86,25.7,45.75,25.58,45.72Z"/><path class="cls-7" d="M51.79,35.76c0-.06.08-.08.13-.1l2.77-1.17,2.18-.92.25-.1c.33-.14.34-.15.65.11A.55.55,0,0,1,58,34c0,.11,0,.21,0,.32a.6.6,0,0,0,.38.52,3,3,0,0,0,.39.13,2.75,2.75,0,0,0,1,0s.08,0,.11-.07a2.44,2.44,0,0,0,.89-.14,5.5,5.5,0,0,0,1-.4,2.4,2.4,0,0,0,.64-.5.76.76,0,0,0,.18-.41.21.21,0,0,0,0-.13A.62.62,0,0,0,62,33a4.21,4.21,0,0,0-.71-.12,2.83,2.83,0,0,1-1.46-.46l.09-.09,1-.45,2.61-1.09.29-.14s0,0,.05-.07h0a.3.3,0,0,0,.29-.1l.63-.23.47-.19a.37.37,0,0,1,.31,0l.24.19L68.46,32l3.7,2.49.72.47,1.36.91c.19.13.39.24.58.36a4.34,4.34,0,0,0,1,.68l.31.25a.28.28,0,0,1-.15.15l-.88.36-.46.19-1.29.55c-.17.07-.34.13-.51.21-.38.17-.77.34-1.16.49a4.08,4.08,0,0,0-.42.17,1.45,1.45,0,0,0-.44.24c-.22,0-.45.07-.67.12a2.28,2.28,0,0,0-1.34.72,3.23,3.23,0,0,0-.47.15c-.48.24-1,.4-1.47.63s-.9.35-1.35.55l-1.38.59-.46.19-.92.4a1.18,1.18,0,0,1-.27.06l-1-.65-3.14-2.12-.1-.09a.1.1,0,0,1,0-.15,1.54,1.54,0,0,1,.69-.21h.78a1.13,1.13,0,0,0,.32,0,3.47,3.47,0,0,1,.45-.06.84.84,0,0,0,.76-.57.3.3,0,0,0,0-.13,1,1,0,0,0-.16-.42,2.65,2.65,0,0,0-.59-.57,3.75,3.75,0,0,0-1.62-.6l-.13,0a1.59,1.59,0,0,0-1,.07.79.79,0,0,0-.47.41,4,4,0,0,0-.2.35,1.21,1.21,0,0,1-.47.43,1.86,1.86,0,0,1-.25.1.3.3,0,0,1-.3,0c-.36-.26-.72-.51-1.09-.75l-2.88-1.94Z"/><path class="cls-8" d="M74.82,36.2c-.19-.12-.39-.23-.58-.36l-1.36-.91c0-.31.06-.61.07-.91,0-.76.09-1.52.13-2.28l0-.32a13.49,13.49,0,0,0,0-2c0-.33,0-.67,0-1s0-.46,0-.69a6.73,6.73,0,0,0-.09-1.27,6.21,6.21,0,0,0-.14-.62s-.06,0-.07,0a1.8,1.8,0,0,0-.19.2,18.77,18.77,0,0,1-1.88,2.11.25.25,0,0,1-.22.11L70.19,28,70,27.89a1,1,0,0,0-.08-.11,4.39,4.39,0,0,1-1-1.11l-.19-.26-.14-.34c.37-.58.78-1.12,1.15-1.69a1.65,1.65,0,0,0,.29-.45c.09-.12.19-.24.27-.36l1.27-1.83a2.43,2.43,0,0,1,.44-.52,1.78,1.78,0,0,1,1-.45c.38-.05.75-.08,1.13-.14a6,6,0,0,1,1-.05,1.33,1.33,0,0,0-.09.44.55.55,0,0,0,.14.37,1.27,1.27,0,0,0,.61.38,2.79,2.79,0,0,0,.81.08,1.37,1.37,0,0,0,.49-.09.82.82,0,0,0,.54-.57c0-.08,0-.17.07-.26a1.46,1.46,0,0,1,.43.15c.38.16.76.32,1.13.5s.85.4,1.26.63a2.52,2.52,0,0,1,1.3,1.62l.78,2.76s0,.06,0,.09a.37.37,0,0,1-.09.41l0,0v0l0,.09a1.34,1.34,0,0,0-.31.27,3.92,3.92,0,0,1-1.67,1l-.18.05c-.09,0-.12.07-.08.16s.11.29.16.43l.36.88a.81.81,0,0,0,0,.53c.07.28.1.57.15.86,0,.1,0,.2.07.3s-.17.39-.27.58c-.64,1.27-1.27,2.55-1.83,3.86l-.22.45H76.9a7,7,0,0,0-.78-.11L76,36.41a6.35,6.35,0,0,1-.87-.16Z"/><path class="cls-9" d="M67.47,80.75c-.08-.52-.2-1-.3-1.56l-.51-2.63a.8.8,0,0,0-.09-.3,2.45,2.45,0,0,0,0-.27c-.23-1.19-.46-2.38-.7-3.57a4.21,4.21,0,0,0-.12-.48,1.9,1.9,0,0,1-.09-.58c0-.52,0-1,.07-1.54,0-.32.07-.64.1-.95s.08-.67.14-1c.15-.87.32-1.73.53-2.59a37.24,37.24,0,0,1,1.38-4.39,4.2,4.2,0,0,0,.28-1.15,1.73,1.73,0,0,1,.68,0,4.88,4.88,0,0,1,.65.2,2.5,2.5,0,0,0,.66.19,2.25,2.25,0,0,0,1.2-.18c.15-.07.31-.14.45-.22a1.86,1.86,0,0,1,.55-.22l.26-.07A8.16,8.16,0,0,0,73.87,59a1.41,1.41,0,0,1,.57-.14,2.73,2.73,0,0,0,.41,0l.32,0a1.05,1.05,0,0,0,.18.54c0,.26.09.49.1.75a.28.28,0,0,0,0,.12l0,0,0,.47s0,.05,0,.08a1.1,1.1,0,0,1-.35.57l-.23.23a2.38,2.38,0,0,1-.49.4,3.28,3.28,0,0,1-.78.37,10.15,10.15,0,0,1-1.22.38,2.22,2.22,0,0,0-.3.11c0,.08-.1.16-.13.24-.1.27-.23.53-.34.8s-.25.65-.4,1-.17.39-.24.58a.85.85,0,0,0,0,.23.38.38,0,0,0-.11.14c-.12.26-.23.52-.33.79a.51.51,0,0,0,0,.13h0c-.06,0-.08.05-.07.11a1.19,1.19,0,0,0-.09.15c-.7,1.64-1.41,3.26-2.16,4.87a1,1,0,0,0,0,.11,4.65,4.65,0,0,1,.29.43,7.51,7.51,0,0,1,1,3.22c0,.57.08,1.15.11,1.73a1.1,1.1,0,0,1,0,.18c0,.48,0,1,0,1.43a.29.29,0,0,0,.05.13.86.86,0,0,0,0,.17c0,.49,0,1,0,1.47l0,2.13a3.76,3.76,0,0,0,0,.75.79.79,0,0,0,0,.22c0,.07,0,.15,0,.22a.36.36,0,0,1-.09.24l-.09.09a1.51,1.51,0,0,1-1.4-.08l-.27-1.41c-.12-.58-.23-1.15-.35-1.73a.26.26,0,0,0-.07-.15A.62.62,0,0,0,67.47,80.75Z"/><path class="cls-10" d="M16.13,53.7a15.94,15.94,0,0,0,3.05.73,14.39,14.39,0,0,0,2.54.16A4.86,4.86,0,0,0,23,54.4a1.68,1.68,0,0,0,.9-.58.2.2,0,0,1,.07-.06l.13.36.45,1.81c.06.23.1.47.16.71a.79.79,0,0,0,.08.16c.07.34.15.68.23,1,.31,1.28.6,2.57.85,3.87.1.53.21,1.07.26,1.62A10.51,10.51,0,0,0,26.45,65c.26,1.1.54,2.21.81,3.31l.09.31a.08.08,0,0,0,.06.11h0c0,.13,0,.27.06.4.36,1.48.73,3,1.1,4.45.19.77.37,1.53.55,2.3a1.37,1.37,0,0,1,.05.4c-.09.06-.13.16-.2.24a1.2,1.2,0,0,1-.8.53c-.19.1-.41,0-.61.1-.47-.08-.43,0-.59-.5l-1.82-5.31L24.7,70c0-.05-.05-.1-.08-.16s0-.2-.07-.3l-.45-1.34a13.15,13.15,0,0,1-.76-4.07.89.89,0,0,0-.15-.42c-1-1.59-1.85-3.22-2.7-4.87a.13.13,0,0,0-.09-.15c0-.07,0-.14-.07-.21L19.6,57a.2.2,0,0,1,0-.08.26.26,0,0,0-.17-.14,2.67,2.67,0,0,0-.26-.09,3.74,3.74,0,0,1-.85-.3,4.46,4.46,0,0,1-1.14-.74,2.64,2.64,0,0,1-.62-.71l-.24-.44a.23.23,0,0,0-.13-.11A2.12,2.12,0,0,1,16.13,53.7Z"/><path class="cls-11" d="M76.12,36.47a7,7,0,0,1,.78.11s0,0,0,0a1.65,1.65,0,0,1,.29.3s0,0,0,0,.25.11.32.25l-.14.13-.75.59a3.92,3.92,0,0,0-.32.25.18.18,0,0,0-.06.17,1.42,1.42,0,0,1,0,.22l.21.09a1.07,1.07,0,0,0,.8.1,2.33,2.33,0,0,0,1.24-.8c.41-.49.8-1,1.19-1.5a2.89,2.89,0,0,1,.38-.4,3.56,3.56,0,0,0,.56-.6.36.36,0,0,1,.15-.08l0,.23c0,.7.07,1.39.1,2.09,0,1,.09,1.92.14,2.88,0,.14,0,.27,0,.41,0,1.55.06,3.1,0,4.66,0,.5,0,1-.08,1.5a3.55,3.55,0,0,0,0,.46.57.57,0,0,0,0,.22c.07.16.16.32.23.49A9.58,9.58,0,0,1,82,50.58a14.93,14.93,0,0,1,.18,2.91c0,.12,0,.25,0,.37-.06.47-.05.94-.07,1.41,0,1-.1,2.1-.14,3.15a2.43,2.43,0,0,0,0,.27l0,.27c0,.26,0,.51,0,.77a.27.27,0,0,1-.2.27l-.25.09a1.18,1.18,0,0,0-.27,0,1.91,1.91,0,0,1-.58.06h-.27L80,60a.34.34,0,0,1-.2-.28c-.09-.56-.21-1.12-.26-1.7a.31.31,0,0,0,0-.12l-.3-1.89c-.16-1-.33-2.1-.49-3.15-.21-1.32-.43-2.64-.64-4a10.67,10.67,0,0,0-.26-1.25c-.23-.76-.38-1.53-.54-2.3-.07-.35-.13-.69-.19-1a.18.18,0,0,0-.08-.21c0-.31-.12-.6-.12-.9s-.15-.84-.24-1.25a1.8,1.8,0,0,1-.09-.45c0-.23-.1-.44-.11-.67s-.11-.47-.11-.72c0-.07-.07-.08-.13-.09l0-.46v-2c0-.11,0-.22,0-.32a.28.28,0,0,0-.08-.11l-.31-.25c0-.09,0-.18,0-.27a.13.13,0,0,1,.12-.12A.52.52,0,0,1,76.12,36.47Z"/><path class="cls-2" d="M68.14,59.74a4.2,4.2,0,0,1-.28,1.15,37.24,37.24,0,0,0-1.38,4.39c-.21.86-.38,1.72-.53,2.59-.06.33-.1.67-.14,1a.63.63,0,0,0-.36,0c-.47.21-.94.42-1.42.61s-.45.24-.91-.08c-1.23-.82-2.44-1.66-3.67-2.47a1.84,1.84,0,0,1-.22-.17.08.08,0,0,1,0-.12,1.34,1.34,0,0,1,.64-.2,6.06,6.06,0,0,1,.73-.09c.24,0,.48,0,.73,0a1.32,1.32,0,0,0,.69-.2c.06,0,.11-.1.17-.15a.34.34,0,0,0,.06-.12.85.85,0,0,0-.18-.77,2.58,2.58,0,0,0-.7-.58,5.3,5.3,0,0,0-1.1-.45c-.29,0-.56-.11-.85-.11a1.76,1.76,0,0,0-.87.25.66.66,0,0,0-.28.36,1.43,1.43,0,0,1-.83.79l0,0a.24.24,0,0,1-.26,0l-.76-.5-1.55-1L53,62.61l-.09-.12c.1-.05.19-.11.29-.15l1.13-.48.93-.38,1.6-.68a.18.18,0,0,0,.12-.17l.13,0,2.15.91a.56.56,0,0,0,.36,0,.42.42,0,0,0,.35.18,6.91,6.91,0,0,0,.91,0,4.83,4.83,0,0,0,.84-.18A4.56,4.56,0,0,0,63.08,61a1.32,1.32,0,0,0,.52-.67.28.28,0,0,0,0-.18.67.67,0,0,0-.5-.42l-.44-.11.12-.11A.84.84,0,0,0,63,59.3a3.4,3.4,0,0,1,.34-.12l1.13-.32L66,58.42A10.93,10.93,0,0,0,67.34,58l.46-.21.22-.06c-.07.17-.13.34-.19.51l-.56,1.4a1.12,1.12,0,0,1,0,.13s0,.11,0,.11l.08,0A2.81,2.81,0,0,1,68.14,59.74Z"/><path class="cls-12" d="M16.15,54.41a.23.23,0,0,1,.13.11l.24.44a2.64,2.64,0,0,0,.62.71,4.46,4.46,0,0,0,1.14.74,3.74,3.74,0,0,0,.85.3,2.67,2.67,0,0,1,.26.09.26.26,0,0,1,.17.14.2.2,0,0,0,0,.08l.73,1.47c0,.07,0,.14.07.21s-.06.1,0,.17c-.07.9-.15,1.79-.24,2.69-.09.72-.17,1.45-.3,2.17a6,6,0,0,0-.11,1c0,.11,0,.21,0,.32,0,.58-.1,1.15-.14,1.73s-.08,1.09-.13,1.64c0,.39-.06.79-.1,1.18s-.09,1-.14,1.55-.11,1.21-.16,1.82c0,.13,0,.27,0,.41s-.08.54-.11.81c-.05.45-.11.9-.15,1.35,0,.13,0,.27,0,.4a.33.33,0,0,0-.09.2.43.43,0,0,1-.06.17.83.83,0,0,1-.65.37,1.84,1.84,0,0,1-.9-.11.67.67,0,0,0-.31-.07l-.14-.1a.28.28,0,0,1-.13-.23c0-.61,0-1.22,0-1.83,0-.1,0-.21,0-.32s0-.33,0-.5c0-1.52,0-3-.05-4.57,0-.52,0-1,0-1.55s.07-1.22.1-1.83a10.5,10.5,0,0,1,.24-1.67.29.29,0,0,1,0-.09,1.64,1.64,0,0,0,0-1c-.12-1-.24-1.91-.35-2.86-.06-.48-.09-1-.13-1.45s-.09-1.25-.14-1.87c0-.28,0-.55,0-.82s0-.77,0-1.15A.81.81,0,0,1,16.15,54.41Z"/><path class="cls-13" d="M71,65.68a.85.85,0,0,1,0-.23c.07-.19.15-.39.24-.58s.27-.65.4-1,.24-.53.34-.8c0-.08.09-.16.13-.24a2.22,2.22,0,0,1,.3-.11,10.15,10.15,0,0,0,1.22-.38,3.28,3.28,0,0,0,.78-.37,2.38,2.38,0,0,0,.49-.4l.23-.23a1.1,1.1,0,0,0,.35-.57s0-.06,0-.08a2.75,2.75,0,0,1,0,.41c0,.28,0,.57-.06.86,0,.93-.11,1.87-.18,2.8a.09.09,0,0,0,0,0c0,.39-.07.79-.1,1.18l-.12,1.69c0,.56-.1,1.12-.14,1.68,0,.33-.06.67-.1,1,0,.5-.09,1-.14,1.5a.87.87,0,0,0,.06.45,7.64,7.64,0,0,1,.47,1.94,12.56,12.56,0,0,1,.06,1.37,20.65,20.65,0,0,1-.18,2.6c-.08.65-.15,1.3-.22,2,0,.36-.09.72-.14,1.08a1.21,1.21,0,0,0,0,.19c0,.35-.1.71-.14,1.07s0,.45-.07.67c-.05,0-.1,0-.12.1a2.53,2.53,0,0,1-.53.12,1.16,1.16,0,0,1-.89-.27A.57.57,0,0,0,73,83l-.15-2s0-.08,0-.13c0-.8-.11-1.6-.17-2.41,0-.36-.05-.72-.08-1.09l-.15-2-.12-1.64c0-.56-.1-1.12-.13-1.68a3.55,3.55,0,0,0-.16-.8c-.25-.8-.44-1.61-.61-2.43s-.25-1.5-.36-2.26l0-.44Z"/><path class="cls-14" d="M68.76,40.33a2.28,2.28,0,0,1,1.34-.72c.22,0,.45-.08.67-.12s.31,0,.46,0c.33,0,.66.12,1,.18a2.18,2.18,0,0,1,1.36.84c.11.15.21.3.31.46s.11.17.17.26c.1.32.22.63.31,1a3.59,3.59,0,0,1,.16,1,3.8,3.8,0,0,0,.26,1.42c0,.1.06.21.1.31a1.89,1.89,0,0,1,0,1,1.94,1.94,0,0,0,0,.72,1.61,1.61,0,0,0,.23.69c.08.14.17.28.26.42s.16.26.22.4a1.13,1.13,0,0,1-.28,1.37,4.15,4.15,0,0,1-.34.24,1.52,1.52,0,0,0-.39.37.48.48,0,0,0-.11.29.89.89,0,0,0-.17.37,1.19,1.19,0,0,1-.46.65,1.7,1.7,0,0,1-.83.2,1.84,1.84,0,0,1-.62-.11l-.3-.1a1,1,0,0,0-.45-.07,1.11,1.11,0,0,0-.4.06,2.48,2.48,0,0,1-.39.1,1.17,1.17,0,0,1-.8-.09l-.21-.08c0-.08-.08-.16-.13-.24a1.32,1.32,0,0,1-.16-.51,2.78,2.78,0,0,1,.06-.91c0-.17.09-.35.13-.53s.06-.06.07-.1c.08-.22.14-.44.22-.65A1.53,1.53,0,0,0,70,47.29s-.06-.07-.09-.1a.65.65,0,0,0,0-.13,4.78,4.78,0,0,1-.46-1.65.68.68,0,0,0,0-.14s0-.06,0-.09l-.09-1.63c0-.1,0-.21,0-.31-.05-.41-.11-.82-.14-1.22a.91.91,0,0,0-.2-.54l-.16-.16A1.26,1.26,0,0,1,68.76,40.33Z"/><path class="cls-15" d="M34.35,50.21a2.29,2.29,0,0,0,.56-.18c.41-.21.84-.34,1.26-.53a.2.2,0,0,1,.21,0l.19.13a.55.55,0,0,1,.28.49v.32a.57.57,0,0,0,.08.26.43.43,0,0,0,.22.22,1.43,1.43,0,0,0,.7.18H38c.26,0,.52,0,.78,0a4.33,4.33,0,0,0,.79-.19,4.41,4.41,0,0,0,1.34-.66,1,1,0,0,0,.33-.38.7.7,0,0,0,.06-.35.35.35,0,0,0,0-.13.74.74,0,0,0-.39-.3A1.69,1.69,0,0,0,40.5,49a.85.85,0,0,1-.23,0,1.39,1.39,0,0,0-.4-.06,2.31,2.31,0,0,1-1-.32.22.22,0,0,1-.06-.07.11.11,0,0,1,0-.12,2.47,2.47,0,0,1,.36-.19c.3-.14.62-.25.92-.39l1-.4c.27-.1.53-.22.79-.34l.93-.38c.29-.12.59-.24.87-.38a3.81,3.81,0,0,1,.64-.24,1.13,1.13,0,0,1,0,.18c0,.91,0,1.82,0,2.73a.91.91,0,0,1,0,.17.22.22,0,0,1-.05.08l-.29.13-2.18.91-.29.13a.22.22,0,0,0-.14.21,3.94,3.94,0,0,0,0,.77c0,.27,0,.55,0,.82s0,.3,0,.45a.81.81,0,0,1-.21.54,2.37,2.37,0,0,1-.65.49,5,5,0,0,1-1.5.52,4.31,4.31,0,0,1-.95.09,3,3,0,0,1-.67-.1.78.78,0,0,1-.56-.63c0-.11,0-.22,0-.32a.48.48,0,0,0-.16-.36l0,0c-.26-.23-.33-.28-.69-.12s-.45.19-.67.29a.85.85,0,0,0-.31.17,3.33,3.33,0,0,0-.87.36s0,0,0,0a1.21,1.21,0,0,0-.6.24A1.56,1.56,0,0,0,33,54c-.65.26-1.29.54-1.94.81a.87.87,0,0,1-.43.13V52.19c0-.14,0-.27,0-.41a1.91,1.91,0,0,0,.34-.1l1.24-.52.37-.15.21.18.39.31a.47.47,0,0,0,.59,0l.23-.14a.69.69,0,0,0,.2-.25A1.46,1.46,0,0,0,34.35,50.21Z"/><path class="cls-2" d="M75.29,64.84a.09.09,0,0,1,0,0c.07-.93.14-1.87.18-2.8,0-.29,0-.58.06-.86a2.75,2.75,0,0,0,0-.41l0-.47a.31.31,0,0,0,.17-.29,2.71,2.71,0,0,0-.08-.69,2.56,2.56,0,0,0,.08-.73,2.27,2.27,0,0,0,.4-.48h2.35a2.15,2.15,0,0,1,.67.07.59.59,0,0,0,.23,0,.14.14,0,0,0,.1-.07.45.45,0,0,0,.06-.12.31.31,0,0,1,0,.12c0,.58.17,1.14.26,1.7A.34.34,0,0,0,80,60l.34.14c-.06.17-.11.35-.17.52-.13.4-.26.81-.4,1.21a.42.42,0,0,0,0,.27,1,1,0,0,0,.09.3,1.2,1.2,0,0,0,.18.31.55.55,0,0,0,.62.18,1.57,1.57,0,0,0,.45-.22,3.53,3.53,0,0,0,.59-.57.3.3,0,0,0,.07-.21,1.23,1.23,0,0,0,0-.27l-.21-1.39a1.42,1.42,0,0,0-.07-.22l.25-.09a.27.27,0,0,0,.2-.27c0-.26,0-.51,0-.77l0-.27c.45.19.9.38,1.33.6a4.6,4.6,0,0,1,1.25,1,1.73,1.73,0,0,1,.39.76c0,.08,0,.16,0,.23a.61.61,0,0,1,0,.4c0,.14-.07.29-.13.44a2.6,2.6,0,0,1-.9,1.07,6.67,6.67,0,0,1-1.86,1c-.59.21-1.19.34-1.79.5-.31,0-.6.13-.91.12a.55.55,0,0,0-.18,0,4.1,4.1,0,0,1-1,.08,2.57,2.57,0,0,0-.68,0,.94.94,0,0,1-.5,0,1.7,1.7,0,0,0-.5,0h-.73l-.36,0A.48.48,0,0,0,75.29,64.84Z"/><path class="cls-16" d="M31.54,30.61a.32.32,0,0,0,.14.18,3.75,3.75,0,0,0,.41.19l1,.4c.45.19.89.39,1.34.56a5.65,5.65,0,0,1,.8.34c.3.14.61.26.92.38s.48.2.71.31a.1.1,0,0,1,0,.15,1.49,1.49,0,0,1-.14.12,1.08,1.08,0,0,1-.24.12,1.54,1.54,0,0,1-.35.1,5.06,5.06,0,0,1-.68.1,2.14,2.14,0,0,0-.66.12,1.12,1.12,0,0,0-.28.16.32.32,0,0,0-.14.27v.14a.46.46,0,0,0,.11.29,2.43,2.43,0,0,0,1,.73,7.79,7.79,0,0,0,1,.32,2.38,2.38,0,0,0,.59.07c.27,0,.54,0,.82,0a1.12,1.12,0,0,0,.69-.31.3.3,0,0,0,.11-.24,2.43,2.43,0,0,0,0-.27.83.83,0,0,1,.39-.69l.13,0a.75.75,0,0,1,.44.07c.54.24,1.08.48,1.64.69.25.09.5.21.75.32s.64.28,1,.4.55.24.83.36l.71.31a1.51,1.51,0,0,0,.36.06.63.63,0,0,0-.09.38v2.4a1.09,1.09,0,0,0,0,.18.21.21,0,0,0,.1.14.15.15,0,0,1-.16.07l-.13-.05L40.9,37.83l-1.3-.54a.81.81,0,0,0-.22-.07.33.33,0,0,0-.17,0,.83.83,0,0,0-.34.3.56.56,0,0,0-.09.21c0,.12,0,.24,0,.36a.64.64,0,0,1-.39.57l-.13,0a2.5,2.5,0,0,1-1.12.09l-.32,0a.48.48,0,0,0-.16-.08l-.49-.11A4.33,4.33,0,0,1,35,38.06a2.27,2.27,0,0,1-.44-.38.73.73,0,0,1-.18-.42V37c0-.49,0-1,0-1.46v-.47c-.08,0-.16-.1-.24-.13l-2.39-1a.51.51,0,0,1-.29-.18c0-.07,0-.16,0-.25,0-.85,0-1.7,0-2.55,0-.08,0-.15,0-.23S31.5,30.64,31.54,30.61Z"/><path class="cls-17" d="M59.61,61.62a.56.56,0,0,1-.36,0l-2.15-.91-.13,0-1.67-.71-2.42-1-.3-.11s0,0-.07-.06l-.79-.33a1.3,1.3,0,0,0-.42-.14h0a.12.12,0,0,0-.16-.08l-1.37-.58s0,0-.07-.05l-1.77-.73c-.55-.22-1.09-.46-1.64-.69l-.2-.1a.21.21,0,0,1-.07-.11.52.52,0,0,1,0-.18c0-.88,0-1.76,0-2.64a1.1,1.1,0,0,1,0-.18l.06-.06.46.2c.27.1.53.22.79.34s.64.27,1,.4.52.23.79.34l.92.38.8.34,1.38.59c.44.19.89.39,1.34.55.26.1.5.22.75.33s.65.26,1,.39l.79.35.93.38c.26.1.53.22.79.34s.64.28,1,.4a1.43,1.43,0,0,1,.28.13,1,1,0,0,0,.53.13c0,.16,0,.31,0,.46v1.55a1.43,1.43,0,0,1-.06.5,1.09,1.09,0,0,0,0,.31.3.3,0,0,0,.19.29A.19.19,0,0,1,59.61,61.62Z"/><path class="cls-18" d="M51.79,35.76l.27.16,2.88,1.94c.37.24.73.49,1.09.75a.3.3,0,0,0,.3,0,1.86,1.86,0,0,0,.25-.1,1.21,1.21,0,0,0,.47-.43,4,4,0,0,1,.2-.35.79.79,0,0,1,.47-.41,1.59,1.59,0,0,1,1-.07l.13,0a3.75,3.75,0,0,1,1.62.6,2.65,2.65,0,0,1,.59.57,1,1,0,0,1,.16.42.3.3,0,0,1,0,.13.84.84,0,0,1-.76.57,3.47,3.47,0,0,0-.45.06,1.13,1.13,0,0,1-.32,0h-.78a1.54,1.54,0,0,0-.69.21.1.1,0,0,0,0,.15l.1.09,3.14,2.12,1,.65c0,1.06,0,2.12,0,3.18L62.29,46l-4-2.73c-.06,0-.11-.1-.18-.15v-.46c0-.64,0-1.28,0-1.92a.57.57,0,0,0,0-.13.1.1,0,0,0-.12-.1.8.8,0,0,0-.62.41,1.24,1.24,0,0,0-.1.2,1.31,1.31,0,0,1-.67.66l-.21.08a.23.23,0,0,1-.18,0l-.19-.12-3.86-2.6-.29-.22a2,2,0,0,1,0-.23c0-.88,0-1.77,0-2.65A1.26,1.26,0,0,1,51.79,35.76Z"/><path class="cls-19" d="M31.54,30.61s-.08.05-.09.1,0,.15,0,.23c0,.85,0,1.7,0,2.55,0,.09,0,.18,0,.25a.51.51,0,0,0,.29.18l2.39,1c.08,0,.16.09.24.13v.47c0,.49,0,1,0,1.46v.27a.73.73,0,0,0,.18.42,2.27,2.27,0,0,0,.44.38,4.33,4.33,0,0,0,1.21.53l.49.11a.48.48,0,0,1,.16.08c-.09.56-.18,1.13-.28,1.7,0,.08,0,.17-.05.26l-.57-.36c-.61-.41-1.21-.81-1.8-1.22a1.23,1.23,0,0,1-.35-.29c0-.12,0-.24,0-.36s0,0-.05-.08h-.07c0,.14,0,.27-.05.41a.83.83,0,0,1-.16.09l-2.5,1a.56.56,0,0,1-.26.07c-.05-.27-.11-.54-.14-.81-.08-.62-.15-1.24-.22-1.86s-.09-1.06-.14-1.59c0-.06,0-.12,0-.18,0-.53-.07-1.06-.1-1.6,0-.86-.05-1.73-.09-2.6A7.12,7.12,0,0,1,30.23,29c.21-.72.44-1.42.69-2.12a.55.55,0,0,1,.25.1l1.09.65c.48.28,1,.54,1.49.78a.6.6,0,0,1,.27.23,1.3,1.3,0,0,0,.1.15l-.21.17-2.16,1.46Z"/><path class="cls-20" d="M45,39.42a.21.21,0,0,1-.1-.14,1.09,1.09,0,0,1,0-.18V36.7a.63.63,0,0,1,.09-.38c.52-.33,1-.67,1.52-1s.83-.56,1.24-.84.89-.59,1.33-.89l.08-.1s0,0,0,0a1.1,1.1,0,0,0-.53-.23L48,33.11H47a1.15,1.15,0,0,1-.67-.25.43.43,0,0,1-.19-.35.88.88,0,0,1,.26-.7A3.25,3.25,0,0,1,48,30.92a1.92,1.92,0,0,1,.67-.11.57.57,0,0,0,.18,0,.56.56,0,0,1,.36,0l.18,0a1.11,1.11,0,0,1,.54.22.37.37,0,0,1,.12.13.78.78,0,0,1,.11.2,1.42,1.42,0,0,0,.84.79.27.27,0,0,0,.26,0l1.59-1.07Q54,30.3,55.11,29.5a.5.5,0,0,0,.21-.22c.08,0,.15,0,.15.13a6.59,6.59,0,0,1,0,.77c0,.49,0,1,0,1.46,0,.18,0,.37,0,.55a2,2,0,0,1,0,.23l-.34.24-3.59,2.42-.12.08c-.27.18-.29.2-.62.05a1.17,1.17,0,0,1-.6-.6,1.24,1.24,0,0,1-.1-.2.78.78,0,0,0-.66-.43s-.09.05-.09.09v.27c0,.58,0,1.16,0,1.73,0,.15,0,.31,0,.44a.69.69,0,0,1-.29.25L46.56,38.4l-1.32.89A1.71,1.71,0,0,1,45,39.42Z"/><path class="cls-21" d="M32.43,16.94a2.67,2.67,0,0,1,.41-.22L33,17a2.2,2.2,0,0,0,1.45,1.09,4.13,4.13,0,0,0,.49.07c.27,0,.37,0,.47-.26a1.8,1.8,0,0,0,.08-.21,2.08,2.08,0,0,0,0-1c0-.23-.07-.45-.11-.67h.36a.07.07,0,0,0,.07,0h0c.19.39.4.78.59,1.18a5.34,5.34,0,0,0,.7,1.17c.07.09.13.2.2.3l.12.14.15.32a3.85,3.85,0,0,1,.27.63,1.12,1.12,0,0,1-.06.88c-.09.19-.2.37-.31.56a1.37,1.37,0,0,0-.19.36c-.05.23-.11.47-.16.7s-.11.29-.15.43a12.37,12.37,0,0,1-.67,1.75,1.68,1.68,0,0,1-.63.34,3.41,3.41,0,0,1-.95.1c-.31,0-.61,0-.91-.08a13.24,13.24,0,0,1-1.42-.3,2.36,2.36,0,0,0-.45-.08.84.84,0,0,1-.55-.52l-.12-.29a6,6,0,0,1,.28-.81c.27-.75.53-1.49.74-2.25A1.76,1.76,0,0,1,32.6,20a1.3,1.3,0,0,0,.24-.86c0-.12,0-.24,0-.36a1.67,1.67,0,0,1,0-.31,3.84,3.84,0,0,0-.22-1.16C32.49,17.21,32.46,17.07,32.43,16.94Z"/><path class="cls-22" d="M69.78,49.19c0,.18-.08.36-.13.53a2.78,2.78,0,0,0-.06.91,1.32,1.32,0,0,0,.16.51c0,.08.09.16.13.24l-.12.81c0,.29-.07.57-.11.86-.08.55-.16,1.1-.23,1.66s-.14,1.11-.21,1.66c0,.06,0,.12,0,.18a.83.83,0,0,1-.29.5c-.16.14-.33.26-.5.39a1.61,1.61,0,0,0-.36.27l-.22.06-.46.21a10.93,10.93,0,0,1-1.37.44l-1.53.44-1.13.32a3.4,3.4,0,0,0-.34.12.82.82,0,0,0-.42.17,3.82,3.82,0,0,1-.77.48c-.1,0-.22,0-.29.12l-.32.06a3,3,0,0,1-1,0,.48.48,0,0,1-.26-.09.11.11,0,0,1,0-.12A.18.18,0,0,1,60,59.9a3.57,3.57,0,0,0,.93-.38,1.57,1.57,0,0,0,.7-.76l-.13-.13-.37-.28a.45.45,0,0,1-.11-.13.19.19,0,0,1,0-.13s0,0,.08,0l.13,0,.3.12a2.27,2.27,0,0,0,1,.23.8.8,0,0,0,.43-.1l1.84-1L67.13,56a.5.5,0,0,0,.25-.21c0-.05,0-.11,0-.17V53.5a2.45,2.45,0,0,0,0-.27,2.45,2.45,0,0,0,0-.27c0-.77,0-1.54,0-2.31,0-.12,0-.24,0-.36s.06-.51.11-.76a3,3,0,0,1,.38-1,1.28,1.28,0,0,1,.37-.4.29.29,0,0,1,.25-.08,1,1,0,0,1,1,.58,3,3,0,0,1,.17.37Z"/><path class="cls-14" d="M18.31,36.87a.32.32,0,0,1-.19-.19,2.87,2.87,0,0,0-.54-.84c-.1-.11-.2-.23-.31-.34a2.56,2.56,0,0,1-.6-1,1.16,1.16,0,0,0-.29-.46,2.17,2.17,0,0,1-.51-.75,1.06,1.06,0,0,1-.07-.66,1.89,1.89,0,0,1,.39-.82l.23-.28c.11-.15.21-.3.33-.44a2.44,2.44,0,0,0,.39-.56,1.3,1.3,0,0,1,.84-.71,1.66,1.66,0,0,1,.66-.14c.12,0,.24,0,.36,0l.27.06a1,1,0,0,0,.79-.07.44.44,0,0,1,.52.06,1.24,1.24,0,0,0,.74.29,1.79,1.79,0,0,1,.4.09,1.08,1.08,0,0,1,.29.13.51.51,0,0,1,.22.43.89.89,0,0,1-.21.63.53.53,0,0,1-.13.13.82.82,0,0,0-.33.62l0,.09a.79.79,0,0,1-.3.08.16.16,0,0,0-.16.14c-.05.19-.1.38-.14.57a.38.38,0,0,1-.15.22.5.5,0,0,0-.24.54c0,.18,0,.37,0,.55a1.08,1.08,0,0,1,0,.18s0,0-.07,0h0l-.12-.13a.5.5,0,0,0-.81.54,1.21,1.21,0,0,1,.05.18.51.51,0,0,1,0,.17,3.19,3.19,0,0,1-.23.92,1.39,1.39,0,0,1-.25.38.73.73,0,0,1-.47.25Z"/><path class="cls-22" d="M32.43,16.94c0,.13.06.27.1.4a3.84,3.84,0,0,1,.22,1.16,1.67,1.67,0,0,0,0,.31c0,.12,0,.24,0,.36a1.3,1.3,0,0,1-.24.86,1.76,1.76,0,0,0-.25.58c-.21.76-.47,1.5-.74,2.25a6,6,0,0,0-.28.81,2,2,0,0,0-.12.19,3.66,3.66,0,0,0-.18.46c-.11.34-.22.33.16.63.1.07.17.16.27.24a.59.59,0,0,0,.16.06.84.84,0,0,0,.05.17.81.81,0,0,0,.16.16l2.36,2.25.16.14h.47l.45,0s-.06.11-.11.14l-1,.64-.08,0a1.3,1.3,0,0,1-.1-.15.6.6,0,0,0-.27-.23c-.51-.24-1-.5-1.49-.78L31.17,27a.55.55,0,0,0-.25-.1.44.44,0,0,0-.2-.18c-.27-.19-.55-.39-.84-.56a.9.9,0,0,1-.43-.7,3.4,3.4,0,0,1,0-1.27,3.38,3.38,0,0,0,0-.55,3.07,3.07,0,0,1,.06-.68,1.23,1.23,0,0,0,0-.27,2.51,2.51,0,0,1,.07-.55s0-.09,0-.13a13,13,0,0,1,.17-1.4c.06-.33.08-.67.13-1a5.37,5.37,0,0,1,.15-.8,1.78,1.78,0,0,1,.65-.92,4,4,0,0,1,.34-.23Z"/><path class="cls-14" d="M75,20h-.18a.66.66,0,0,1-.42-.15.64.64,0,0,1-.24-.32,2,2,0,0,1-.1-.35c-.1-.46-.19-.92-.28-1.38a.27.27,0,0,1,0-.09l.52.14a1,1,0,0,1,.26.07.76.76,0,0,0,.49.07.9.9,0,0,1,.58.08,2.54,2.54,0,0,0,.38.16.55.55,0,0,0,.62-.15,2.16,2.16,0,0,0,.43-.75.57.57,0,0,0,0-.13,2.33,2.33,0,0,0-.25-1.06.91.91,0,0,0-.8-.52,4.86,4.86,0,0,0-.54,0H75a.8.8,0,0,1-.43-.13,1.2,1.2,0,0,1-.21-.17l-.13-.13s-.1,0-.11,0a1.65,1.65,0,0,0-.21,1H73.7A1.79,1.79,0,0,1,73.6,15a.27.27,0,0,0-.13-.2,1,1,0,0,1-.31-.59,3.36,3.36,0,0,1,0-1.14.83.83,0,0,1,.07-.18l.22.25a.66.66,0,0,0,.53.2c.07,0,.13,0,.13-.1a.78.78,0,0,1,.1-.39s.08-.09.11-.14a1.33,1.33,0,0,0,.64.35,4,4,0,0,0,.85.1,3.82,3.82,0,0,1,1.12.2,1.22,1.22,0,0,1,.17.07,1,1,0,0,1,.69.73l.21.08a1.21,1.21,0,0,1,.66.54,2.17,2.17,0,0,1,.19.41,3.45,3.45,0,0,1,.16.85,2.17,2.17,0,0,1-.09.76,6,6,0,0,1-.38,1,3,3,0,0,1-.78,1l-.58.52a.39.39,0,0,0-.19.12,2.68,2.68,0,0,1-1.15.49A8.33,8.33,0,0,1,75,20Zm2.91-2.27s0-.09,0-.15a.42.42,0,0,0-.25-.3.28.28,0,0,0-.18,0,.4.4,0,0,0-.28.21.83.83,0,0,0-.09.49.77.77,0,0,0,.07.26.32.32,0,0,0,.42.14.51.51,0,0,0,.21-.17A.72.72,0,0,0,77.93,17.77Zm-3.46.47s0,.07,0,.09a.86.86,0,0,0,.18.2.45.45,0,0,0,.29.1.62.62,0,0,0,.41-.18.08.08,0,0,0,0,0,.13.13,0,0,0,0-.07l-.13,0Z"/><path class="cls-22" d="M80.89,35.36a.36.36,0,0,0-.15.08,3.56,3.56,0,0,1-.56.6,2.89,2.89,0,0,0-.38.4c-.39.5-.78,1-1.19,1.5a2.33,2.33,0,0,1-1.24.8,1.07,1.07,0,0,1-.8-.1l-.21-.09a1.42,1.42,0,0,0,0-.22.18.18,0,0,1,.06-.17,3.92,3.92,0,0,1,.32-.25l.75-.59.14-.13c-.07-.14-.22-.16-.32-.25v0c0-.12,0-.16.11-.15l.35,0,.48.1a.14.14,0,0,0,.17-.1c0-.07,0-.15,0-.22l.22-.45c.56-1.31,1.19-2.59,1.83-3.86.1-.19.18-.38.27-.58l0,0a3.32,3.32,0,0,0,.32-.62c-.16-.34-.32-.66-.48-1a.18.18,0,0,0-.05-.07l-.36-.88c0-.14-.11-.28-.16-.43s0-.13.08-.16l.18-.05a3.92,3.92,0,0,0,1.67-1,1.34,1.34,0,0,1,.31-.27.35.35,0,0,1,.09.16c.09.44.19.89.28,1.33l.21,1.12c.06.32.11.63.16.94l.06.27a.84.84,0,0,1-.08.62,8.87,8.87,0,0,1-.55.94l-1.35,2a.3.3,0,0,0-.08.17A1.9,1.9,0,0,1,80.89,35.36Z"/><path class="cls-23" d="M62.45,46.08c0-1.06,0-2.12,0-3.18a1.18,1.18,0,0,0,.27-.06l.92-.4.46-.19,1.38-.59c.45-.2.91-.35,1.35-.55s1-.39,1.47-.63a3.23,3.23,0,0,1,.47-.15,1.26,1.26,0,0,0,0,1,.32.32,0,0,0-.08.2c0,.17,0,.33,0,.5a1.08,1.08,0,0,1-.06.4,2,2,0,0,0-.12,1c0,.06,0,.12,0,.18l-5.34,2.24-.58.24A.11.11,0,0,1,62.45,46.08Z"/><path class="cls-12" d="M33,15s-.09,0-.12,0a3.42,3.42,0,0,1-1.11-1.25,2.62,2.62,0,0,1-.32-1.31v-.23s0,0,0-.05-.19-.13-.28-.21a1.35,1.35,0,0,1-.49-.8,1.29,1.29,0,0,1,.73-1.39,1.24,1.24,0,0,1,1.14,0,3.28,3.28,0,0,1,.31.2.41.41,0,0,0,.22,0,4.77,4.77,0,0,1,1.76-.15,2.1,2.1,0,0,1,.7.21,1.4,1.4,0,0,1,.75.93,1.64,1.64,0,0,1,.09.58l0,.5c-.06-.14-.12-.28-.19-.41a.72.72,0,0,0-.52-.41l-.23,0a2.49,2.49,0,0,0-1.14.24.83.83,0,0,0-.4.36,2.32,2.32,0,0,0-.32.84,3.59,3.59,0,0,0-.09.86,1.13,1.13,0,0,1,0,.18h-.08c-.08-.06,0-.17-.08-.25a.43.43,0,0,0-.36-.3.41.41,0,0,0-.43.2.56.56,0,0,0-.05.52.55.55,0,0,0,.38.36.13.13,0,0,0,.1.1l.1.09Z"/><path class="cls-24" d="M68.64,26.41l.19.26a4.39,4.39,0,0,0,1,1.11,1,1,0,0,1,.08.11,3.07,3.07,0,0,0-.25.26,2.41,2.41,0,0,0-.24.21,1.17,1.17,0,0,1-.5.38l-.53.25c-.86.35-1.72.67-2.6.94a1.33,1.33,0,0,0-.21.09.37.37,0,0,0-.31,0l-.47.19-.63.23H64a.12.12,0,0,0-.12.09h0a2.44,2.44,0,0,0-.76.1.48.48,0,0,0-.16.08l-.27.18a2.62,2.62,0,0,1-1.18.45,1.25,1.25,0,0,1-1-.32l-.2-.18,0-.14a.28.28,0,0,1,.21-.26l.43-.16.81-.31c.09,0,.11-.11.06-.18l-.09-.1a.83.83,0,0,1-.08-.12.19.19,0,0,1,0-.08.11.11,0,0,1,0-.08s.06,0,.08,0a5.67,5.67,0,0,1,.84.45,1.67,1.67,0,0,0,.39.23.62.62,0,0,0,.29-.12c.65-.33,1.3-.67,1.94-1l2.5-1.41a1,1,0,0,0,.39-.37c.1-.17.22-.33.33-.49S68.57,26.5,68.64,26.41Z"/><path class="cls-24" d="M37.18,22.32c0-.23.11-.47.16-.7a1.37,1.37,0,0,1,.19-.36c.11-.19.22-.37.31-.56a1.12,1.12,0,0,0,.06-.88,3.85,3.85,0,0,0-.27-.63l-.15-.32a2.62,2.62,0,0,0,0-.28c0-.19,0-.39,0-.58a3.52,3.52,0,0,0-.09-.58,1.74,1.74,0,0,0-.18-.6.55.55,0,0,1-.09-.3,1.3,1.3,0,0,1,.54.47,3.75,3.75,0,0,1,.6,1.22c.2.72.39,1.44.59,2.16.27,1,.55,2,.83,3,0,.1.06.2.08.31a.48.48,0,0,0,.15.22l.25.2.44.34-.14.12-1.34.9-.16.08a2.62,2.62,0,0,1-.81-.78.41.41,0,0,1-.11-.25,1.61,1.61,0,0,0-.17-.51Z"/><path class="cls-25" d="M15.66,87.63a1.85,1.85,0,0,1-1.89,1.87,1.89,1.89,0,1,1,1.89-1.87Z"/><path class="cls-25" d="M70.67,8.44a1.88,1.88,0,0,1,3.76,0,1.91,1.91,0,0,1-1.9,1.88A1.85,1.85,0,0,1,70.67,8.44Z"/><path class="cls-22" d="M32.82,14.17a.55.55,0,0,1-.38-.36.56.56,0,0,1,.05-.52.41.41,0,0,1,.43-.2.43.43,0,0,1,.36.3c0,.08,0,.19.08.25h.08a1.13,1.13,0,0,0,0-.18,3.59,3.59,0,0,1,.09-.86,2.32,2.32,0,0,1,.32-.84.83.83,0,0,1,.4-.36,2.49,2.49,0,0,1,1.14-.24l.23,0a.72.72,0,0,1,.52.41c.07.13.13.27.19.41s0,.18-.06.27l-.12,0a.83.83,0,0,0-.54,0,.2.2,0,0,0-.08,0s0,.06,0,.08,0,.1.07.1l.68,0v.36a1.61,1.61,0,0,0,.06.49,1,1,0,0,1,0,.58c-.13.45-.27.89-.41,1.34a1.8,1.8,0,0,1-.08.21.3.3,0,0,1-.17.14,2.65,2.65,0,0,1-.49.09L35,15.55a5.43,5.43,0,0,1-.61-.17,2.11,2.11,0,0,1-.82-.56c-.11-.13-.24-.24-.36-.36a1.21,1.21,0,0,0-.14-.1l-.1-.09.09,0c.06,0,.11-.08.09-.13A.26.26,0,0,0,33,14a.14.14,0,0,0-.17,0A.56.56,0,0,0,32.82,14.17Zm2.66,0v0l-.53.13a.06.06,0,0,0,0,.06.08.08,0,0,0,0,.08.67.67,0,0,0,.33.15h.13a.63.63,0,0,0,.38-.23.25.25,0,0,0,.06-.17s-.06-.05-.16,0Zm-1.19-1.5a1.26,1.26,0,0,1,.41-.09l.18-.05a.09.09,0,0,0,0-.11.11.11,0,0,0-.06-.07.73.73,0,0,0-.67.18.39.39,0,0,0-.06.11.06.06,0,0,0,0,0l0,0Zm1.59.2h0a.17.17,0,0,0,0-.29.12.12,0,0,0-.08,0,.2.2,0,0,0,0,.27Zm-1.22,0a.15.15,0,0,1,0-.06s-.08-.12-.12-.11a.27.27,0,0,0-.1.08.16.16,0,0,0,.07.22.1.1,0,0,0,.12,0A.76.76,0,0,0,34.66,12.93Z"/><path class="cls-22" d="M18.31,36.87l.36,0a.73.73,0,0,0,.47-.25,1.39,1.39,0,0,0,.25-.38,3.19,3.19,0,0,0,.23-.92.51.51,0,0,0,0-.17,1.21,1.21,0,0,0-.05-.18.5.5,0,0,1,.81-.54l.12.13h0s.07,0,.07,0a1.08,1.08,0,0,0,0-.18c0-.18,0-.37,0-.55a.5.5,0,0,1,.24-.54.38.38,0,0,0,.15-.22c0-.19.09-.38.14-.57a.16.16,0,0,1,.16-.14.79.79,0,0,0,.3-.08,1.35,1.35,0,0,1,.14.71,2.84,2.84,0,0,0,0,.41,2.22,2.22,0,0,0,.05.45,2.51,2.51,0,0,1,0,1.09c0,.3-.09.6-.15.9s-.08.38-.12.58a.5.5,0,0,1-.37.37l-.27.05a.17.17,0,0,0-.15.19c0,.32,0,.64.05,1a2.08,2.08,0,0,1-.86,0,.3.3,0,0,0-.13,0,4.4,4.4,0,0,1-1.25-.19,1.52,1.52,0,0,1-.62-.24l.31,0a.15.15,0,0,0,.12-.12Z"/><path class="cls-22" d="M73.86,16.19a1.65,1.65,0,0,1,.21-1s.09,0,.11,0l.13.13a1.2,1.2,0,0,0,.21.17.8.8,0,0,0,.43.13h.55a4.86,4.86,0,0,1,.54,0,.91.91,0,0,1,.8.52,2.33,2.33,0,0,1,.25,1.06.57.57,0,0,1,0,.13,2.16,2.16,0,0,1-.43.75.55.55,0,0,1-.62.15,2.54,2.54,0,0,1-.38-.16.9.9,0,0,0-.58-.08.76.76,0,0,1-.49-.07,1,1,0,0,0-.26-.07l-.52-.14a2.77,2.77,0,0,1,0-.76,1.15,1.15,0,0,0,.06-.17c0-.07,0-.15,0-.22s0-.13.15-.12a.82.82,0,0,1,.22,0s0,0,.07.05l-.14.12a.21.21,0,0,0,0,.25.15.15,0,0,0,.1.06.16.16,0,0,0,.11-.07.25.25,0,0,0,0-.17.66.66,0,0,0-.09-.19,1.09,1.09,0,0,0,.17-.05.17.17,0,0,0,.07-.1.15.15,0,0,0-.06-.11.73.73,0,0,0-.25-.08A2.67,2.67,0,0,0,73.86,16.19Zm1.67.19-.09,0a.07.07,0,0,0,0,.06.1.1,0,0,0,0,.09.13.13,0,0,0,.07.05l.26,0,.4.08s.1,0,.1,0a.11.11,0,0,0,0-.12.26.26,0,0,0-.11-.07A1,1,0,0,0,75.53,16.38Zm.3.63a.23.23,0,0,0-.06-.22.13.13,0,0,0-.08,0,.18.18,0,0,0-.13.16.16.16,0,0,0,.08.19.11.11,0,0,0,.13,0S75.81,17,75.83,17Z"/><path class="cls-5" d="M42.72,7.13a1.37,1.37,0,0,1-1.37-1.32,1.36,1.36,0,1,1,2.72,0A1.36,1.36,0,0,1,42.72,7.13Z"/><path class="cls-5" d="M85,82.22a1.27,1.27,0,0,1-1-.37,1.36,1.36,0,0,1,0-1.93,1.3,1.3,0,0,1,.9-.38A1.34,1.34,0,0,1,86,80a1.32,1.32,0,0,1,0,1.72,1.26,1.26,0,0,1-.59.42A2.22,2.22,0,0,1,85,82.22Z"/><path class="cls-26" d="M12.47,21.4a1.28,1.28,0,0,1,.62.19,1.44,1.44,0,0,1,.71,1.07,1.13,1.13,0,0,1-.12.62,1.34,1.34,0,0,1-.76.75,1.28,1.28,0,0,1-1.42-.31,1.41,1.41,0,0,1-.41-.8.37.37,0,0,1,0-.18A1.42,1.42,0,0,1,12.47,21.4Z"/><path class="cls-27" d="M6.78,49.83a1.22,1.22,0,0,1,1.11.55,1.1,1.1,0,0,1,.18,1.08c0,.09-.07.19-.11.29a1.19,1.19,0,0,1-.93.72,1.28,1.28,0,0,1-1-.2,1.09,1.09,0,0,1-.45-.5c0-.14-.11-.28-.15-.42a.57.57,0,0,1,0-.18,1.29,1.29,0,0,1,.32-.88A1.58,1.58,0,0,1,6.06,50,1.1,1.1,0,0,1,6.78,49.83Z"/><path class="cls-26" d="M90.11,34.21h-.19a1,1,0,0,1-.58-.23l-.2-.19a1.23,1.23,0,0,1-.36-.86,1.34,1.34,0,0,1,1.32-1.39,1.4,1.4,0,0,1,1.23.73.34.34,0,0,1,.06.12,1.36,1.36,0,0,1-.83,1.78,2.22,2.22,0,0,1-.45,0Z"/><path class="cls-3" d="M54.13,19.93a1.18,1.18,0,0,1-.78,1.21l-.39.13a.2.2,0,0,1-.13,0,1.44,1.44,0,0,1-1.31-1,1,1,0,0,1,0-.59,1.36,1.36,0,0,1,1.07-1.06,1.3,1.3,0,0,1,1.07.27,3.19,3.19,0,0,1,.26.26.82.82,0,0,1,.22.58Z"/><path class="cls-27" d="M91.21,58.7h.23a.79.79,0,0,1,.54.22l.26.25a1.07,1.07,0,0,1,.3.74V60a1,1,0,0,1-.25.77,1.25,1.25,0,0,1-.65.47,1.36,1.36,0,0,1-1.13-.12,1.1,1.1,0,0,1-.4-.37,1.12,1.12,0,0,1-.23-.73,1.08,1.08,0,0,0,0-.18,1.14,1.14,0,0,1,.41-.88,1.07,1.07,0,0,1,.74-.3Z"/><path class="cls-22" d="M35.42,16c0,.22.08.44.11.67a2.08,2.08,0,0,1,0,1,1.8,1.8,0,0,1-.08.21c-.1.23-.2.29-.47.26a4.13,4.13,0,0,1-.49-.07A2.2,2.2,0,0,1,33,17l-.16-.27a1.16,1.16,0,0,0,.18-.51c0-.28,0-.56.08-.85a.49.49,0,0,1,.17.06.8.8,0,0,1,.17.15,1,1,0,0,0,.58.33,2.45,2.45,0,0,0,.85.1h.36Z"/><path class="cls-12" d="M59.83,32.38a2.83,2.83,0,0,0,1.46.46A4.21,4.21,0,0,1,62,33a.62.62,0,0,1,.47.39.21.21,0,0,1,0,.13.76.76,0,0,1-.18.41,2.4,2.4,0,0,1-.64.5,5.5,5.5,0,0,1-1,.4,2.44,2.44,0,0,1-.89.14c0-.78,0-1.55,0-2.33A1.92,1.92,0,0,1,59.83,32.38Z"/><path class="cls-8" d="M43.14,45.18a.77.77,0,0,1-.33-.15c-.52-.37-1.07-.7-1.58-1.08-.29-.22-.61-.4-.91-.61L40,43.13a.09.09,0,0,1,0-.15,2.24,2.24,0,0,1,.55-.19,3.82,3.82,0,0,1,1-.08H42a1.49,1.49,0,0,0,1-.33.26.26,0,0,1,.12-.05c0,.1,0,.21,0,.31,0,.77,0,1.54,0,2.31C43.15,45,43.14,45.1,43.14,45.18Z"/><path class="cls-22" d="M75,20a8.33,8.33,0,0,0,.86-.08A2.68,2.68,0,0,0,77,19.47a.39.39,0,0,1,.19-.12.91.91,0,0,1,0,.4,3.17,3.17,0,0,0,.12.81,1.73,1.73,0,0,0,.16.37c0,.09-.05.18-.07.26a.82.82,0,0,1-.54.57,1.37,1.37,0,0,1-.49.09,2.79,2.79,0,0,1-.81-.08,1.27,1.27,0,0,1-.61-.38.55.55,0,0,1-.14-.37,1.33,1.33,0,0,1,.09-.44C75,20.4,75,20.22,75,20Z"/><path class="cls-28" d="M62.1,50.66a1.71,1.71,0,0,1-.67-.1A4.43,4.43,0,0,1,60,49.92a1.46,1.46,0,0,1-.36-.34.76.76,0,0,1-.15-.28.3.3,0,0,1,0-.3.81.81,0,0,1,.4-.28c.25-.08.51-.1.76-.16a2.73,2.73,0,0,0,1.22-.31,1.8,1.8,0,0,1,.21-.08.7.7,0,0,1,0,.14Z"/><path class="cls-24" d="M14.26,45a7.35,7.35,0,0,0,1.59.56,1.28,1.28,0,0,1,.15.64v1.59c0,.1,0,.21-.05.31a2.51,2.51,0,0,1,0,.27,3,3,0,0,1-1.14-.62,1.41,1.41,0,0,1-.49-1.08C14.27,46.11,14.27,45.55,14.26,45Z"/><path class="cls-28" d="M47.2,49.19a.51.51,0,0,1,.21.1,1.4,1.4,0,0,0,.89.27,5,5,0,0,0,.55,0,4.92,4.92,0,0,1,.94.1l.13,0,.32.16a.25.25,0,0,1-.13.19l-1.49,1-1.06.7a.65.65,0,0,1-.37.16,1.62,1.62,0,0,1,0-.22c0-.77,0-1.54,0-2.3C47.19,49.34,47.2,49.27,47.2,49.19Z"/><path class="cls-29" d="M90.11,43.71H87.28c-.23,0-.29-.07-.3-.3,0,0,0-.06,0-.09a.15.15,0,0,1,.13-.16h5.8c.34,0,.38.07.31.47,0,0,0,.05-.06.06a.15.15,0,0,1-.09,0h-3Z"/><path class="cls-29" d="M87.66,71h-2l-.32,0a.14.14,0,0,1-.09-.09.9.9,0,0,1,0-.4.15.15,0,0,1,.13-.11h4.11c.11,0,.22,0,.32,0,.31,0,.37.06.36.39a.61.61,0,0,1,0,.13A.14.14,0,0,1,90,71l-.27,0Z"/><path class="cls-29" d="M43.39,86.42h1.73l.28,0a.13.13,0,0,1,.11.12,1.09,1.09,0,0,1,0,.18c0,.25,0,.29-.29.29-1.23,0-2.46,0-3.7,0a.47.47,0,0,1-.17,0,.16.16,0,0,1-.09-.09.72.72,0,0,1,0-.41s0-.06.06-.06a.83.83,0,0,1,.22,0Z"/><path class="cls-29" d="M21.68,20a1,1,0,0,1-.57,1,1,1,0,0,1-1.35-.46,1.09,1.09,0,0,1,.49-1.4,1.06,1.06,0,0,1,1.39.59C21.67,19.84,21.67,20,21.68,20Zm-.57.08a.4.4,0,0,0-.43-.41.42.42,0,1,0,0,.84A.4.4,0,0,0,21.11,20.06Z"/><path class="cls-29" d="M69.94,23.93a1.65,1.65,0,0,1-.29.45.28.28,0,0,0-.22,0,1,1,0,0,1-.57.11.8.8,0,0,1-.43-.13,1.17,1.17,0,0,1-.35-.35,1,1,0,0,1,.07-1.15c.06-.07.13-.13.19-.19a1,1,0,0,1,1.15-.05,2,2,0,0,1,.32.33.75.75,0,0,1,.15.46C70,23.6,70,23.77,69.94,23.93Zm-1,0,.15,0a.42.42,0,0,0,.06-.78.36.36,0,0,0-.42,0,.43.43,0,0,0,.05.79A.53.53,0,0,0,69,24Z"/><path class="cls-22" d="M68.5,43.62c0-.06,0-.12,0-.18a2,2,0,0,1,.12-1,1.08,1.08,0,0,0,.06-.4c0-.17,0-.33,0-.5a.32.32,0,0,1,.08-.2l.16.16a.91.91,0,0,1,.2.54c0,.4.09.81.14,1.22,0,.1,0,.21,0,.31l.09,1.63s0,.06,0,.09a1.26,1.26,0,0,1-.27,0,.55.55,0,0,1-.45-.5,4.51,4.51,0,0,1-.07-.53A2.26,2.26,0,0,0,68.5,43.62Z"/><path class="cls-29" d="M5.35,61.92H3.66l-.27,0a.18.18,0,0,1-.08-.09.55.55,0,0,1,0-.36.17.17,0,0,1,.06-.06.15.15,0,0,1,.09,0H7.37a.14.14,0,0,1,.12.12c0,.11,0,.21,0,.32s-.05.08-.09.09l-.27,0Z"/><path class="cls-22" d="M37.13,16.53a.55.55,0,0,0,.09.3,1.74,1.74,0,0,1,.18.6,3.52,3.52,0,0,1,.09.58c0,.19,0,.39,0,.58a2.62,2.62,0,0,1,0,.28l-.12-.14c-.07-.1-.13-.21-.2-.3a5.34,5.34,0,0,1-.7-1.17c-.19-.4-.4-.79-.59-1.18A1.78,1.78,0,0,1,37.13,16.53Z"/><path class="cls-29" d="M92.05,71h-1a.57.57,0,0,1-.18,0s-.06,0-.06-.06a.68.68,0,0,1,0-.4s.08-.12.12-.12l.14,0h2a.3.3,0,0,1,.13,0s.09,0,.09.09a2.45,2.45,0,0,1,0,.27c0,.19-.06.25-.25.25Z"/><path class="cls-30" d="M69.78,49.19,69.69,49a3,3,0,0,0-.17-.37,1,1,0,0,0-1-.58.33.33,0,0,1,.14-.17l.62-.35.66-.37s.08.06.09.1a1.53,1.53,0,0,1,.08,1.15c-.08.21-.14.43-.22.65C69.84,49.13,69.8,49.16,69.78,49.19Z"/><path class="cls-24" d="M35.23,16h-.36a2.45,2.45,0,0,1-.85-.1,1,1,0,0,1-.58-.33.8.8,0,0,0-.17-.15.49.49,0,0,0-.17-.06A.89.89,0,0,0,33,15c0-.22,0-.43,0-.64a1.21,1.21,0,0,1,.14.1c.12.12.25.23.36.36a2.11,2.11,0,0,0,.82.56,5.43,5.43,0,0,0,.61.17l.25.09Z"/><path class="cls-29" d="M82.09,13.88h-.73a.15.15,0,0,1-.15-.15v-.32c0-.05.07-.11.12-.12h1.46l.13,0a.11.11,0,0,1,.06.07.28.28,0,0,1,0,.13c0,.35,0,.39-.37.39h-.55Z"/><path class="cls-29" d="M9.23,61.36h.82c.16,0,.19.09.19.21a.81.81,0,0,1,0,.22c0,.06-.07.11-.12.12H8.37l-.13,0a.11.11,0,0,1-.07-.06.55.55,0,0,1,0-.4s0,0,.06-.06l.18,0Z"/><path class="cls-29" d="M6.53,31.47s.08,0,.1,0,.16.14.24.21.07.15,0,.2l-.42.42a.15.15,0,0,1-.17,0l-.11-.09-.13-.12a.15.15,0,0,0-.17,0l-.24.21a.15.15,0,0,1-.17,0A1.92,1.92,0,0,1,5,31.88a.15.15,0,0,1,0-.13.78.78,0,0,1,.3-.27s.06,0,.08,0a.83.83,0,0,1,.18.13c.43.43.32.38.79,0Z"/><path class="cls-29" d="M51.32,68.56l0,.08c-.1.1-.19.2-.29.29s-.23.27-.47,0l-.07-.06a.15.15,0,0,0-.17,0l-.24.21a.14.14,0,0,1-.17,0l-.45-.45a.11.11,0,0,1,0-.13,2,2,0,0,1,.25-.26.14.14,0,0,1,.2,0l.4.37a.14.14,0,0,0,.17,0l.4-.37a.15.15,0,0,1,.21,0,2.39,2.39,0,0,1,.23.22S51.31,68.53,51.32,68.56Z"/><path class="cls-29" d="M5,33.07a1.64,1.64,0,0,1,.56-.6.39.39,0,0,1,.11.06c.27.26.29.28.55,0l0,0,0,0a.15.15,0,0,1,.17,0l.42.42a.13.13,0,0,1,0,.2l-.23.22a.17.17,0,0,1-.17,0l-.14-.12c-.4-.39-.35-.4-.73,0l-.1.09a.17.17,0,0,1-.28,0Z"/><path class="cls-29" d="M50.33,69.62l-.47.45a.14.14,0,0,1-.21,0l-.22-.23a.11.11,0,0,1,0-.13l.44-.45a.15.15,0,0,1,.17,0l.07.06.13.12c.1.08.16.08.25,0l.2-.18a.15.15,0,0,1,.17,0,2,2,0,0,1,.41.42.2.2,0,0,1,0,.21,1,1,0,0,1-.08.11c-.17.17-.24.17-.42,0l-.36-.35Z"/><path class="cls-29" d="M79.86,13.88h-.59a.15.15,0,0,1-.14-.15c0-.1,0-.21,0-.31s.08-.12.12-.12l.09,0h1.14a.2.2,0,0,1,.22.23,1.08,1.08,0,0,1,0,.18.19.19,0,0,1-.21.19Z"/><path class="cls-29" d="M56.4,12l-.06.11-.35.36a.17.17,0,0,0,0,.21l.32.33c.13.14.13.19,0,.34l-.1.09c-.1.1-.17.1-.27,0l-.35-.36c-.06-.06-.06-.12,0-.2l.06-.06c.21-.21.21-.28,0-.49a.39.39,0,0,1-.08-.1.09.09,0,0,1,0-.13,2.29,2.29,0,0,1,.21-.23c.31-.32.31-.32.62,0C56.4,11.93,56.39,12,56.4,12Z"/><path class="cls-29" d="M54.87,11.64h0a2.43,2.43,0,0,1,.48.48.17.17,0,0,1,0,.12c-.06.09-.14.16-.21.25a.14.14,0,0,0,0,.16l.2.24a.14.14,0,0,1,0,.17l-.41.42a.15.15,0,0,1-.17,0l-.23-.22a.15.15,0,0,1,0-.21l0,0c.13-.16.33-.27.41-.47l-.4-.43a.76.76,0,0,1-.08-.11.09.09,0,0,1,0-.09.93.93,0,0,1,.28-.28Z"/><path class="cls-29" d="M40.61,86.5a1.49,1.49,0,0,1,0,.47H38.53c0-.15,0-.29,0-.44h2.09Z"/><path class="cls-29" d="M85,13.35v.46H83.49a1.24,1.24,0,0,1,0-.47Z"/><path class="cls-2" d="M51.3,58.26a1.3,1.3,0,0,1,.42.14l.79.33s.05,0,.07.06a.74.74,0,0,0-.29.12c-.07.07-.16.05-.25,0a1.55,1.55,0,0,1-.68-.5A.49.49,0,0,1,51.3,58.26Z"/><path class="cls-30" d="M74.33,16.54s0-.05-.06-.05a.82.82,0,0,0-.22,0q-.15,0-.15.12c0,.07,0,.15,0,.22a1.15,1.15,0,0,1-.06.17,5.19,5.19,0,0,1-.12-.79h.16a2.67,2.67,0,0,1,.4,0,.73.73,0,0,1,.25.08.15.15,0,0,1,.06.11.17.17,0,0,1-.07.1,1.09,1.09,0,0,1-.17.05Z"/><path class="cls-18" d="M36.28,12.43l-.68,0s-.06-.06-.07-.1,0-.06,0-.08a.2.2,0,0,1,.08,0,.83.83,0,0,1,.54,0l.12,0Z"/><path class="cls-2" d="M40.61,86.5H38.52s.06-.07.09-.08a.32.32,0,0,1,.14,0h1.62A.25.25,0,0,1,40.61,86.5Z"/><path class="cls-2" d="M38.53,87H40.6l-.07,0-.09,0H38.67A.14.14,0,0,1,38.53,87Z"/><path class="cls-2" d="M85,13.35H83.48s.07-.07.11-.07h1.25S84.91,13.33,85,13.35Z"/><path class="cls-2" d="M83.49,13.82H85a.34.34,0,0,1-.11.07.3.3,0,0,1-.13,0h-1A.24.24,0,0,1,83.49,13.82Z"/><path class="cls-2" d="M51.12,58.17a.12.12,0,0,1,.16.08A.15.15,0,0,1,51.12,58.17Z"/><path class="cls-2" d="M27.41,68.69a.08.08,0,0,1-.06-.11A.09.09,0,0,1,27.41,68.69Z"/><polygon class="cls-22" points="82.33 27.15 82.33 27.11 82.37 27.09 82.36 27.13 82.33 27.15"/><path class="cls-22" d="M35.85,16.07a.07.07,0,0,1-.07,0A.08.08,0,0,1,35.85,16.07Z"/><path class="cls-1" d="M19,73.33c0-.14,0-.28,0-.41.05-.61.11-1.21.16-1.82s.1-1,.14-1.55.07-.79.1-1.18c.05-.55.08-1.1.13-1.64s.09-1.15.14-1.73c0-.11,0-.21,0-.32a6,6,0,0,1,.11-1c.13-.72.21-1.45.3-2.17.09-.9.17-1.79.24-2.69l.1,0c.85,1.65,1.74,3.28,2.7,4.87a.89.89,0,0,1,.15.42,13.15,13.15,0,0,0,.76,4.07l.45,1.34c0,.1.05.2.07.3-.38.15-.76.3-1.14.47l-1.35.56-.79.34c-.26.12-.35.13-.05.35.46.33.93.63,1.4,1l.41.28s.06.1,0,.12a.13.13,0,0,1-.07,0H21.88a1.41,1.41,0,0,0-.54.06.34.34,0,0,1-.14,0,5.09,5.09,0,0,0-.95.09l-.54.08a3.41,3.41,0,0,0-.54.1Z"/><path class="cls-14" d="M27.56,77.12c.2-.06.42,0,.61-.1a1.2,1.2,0,0,0,.8-.53c.07-.08.11-.18.2-.24l.9-.11c.27,0,.54-.09.81-.12a1.23,1.23,0,0,1,.63.09.37.37,0,0,1,.12.07.23.23,0,0,1,.1.19.41.41,0,0,1-.07.26.86.86,0,0,1-.29.28,4.39,4.39,0,0,1-.47.27,7.47,7.47,0,0,1-1,.35,1.81,1.81,0,0,1-.4,0c-.15,0-.27,0-.34.15l0,0a1.44,1.44,0,0,1-1.39.11.24.24,0,0,1-.16-.24Z"/><path class="cls-14" d="M16.74,76.45a.67.67,0,0,1,.31.07,1.84,1.84,0,0,0,.9.11.83.83,0,0,0,.65-.37.43.43,0,0,0,.06-.17.33.33,0,0,1,.09-.2l.95-.13a2.88,2.88,0,0,1,.59,0,.85.85,0,0,1,.35.08.32.32,0,0,1,.17.51,1.21,1.21,0,0,1-.21.24,3.78,3.78,0,0,1-.43.26,5.67,5.67,0,0,1-1.07.38,1.64,1.64,0,0,1-.54.08.27.27,0,0,0-.3.14.13.13,0,0,1-.07,0,4.34,4.34,0,0,1-.69.24h0a1.34,1.34,0,0,1-.73-.23.27.27,0,0,1-.06-.12.57.57,0,0,1,0-.13C16.69,77,16.72,76.71,16.74,76.45Z"/><path class="cls-30" d="M69.58,84.39l.09-.09s0,0,0,.08l.18,1a.25.25,0,0,1-.11.23.84.84,0,0,1-.37.17,2.75,2.75,0,0,1-1,0,14.33,14.33,0,0,1-3.1-.69,2,2,0,0,1-.69-.35.7.7,0,0,1-.24-.32.25.25,0,0,1,.14-.34A2,2,0,0,1,65.68,84l.45.07a2.41,2.41,0,0,0-.24.21.71.71,0,0,0-.1.14s0,.11,0,.12a.45.45,0,0,0,.12.06,14.41,14.41,0,0,0,1.6.26,7.75,7.75,0,0,0,1.18,0,1.53,1.53,0,0,0,.52-.13A.55.55,0,0,0,69.58,84.39Z"/><path class="cls-30" d="M74.42,83.31c0-.06.07-.08.12-.1a2.67,2.67,0,0,1,.15.62c0,.12,0,.24.06.36a.29.29,0,0,1-.11.28,1,1,0,0,1-.55.2,5.42,5.42,0,0,1-1.14,0A14.66,14.66,0,0,1,70,83.93l-.26-.09a.79.79,0,0,1,0-.22,3.76,3.76,0,0,1,0-.75,3.65,3.65,0,0,1,1,0s0,0,.09,0l.19.05-.25.2a.46.46,0,0,0-.09.15.07.07,0,0,0,0,.08.58.58,0,0,0,.29.12c.56.11,1.13.19,1.71.25a7.42,7.42,0,0,0,.82,0,1.54,1.54,0,0,0,.69-.18A.53.53,0,0,0,74.42,83.31Z"/><path class="cls-24" d="M69.58,84.39a.55.55,0,0,1-.33.35,1.53,1.53,0,0,1-.52.13,7.75,7.75,0,0,1-1.18,0,14.41,14.41,0,0,1-1.6-.26.45.45,0,0,1-.12-.06s-.06-.09,0-.12a.71.71,0,0,1,.1-.14,2.41,2.41,0,0,1,.24-.21,5,5,0,0,0,.54.07c.16,0,.32,0,.49.06a8.78,8.78,0,0,0,1,.13A1.49,1.49,0,0,0,69.58,84.39Z"/><path class="cls-1" d="M67.47,80.75a.62.62,0,0,1,0,.27,1.35,1.35,0,0,0-.45,0s0,0-.05,0a.06.06,0,0,1,0,0l.25-.19A.41.41,0,0,1,67.47,80.75Z"/><path class="cls-19" d="M35.27,28l-.45,0h-.47l-.16-.14-2.36-2.25a.81.81,0,0,1-.16-.16.84.84,0,0,1-.05-.17l.38-.77a2.36,2.36,0,0,1,.45.08,13.24,13.24,0,0,0,1.42.3c.3,0,.6.06.91.08a3.41,3.41,0,0,0,.95-.1,1.68,1.68,0,0,0,.63-.34c.1.42.21.84.3,1.27s.18.79.26,1.19l-1.33.9A.94.94,0,0,1,35.27,28Z"/><path class="cls-1" d="M36.92,27c-.08-.4-.17-.8-.26-1.19s-.2-.85-.3-1.27A12.37,12.37,0,0,0,37,22.75c0-.14.1-.28.15-.43l.7,1.68a1.61,1.61,0,0,1,.17.51.41.41,0,0,0,.11.25,2.62,2.62,0,0,0,.81.78.31.31,0,0,1-.15.17l-1.66,1.11A.72.72,0,0,1,36.92,27Z"/><path class="cls-8" d="M30.62,51.78c0,.14,0,.27,0,.41V55a.24.24,0,0,1-.16-.05l-.66-.44c-.09-.06-.18-.1-.27-.15a5.62,5.62,0,0,0-.91-.62s-.06,0-.08,0a.58.58,0,0,0-.47-.3.48.48,0,0,0-.09-.14l-1.35-.9h-.05a1.73,1.73,0,0,0-.21-.17l-2.26-1.53-.23-.14c-.05-1-.09-1.93-.13-2.89a.66.66,0,0,1,0-.14l.18.14a10.73,10.73,0,0,0,1,.78,14.29,14.29,0,0,0,2.52,1.37l.41.2a.18.18,0,0,0,.19.08h0a.13.13,0,0,0,.18.09h0s0,.1,0,.13l.22.16c.59.41,1.21.79,1.79,1.22A1.91,1.91,0,0,0,30.62,51.78Z"/><path class="cls-1" d="M23.89,50.48l.23.14,2.26,1.53a1.73,1.73,0,0,1,.21.17.39.39,0,0,1-.23.14,5.34,5.34,0,0,0-1.57.9,1.81,1.81,0,0,0-.49.54.66.66,0,0,1-.22.22L24,53.76c0-.17,0-.34,0-.5,0-.41,0-.82,0-1.23,0-.22,0-.43,0-.64S23.89,50.79,23.89,50.48Z"/><path class="cls-19" d="M28.08,53.37a.58.58,0,0,1,.47.3,3.49,3.49,0,0,0,.06,1.07,1.15,1.15,0,0,0,.36.62,1,1,0,0,0,.57.24.17.17,0,0,0,.2-.14,1.49,1.49,0,0,1,.12.14,6.11,6.11,0,0,1,.27.58.17.17,0,0,1-.17.25.58.58,0,0,1-.23,0,3.77,3.77,0,0,1-1.3-.82,1.15,1.15,0,0,1-.14-.17.66.66,0,0,1-.12-.43,1.21,1.21,0,0,0,0-.19l0,0a.05.05,0,0,0-.08,0l-.14.12-.13,0a.13.13,0,0,1-.07-.15C27.85,54.26,27.93,53.81,28.08,53.37Zm.19,1.2-.06-.06,0,0a.25.25,0,0,0,0,.07s0,0,0,.07.05,0,.06,0Z"/><path class="cls-19" d="M33.47,53.84a1.21,1.21,0,0,1,.6-.24,2.92,2.92,0,0,0,.34.74,1,1,0,0,0,1,.5.35.35,0,0,0,.17-.06.19.19,0,0,0,.06-.16.45.45,0,0,1,.12.06c.16.16.33.32.48.49a.18.18,0,0,1,0,.21.21.21,0,0,1-.18.12,4.13,4.13,0,0,1-.5,0,4.2,4.2,0,0,1-.85-.2,1.8,1.8,0,0,1-.48-.24A.67.67,0,0,1,34,54.5a.79.79,0,0,0-.05-.4s0,0,0,0l-.09.44c0,.06-.05.07-.1.08a.17.17,0,0,1-.16-.06.61.61,0,0,1,0-.13C33.52,54.27,33.5,54.06,33.47,53.84Z"/><path class="cls-24" d="M35.68,54.62a.19.19,0,0,1-.06.16.35.35,0,0,1-.17.06,1,1,0,0,1-1-.5,2.92,2.92,0,0,1-.34-.74s0,0,0,0a3.33,3.33,0,0,1,.87-.36,4.67,4.67,0,0,0,.5,1.06Z"/><path class="cls-22" d="M29.74,55.46a.17.17,0,0,1-.2.14,1,1,0,0,1-.57-.24,1.15,1.15,0,0,1-.36-.62,3.49,3.49,0,0,1-.06-1.07s.06,0,.08,0a5.62,5.62,0,0,1,.91.62,2.67,2.67,0,0,0,.12.8A3.59,3.59,0,0,0,29.74,55.46Z"/><path class="cls-28" d="M67.37,53.23a2.45,2.45,0,0,1,0,.27v2.14c0,.06,0,.12,0,.17a.5.5,0,0,1-.25.21l-2.36,1.29-1.84,1a.8.8,0,0,1-.43.1,2.27,2.27,0,0,1-1-.23l-.3-.12-.13,0s-.07,0-.08,0a.19.19,0,0,0,0,.13.45.45,0,0,0,.11.13l.37.28.13.13a1.57,1.57,0,0,1-.7.76,3.57,3.57,0,0,1-.93.38.18.18,0,0,0-.07.05.11.11,0,0,0,0,.12.48.48,0,0,0,.26.09,3,3,0,0,0,1,0l.32-.06c.08,0,.18,0,.23.08l-2,1.34-.12.06a.3.3,0,0,1-.19-.29,1.09,1.09,0,0,1,0-.31,1.43,1.43,0,0,0,.06-.5V58.9c0-.15,0-.3,0-.46a1.21,1.21,0,0,0,.2-.09c.5-.33,1-.65,1.48-1,1.38-1,2.8-1.87,4.19-2.82l1.65-1.13Z"/><path class="cls-22" d="M27.88,49.94l-.41-.2A14.29,14.29,0,0,1,25,48.37a10.73,10.73,0,0,1-1-.78l-.18-.14a.26.26,0,0,1-.07-.11,2.44,2.44,0,0,1,0-.27c0-.37,0-.39.38-.55a7.31,7.31,0,0,0,.68-.35l.62-.38.21-.07c.12,0,.19.14.28.22.45.45.9.91,1.36,1.35a11.9,11.9,0,0,0,2,1.56,2.49,2.49,0,0,0,.28.15c.55.22,1.1.44,1.66.62a6.17,6.17,0,0,0,.85.2,1.47,1.47,0,0,0,.72,0,1.57,1.57,0,0,1,.86,0,.48.48,0,0,0,.17,0,.54.54,0,0,1,.56.38,1.46,1.46,0,0,1-.16.92.69.69,0,0,1-.2.25l-.23.14a.47.47,0,0,1-.59,0l-.39-.31L32.57,51a.3.3,0,0,0-.29-.17h-.23a1.9,1.9,0,0,1-.58,0,.55.55,0,0,0-.18,0,5,5,0,0,1-.94-.13,9.88,9.88,0,0,1-1.4-.35l-.52-.16a.53.53,0,0,0-.18,0h0c0-.09-.1-.09-.18-.09h0A.18.18,0,0,0,27.88,49.94Z"/><path class="cls-2" d="M33.54,38.84c0-.14,0-.27.05-.41h.07s.05,0,.05.08,0,.24,0,.36Z"/><path class="cls-1" d="M65.62,30a1.33,1.33,0,0,1,.21-.09c.88-.27,1.74-.59,2.6-.94l.53-.25a1.17,1.17,0,0,0,.5-.38,2.41,2.41,0,0,1,.24-.21,3.07,3.07,0,0,1,.25-.26l.24.13.36.21a.25.25,0,0,0,.22-.11A18.77,18.77,0,0,0,72.65,26a1.8,1.8,0,0,1,.19-.2s.07,0,.07,0a6.21,6.21,0,0,1,.14.62,6.73,6.73,0,0,1,.09,1.27c0,.23,0,.46,0,.69s0,.67,0,1a13.49,13.49,0,0,1,0,2l0,.32C73,32.5,73,33.26,73,34c0,.3,0,.6-.07.91l-.72-.47L68.46,32l-2.6-1.76Z"/><path class="cls-23" d="M74.06,41.26c-.06-.09-.11-.18-.17-.26s-.2-.31-.31-.46a2.18,2.18,0,0,0-1.36-.84c-.33-.06-.66-.13-1-.18-.15,0-.3,0-.46,0a1.45,1.45,0,0,1,.44-.24,4.08,4.08,0,0,1,.42-.17c.39-.15.78-.32,1.16-.49.17-.08.34-.14.51-.21l1.29-.55.46-.19.88-.36a.28.28,0,0,0,.15-.15.28.28,0,0,1,.08.11c0,.1,0,.21,0,.32v2l0,.46c0,.06,0,.12,0,.18a.2.2,0,0,1-.12.17l-.12.06-1,.4Z"/><path class="cls-12" d="M76.12,36.47a.52.52,0,0,0-.18,0,.13.13,0,0,0-.12.12c0,.09,0,.18,0,.27a4.34,4.34,0,0,1-1-.68l.31,0a6.35,6.35,0,0,0,.87.16Z"/><path class="cls-1" d="M63.92,30.55a.12.12,0,0,1,.12-.09h.17A.3.3,0,0,1,63.92,30.55Z"/><path class="cls-1" d="M80.57,30a.18.18,0,0,1,.05.07c.16.32.32.64.48,1a3.32,3.32,0,0,1-.32.62l0,0c0-.1-.06-.2-.07-.3,0-.29-.08-.58-.15-.86A.81.81,0,0,1,80.57,30Z"/><path class="cls-18" d="M78.42,36.58c0,.07,0,.15,0,.22a.14.14,0,0,1-.17.1l-.48-.1-.35,0c-.08,0-.11,0-.11.15v0s0,0,0,0a1.65,1.65,0,0,0-.29-.3s0,0,0,0h1.52Z"/><path class="cls-30" d="M68,57.71a1.61,1.61,0,0,1,.36-.27c.17-.13.34-.25.5-.39a.83.83,0,0,0,.29-.5c0-.06,0-.12,0-.18.07-.55.13-1.11.21-1.66s.15-1.11.23-1.66c0-.29.07-.57.11-.86l.12-.81.21.08a1.17,1.17,0,0,0,.8.09,2.48,2.48,0,0,0,.39-.1,1.11,1.11,0,0,1,.4-.06,1,1,0,0,1,.45.07l.3.1a1.84,1.84,0,0,0,.62.11,1.7,1.7,0,0,0,.83-.2,1,1,0,0,1,0,.18c-.08.28-.08.57-.15.85s-.1.63-.16.94a2.44,2.44,0,0,0,0,.54.57.57,0,0,0,.07.22,1.11,1.11,0,0,0,.29.39,2.61,2.61,0,0,0,.54.77c0,.06,0,.12.07.17l1.19,1.72.15.17a1.21,1.21,0,0,0,.15.22.58.58,0,0,1,.1.42,2.27,2.27,0,0,1-.4.48,1.16,1.16,0,0,1-.4.2.37.37,0,0,0-.12.07l-.32,0a2.73,2.73,0,0,1-.41,0,1.41,1.41,0,0,0-.57.14,8.16,8.16,0,0,1-1.28.47l-.26.07a1.86,1.86,0,0,0-.55.22c-.14.08-.3.15-.45.22a2.25,2.25,0,0,1-1.2.18,2.5,2.5,0,0,1-.66-.19,4.88,4.88,0,0,0-.65-.2,1.73,1.73,0,0,0-.68,0,2.81,2.81,0,0,0-.81.14l-.08,0s0-.06,0-.11a1.12,1.12,0,0,0,0-.13l.56-1.4C67.89,58.05,68,57.88,68,57.71Z"/><path class="cls-1" d="M71,66.66c.11.76.21,1.51.36,2.26s.36,1.63.61,2.43a3.55,3.55,0,0,1,.16.8c0,.56.09,1.12.13,1.68l.12,1.64.15,2c0,.37.06.73.08,1.09.06.81.12,1.61.17,2.41a2.89,2.89,0,0,1-.59,0,3.38,3.38,0,0,0-.63-.07,2.37,2.37,0,0,1-.46,0,3.07,3.07,0,0,0-.68,0h-.77c0-.49,0-1,0-1.47a.86.86,0,0,1,0-.17.34.34,0,0,0,.21-.08l.94-.63c.07,0,.18-.08.18-.18s-.12-.12-.2-.15l-.66-.28-.54-.24a1.1,1.1,0,0,0,0-.18c0-.58-.06-1.16-.11-1.73a7.51,7.51,0,0,0-1-3.22,4.65,4.65,0,0,0-.29-.43,1,1,0,0,1,0-.11c.75-1.61,1.46-3.23,2.16-4.87a1.19,1.19,0,0,1,.09-.15.11.11,0,0,0,.07-.11h0a.43.43,0,0,0,.25,0A.53.53,0,0,1,71,66.66Z"/><path class="cls-2" d="M69.69,80.74h.77a3.07,3.07,0,0,1,.68,0,2.37,2.37,0,0,0,.46,0,3.38,3.38,0,0,1,.63.07,2.89,2.89,0,0,0,.59,0s0,.09,0,.13L73,83a.57.57,0,0,1,0,.13l-.45,0-.27,0L71.83,83l-.31,0a2,2,0,0,0-.54-.06l-.19-.05H70.7a3.65,3.65,0,0,0-1,0C69.71,82.16,69.7,81.45,69.69,80.74Z"/><path class="cls-2" d="M69.61,77.54l.54.24.66.28c.08,0,.2,0,.2.15s-.11.13-.18.18l-.94.63a.34.34,0,0,1-.21.08.29.29,0,0,1-.05-.13C69.62,78.5,69.62,78,69.61,77.54Z"/><path class="cls-2" d="M71,66.66a.53.53,0,0,0-.3,0,.43.43,0,0,1-.25,0,.51.51,0,0,1,0-.13c.1-.27.21-.53.33-.79a.38.38,0,0,1,.11-.14l.06.54Z"/><path class="cls-12" d="M75.17,58.81a.37.37,0,0,1,.12-.07,1.16,1.16,0,0,0,.4-.2,2.56,2.56,0,0,1-.08.73l-.26.08A1.05,1.05,0,0,1,75.17,58.81Z"/><path class="cls-19" d="M75.35,59.35l.26-.08a2.71,2.71,0,0,1,.08.69.31.31,0,0,1-.17.29l0,0a.28.28,0,0,1,0-.12C75.44,59.84,75.3,59.61,75.35,59.35Z"/><path class="cls-2" d="M70.49,66.74a.11.11,0,0,1-.07.11C70.41,66.79,70.43,66.75,70.49,66.74Z"/><path class="cls-7" d="M20.49,58.85l-.1,0c-.05-.07-.05-.07,0-.17A.13.13,0,0,1,20.49,58.85Z"/><path class="cls-1" d="M76.09,58.06a.58.58,0,0,0-.1-.42,1.21,1.21,0,0,1-.15-.22c0-.33.1-.66.14-1,.08-.67.17-1.35.25-2a2.44,2.44,0,0,0,0-.27,2.4,2.4,0,0,1,.44-.46,5.38,5.38,0,0,0,.72-.93.87.87,0,0,0,.14-.52,2.87,2.87,0,0,0-.05-.41,6.53,6.53,0,0,0-.38-1.21c-.16-.37-.33-.75-.5-1.12a4.27,4.27,0,0,0-.32-1.69c.23-.88.41-1.79.56-2.7,0-.25.09-.5.14-.76l.09,0c.06.34.12.68.19,1,.16.77.31,1.54.54,2.3a10.67,10.67,0,0,1,.26,1.25c.21,1.32.43,2.64.64,4,.16,1.05.33,2.1.49,3.15l.3,1.89a.45.45,0,0,1-.06.12.14.14,0,0,1-.1.07.59.59,0,0,1-.23,0,2.15,2.15,0,0,0-.67-.07Z"/><path class="cls-12" d="M77,44.33c0,.26-.1.51-.14.76-.15.91-.33,1.82-.56,2.7a4.27,4.27,0,0,1,.32,1.69c-.08-.13-.16-.25-.23-.39q-.55-1-1.17-2c-.09-.14-.19-.28-.29-.41a1.94,1.94,0,0,1,0-.72,1.89,1.89,0,0,0,0-1c0-.1-.06-.21-.1-.31a3.8,3.8,0,0,1-.26-1.42,3.59,3.59,0,0,0-.16-1c-.09-.32-.21-.63-.31-1l.92-.38,1-.4.12-.06a.2.2,0,0,0,.12-.17c0-.06,0-.12,0-.18s.13,0,.13.09c0,.25.1.48.11.72s.11.44.11.67a1.8,1.8,0,0,0,.09.45c.09.41.11.84.24,1.25s.13.59.12.9Z"/><path class="cls-14" d="M81.47,60.09a1.42,1.42,0,0,1,.07.22l.21,1.39a1.23,1.23,0,0,1,0,.27.3.3,0,0,1-.07.21,3.53,3.53,0,0,1-.59.57,1.57,1.57,0,0,1-.45.22.55.55,0,0,1-.62-.18,1.2,1.2,0,0,1-.18-.31,1,1,0,0,1-.09-.3.42.42,0,0,1,0-.27c.14-.4.27-.81.4-1.21.06-.17.11-.35.17-.52h.27a1.91,1.91,0,0,0,.58-.06A1.18,1.18,0,0,1,81.47,60.09Z"/><path class="cls-7" d="M77,44.33v-.18a.18.18,0,0,1,.08.21Z"/><path class="cls-1" d="M59.63,61.55l.12-.06,2-1.34a1.21,1.21,0,0,0,.2-.09l.48-.33a.53.53,0,0,1,.24-.11l.44.11a.67.67,0,0,1,.5.42.28.28,0,0,1,0,.18,1.32,1.32,0,0,1-.52.67,4.56,4.56,0,0,1-1.37.61,4.83,4.83,0,0,1-.84.18,6.91,6.91,0,0,1-.91,0,.42.42,0,0,1-.35-.18A.19.19,0,0,0,59.63,61.55Z"/><path class="cls-7" d="M62.64,59.62a.53.53,0,0,0-.24.11l-.48.33a1.21,1.21,0,0,1-.2.09c0-.1-.15-.07-.23-.08s.19-.08.29-.12a3.82,3.82,0,0,0,.77-.48A.82.82,0,0,1,63,59.3a.84.84,0,0,1-.21.21Z"/><path class="cls-24" d="M71,82.93a2,2,0,0,1,.54.06l.31,0,.45.06.27,0,.45,0a1.16,1.16,0,0,0,.89.27,2.53,2.53,0,0,0,.53-.12.53.53,0,0,1-.25.26,1.54,1.54,0,0,1-.69.18,7.42,7.42,0,0,1-.82,0c-.58-.06-1.15-.14-1.71-.25a.58.58,0,0,1-.29-.12.07.07,0,0,1,0-.08.46.46,0,0,1,.09-.15Z"/><path class="cls-24" d="M74.92,46.67c.1.13.2.27.29.41q.62,1,1.17,2c.07.14.15.26.23.39.17.37.34.75.5,1.12a6.53,6.53,0,0,1,.38,1.21,2.87,2.87,0,0,1,.05.41.87.87,0,0,1-.14.52,5.38,5.38,0,0,1-.72.93,2.4,2.4,0,0,0-.44.46c-.12.09-.25.17-.37.27a12.87,12.87,0,0,1-1.44,1,2.61,2.61,0,0,1-.54-.77l0,0,1.65-2.22a.75.75,0,0,0,.09-.15s0-.09-.07-.13a14.44,14.44,0,0,1-1-1.47c0-.05-.08-.09-.11-.14a.48.48,0,0,1,.11-.29,1.52,1.52,0,0,1,.39-.37,4.15,4.15,0,0,0,.34-.24,1.13,1.13,0,0,0,.28-1.37c-.06-.14-.15-.26-.22-.4s-.18-.28-.26-.42A1.61,1.61,0,0,1,74.92,46.67Z"/><path class="cls-12" d="M74.51,50.45s.08.09.11.14a14.44,14.44,0,0,0,1,1.47s0,.08.07.13a.75.75,0,0,1-.09.15l-1.65,2.22,0,0a1.11,1.11,0,0,1-.29-.39.57.57,0,0,1-.07-.22,2.44,2.44,0,0,1,0-.54c.06-.31.09-.63.16-.94s.07-.57.15-.85a1,1,0,0,0,0-.18,1.19,1.19,0,0,0,.46-.65A.89.89,0,0,1,74.51,50.45Z"/><path class="cls-6" d="M28.25,50.11a.53.53,0,0,1,.18,0l.52.16a9.88,9.88,0,0,0,1.4.35,5,5,0,0,0,.94.13.55.55,0,0,1,.18,0,1.9,1.9,0,0,0,.58,0h.23a.3.3,0,0,1,.29.17l-.37.15L31,51.68a1.91,1.91,0,0,1-.34.1,1.91,1.91,0,0,1-.32-.16c-.58-.43-1.2-.81-1.79-1.22l-.22-.16S28.27,50.15,28.25,50.11Z"/><path class="cls-1" d="M32,24.48l-.38.77a.59.59,0,0,1-.16-.06c-.1-.08-.17-.17-.27-.24-.38-.3-.27-.29-.16-.63a3.66,3.66,0,0,1,.18-.46,2,2,0,0,1,.12-.19l.12.29A.84.84,0,0,0,32,24.48Z"/><path class="cls-24" d="M77.93,17.77a.72.72,0,0,1-.12.47.51.51,0,0,1-.21.17.32.32,0,0,1-.42-.14.77.77,0,0,1-.07-.26.83.83,0,0,1,.09-.49.4.4,0,0,1,.28-.21.28.28,0,0,1,.18,0,.42.42,0,0,1,.25.3C77.92,17.68,77.92,17.74,77.93,17.77Z"/><path class="cls-27" d="M74.47,18.24l.73.06.13,0a.13.13,0,0,1,0,.07.08.08,0,0,1,0,0,.62.62,0,0,1-.41.18.45.45,0,0,1-.29-.1.86.86,0,0,1-.18-.2S74.47,18.28,74.47,18.24Z"/><path class="cls-1" d="M32.82,14.17a.56.56,0,0,1,0-.12A.14.14,0,0,1,33,14a.26.26,0,0,1,.07.11c0,.05,0,.11-.09.13l-.09,0A.13.13,0,0,1,32.82,14.17Z"/><path class="cls-1" d="M35.48,14.18l.17,0c.1,0,.15,0,.16,0a.25.25,0,0,1-.06.17.63.63,0,0,1-.38.23h-.13a.67.67,0,0,1-.33-.15.08.08,0,0,1,0-.08.06.06,0,0,1,0-.06l.53-.13Z"/><path class="cls-18" d="M34.29,12.68l-.11,0,0,0a.06.06,0,0,1,0,0,.39.39,0,0,1,.06-.11.73.73,0,0,1,.67-.18.11.11,0,0,1,.06.07.09.09,0,0,1,0,.11l-.18.05A1.26,1.26,0,0,0,34.29,12.68Z"/><path class="cls-30" d="M35.88,12.88H35.8a.2.2,0,0,1,0-.27.12.12,0,0,1,.08,0,.17.17,0,0,1,0,.29Z"/><path class="cls-30" d="M34.66,12.93a.76.76,0,0,1,0,.11.1.1,0,0,1-.12,0,.16.16,0,0,1-.07-.22.27.27,0,0,1,.1-.08s.11.06.12.11A.15.15,0,0,0,34.66,12.93Z"/><path class="cls-14" d="M75.53,16.38a1,1,0,0,1,.56.1.26.26,0,0,1,.11.07.11.11,0,0,1,0,.12s0,.06-.1,0l-.4-.08-.26,0a.13.13,0,0,1-.07-.05.1.1,0,0,1,0-.09.07.07,0,0,1,0-.06Z"/><path class="cls-30" d="M75.83,17s0,.06-.06.09a.11.11,0,0,1-.13,0,.16.16,0,0,1-.08-.19.18.18,0,0,1,.13-.16.13.13,0,0,1,.08,0A.23.23,0,0,1,75.83,17Z"/><path class="cls-30" d="M74.33,16.54a.66.66,0,0,1,.09.19.25.25,0,0,1,0,.17.16.16,0,0,1-.11.07.15.15,0,0,1-.1-.06.21.21,0,0,1,0-.25l.14-.12Z"/><path class="cls-1" d="M21.11,20.06a.4.4,0,0,1-.41.43.42.42,0,1,1,0-.84A.4.4,0,0,1,21.11,20.06Z"/><path class="cls-1" d="M69,24a.53.53,0,0,1-.16,0,.43.43,0,0,1-.05-.79.36.36,0,0,1,.42,0,.42.42,0,0,1-.06.78Z"/><path class="cls-15" d="M70.7,82.87h.09S70.73,82.9,70.7,82.87Z"/><path class="cls-6" d="M27.88,49.94a.18.18,0,0,1,.19.08A.18.18,0,0,1,27.88,49.94Z"/><path class="cls-6" d="M28.07,50c.08,0,.15,0,.18.09A.13.13,0,0,1,28.07,50Z"/><path class="cls-2" d="M28.27,54.57l0,.07s0,0-.06,0,0,0,0-.07a.25.25,0,0,1,0-.07l0,0Z"/><path class="cls-12" d="M74.43,55.36a12.87,12.87,0,0,0,1.44-1c.12-.1.25-.18.37-.27a2.44,2.44,0,0,1,0,.27c-.08.68-.17,1.36-.25,2,0,.33-.09.66-.14,1l-.15-.17L74.5,55.53C74.47,55.48,74.46,55.42,74.43,55.36Z"/></g></g></svg>