<svg xmlns="http://www.w3.org/2000/svg" viewBox="0 0 120.82 90.56"><defs><style>.cls-1{fill:#feffff;}.cls-2{fill:#e3e8f5;}.cls-3{fill:#fde717;}.cls-4{fill:#271f41;}.cls-5{fill:#fde71c;}.cls-6{fill:#e4e8f5;}.cls-7{fill:#97a6d3;}.cls-8{fill:#3f974f;}.cls-9{fill:#798ec8;}.cls-10{fill:#2f2b59;}.cls-11{fill:#8b284e;}.cls-12{fill:#e52954;}.cls-13{fill:#241f41;}.cls-14{fill:#f07951;}.cls-15{fill:#0e0709;}.cls-16{fill:#96a5d1;}.cls-17{fill:#ee7750;}.cls-18{fill:#ef4f78;}.cls-19{fill:#116b42;}.cls-20{fill:#fbf6f5;}.cls-21{fill:#c6284f;}.cls-22{fill:#2d1b14;}.cls-23{fill:#fffdf5;}.cls-24{fill:#e3e7f5;}.cls-25{fill:#e1e6f2;}.cls-26{fill:#dde1ec;}.cls-27{fill:#dd613c;}.cls-28{fill:#4b4d80;}.cls-29{fill:#432e5c;}.cls-30{fill:#442c44;}</style></defs><title>Asset 2</title><g id="Layer_2" data-name="Layer 2"><g id="Layer_1-2" data-name="Layer 1"><path class="cls-1" d="M0,0H120.82V90.56H0ZM68.36,21.57l.18-.3a11.87,11.87,0,0,0,1.88-6.22,10.46,10.46,0,0,0-.26-2.62A11.69,11.69,0,0,0,64,4.34,11.47,11.47,0,0,0,59.3,3a12.46,12.46,0,0,0-2.52.11,11.24,11.24,0,0,0-3.21,1,11.84,11.84,0,0,0-5.78,5.79c-.06.1-.11.21-.17.32-.37-.12-.75-.25-1.13-.35l-1.26-.3a4.58,4.58,0,0,0-.81-.14,6.36,6.36,0,0,0-1-.09.57.57,0,0,1-.18,0,1,1,0,0,0-.25,0,22.4,22.4,0,0,0-2.59.06c-.29.05-.58,0-.86.07s-.58,0-.86.09c-.53.09-1.07.17-1.59.3-.68.18-1.38.32-2,.56l-.81.28a21.43,21.43,0,0,0-2.8,1.16c-.27.12-.53.29-.8.42a20.63,20.63,0,0,0-1.92,1.14,17.92,17.92,0,0,0-1.65,1.21,12.17,12.17,0,0,0-.93.8l-.08.07a10.85,10.85,0,0,0-1.38,1.33c-.35.36-.64.78-1,1.16a12.48,12.48,0,0,0-.87,1.19A15.68,15.68,0,0,0,21.77,21a13.87,13.87,0,0,0-1.09,3.05,10.83,10.83,0,0,0-.34,2.34.55.55,0,0,1,0,.18,6.23,6.23,0,0,0-.05,1.22,2.76,2.76,0,0,1,.07.86.82.82,0,0,0,0,.22c.1.31,0,.64.12,1a2.33,2.33,0,0,1,.08.46c0,.26,0,.52.08.78a8.87,8.87,0,0,1,.14,1.14.37.37,0,0,0,0,.11,1.81,1.81,0,0,1,.06.61c0,.2,0,.4.07.61a7.62,7.62,0,0,1-.09,1.65,5.24,5.24,0,0,1-.33,1.28,4.82,4.82,0,0,1-1.09,1.69c-.31.3-.61.6-.95.89s-.75.67-1.14,1l-.89.74-.81.66-1.43,1.08-1.68,1.3c-.39.31-.78.6-1.17.9-.19.15-.36.31-.55.47s-.37.34-.57.49A13.29,13.29,0,0,0,9,46.75c-.47.45-.93.9-1.36,1.4s-.66.76-1,1.16A18.11,18.11,0,0,0,5.59,50.9c-.37.6-.73,1.21-1,1.85-.1.2-.19.41-.28.62-.18.45-.39.88-.55,1.34a23,23,0,0,0-.87,3c-.12.56-.22,1.13-.3,1.69a4.49,4.49,0,0,0-.08,1s0,.09,0,.14a2.6,2.6,0,0,0,0,.39v2.07c0,.12,0,.23,0,.35l0,.29c0,.31,0,.62.09.93s.09.42.12.63a13.92,13.92,0,0,0,.52,2.21c.17.56.36,1.12.58,1.66s.54,1.32.85,2,.58,1.1.89,1.65.62,1,1,1.53c.23.36.48.71.74,1.06s.63.88,1,1.31.45.57.67.85l.79,1c.2.23.41.44.6.67a10.9,10.9,0,0,0,.95,1.09l.07.08a11.87,11.87,0,0,0,.88,1c.25.32.56.59.83.9.43.49.91.93,1.34,1.42s.94.89,1.33,1.42c.69.64,1.29,1.36,2,2a2.91,2.91,0,0,1,.53.63h-.4c-.11,0-.22,0-.32,0a.79.79,0,0,0-.31.08.48.48,0,0,0-.24.49.46.46,0,0,0,.38.43,3.63,3.63,0,0,0,.57,0h85c.11,0,.22,0,.33,0a.75.75,0,0,0,.21,0,.48.48,0,0,0,.41-.48,2.13,2.13,0,0,0,0-.25,1.43,1.43,0,0,1,.61-.29c.85-.34,1.7-.69,2.51-1.1.46-.22.9-.46,1.35-.7l1.15-.67A18.91,18.91,0,0,0,111,84l.38-.26c.32-.26.62-.54,1-.78s.37-.34.56-.51.4-.34.59-.52c.45-.44.85-.92,1.26-1.39a15.63,15.63,0,0,0,1.06-1.37,17.11,17.11,0,0,0,1.49-2.51,18.23,18.23,0,0,0,.84-2c.24-.65.43-1.32.61-2s.24-1.09.33-1.65a7.39,7.39,0,0,0,.14-1.14.15.15,0,0,1,0-.07,1.59,1.59,0,0,0,.06-.57,2.85,2.85,0,0,1,0-.29c0-.12,0-.24,0-.36v-3a.79.79,0,0,0,0-.22,2.32,2.32,0,0,1-.06-.64c0-.22,0-.43-.07-.64V64c0-.28,0-.57-.09-.85s-.09-.43-.13-.64-.12-.71-.2-1.06a14.29,14.29,0,0,0-.59-2,13.23,13.23,0,0,0-1.29-2.58,9.1,9.1,0,0,0-1.37-1.66l-.34-.33a6.85,6.85,0,0,0-1.25-1,17.65,17.65,0,0,0-2.48-1.48l-1.6-.73L108.23,51l-.87-.36c-.46-.2-.92-.43-1.39-.61a8.24,8.24,0,0,1-1.67-.92,6.31,6.31,0,0,1-.63-.53c-.1-.1-.17-.23-.27-.34a4.55,4.55,0,0,1-1-1.88,4.8,4.8,0,0,1-.24-1.46,1.11,1.11,0,0,0,0-.17,2.65,2.65,0,0,1,0-1c0-.23,0-.45.06-.68a1.48,1.48,0,0,1,0-.21,5.85,5.85,0,0,0,.12-.71,9.45,9.45,0,0,1,.25-1.41c.26-1.13.57-2.24.89-3.34.22-.72.44-1.43.64-2.14.25-.88.5-1.76.74-2.64a9.86,9.86,0,0,0,.23-1c0-.37.16-.73.18-1.1s.11-.55.11-.82a12.22,12.22,0,0,0,0-1.91c0-.34-.09-.68-.15-1a12.9,12.9,0,0,0-.4-1.6,17.21,17.21,0,0,0-.66-1.68,12,12,0,0,0-1.23-2,5.81,5.81,0,0,0-.58-.73,16.45,16.45,0,0,0-1.93-1.8A17.75,17.75,0,0,0,98,17.36c-.4-.2-.81-.36-1.22-.55a17,17,0,0,0-2.07-.73c-.18,0-.37-.11-.56-.15l-1.26-.26a9.91,9.91,0,0,0-1.07-.17,5.12,5.12,0,0,0-1-.09s-.07,0-.11,0-.23,0-.35,0h-.66a3.27,3.27,0,0,1-.53,0,2,2,0,0,0-.54,0l-.43,0a5.65,5.65,0,0,0-1.36.07h-.11c-.31,0-.62,0-.93.08l-1.17.2a18.39,18.39,0,0,0-2.3.57,19.86,19.86,0,0,0-3.28,1.31l-.86.47L77,18.68l-1.94,1c-.33.18-.68.32-1,.48a16.42,16.42,0,0,1-1.63.67,11.82,11.82,0,0,1-1.91.54,6,6,0,0,1-1.53.17C68.79,21.56,68.57,21.57,68.36,21.57Zm8.38-6.22h0c.67,0,1.35,0,2,0a1,1,0,0,0,.94-.88A1,1,0,0,0,79,13.39a1.34,1.34,0,0,0-.35-.05H74.89a1.87,1.87,0,0,0-.32,0,1,1,0,0,0,0,1.94,1.42,1.42,0,0,0,.36,0Zm-6.18-9a.93.93,0,0,0,.49.87,1,1,0,0,0,1,0A2.07,2.07,0,0,0,72.32,7l2.79-2.12.22-.18a1,1,0,0,0-1.2-1.59l-.23.17L71.08,5.45a1.56,1.56,0,0,0-.2.16A.94.94,0,0,0,70.56,6.34Zm-24.21,0a1,1,0,0,0-.45-.86l-3-2.25-.15-.11a1,1,0,0,0-1.33.26,1,1,0,0,0,.14,1.34,1.74,1.74,0,0,0,.22.18L44.58,7a1.65,1.65,0,0,0,.27.19A1,1,0,0,0,46.35,6.36Zm-29.48,28h-.16a1.52,1.52,0,0,0-1.33.72,1.73,1.73,0,0,0-.33,1.08,1.69,1.69,0,0,0,.22.83,1.81,1.81,0,0,0,1.53.92,1.67,1.67,0,0,0,.92-.26,1.41,1.41,0,0,0,.59-.52,1.86,1.86,0,0,0,.21-1.59A1.51,1.51,0,0,0,18,34.7,1.48,1.48,0,0,0,16.87,34.31Zm84.19-18.66v.16a1.11,1.11,0,0,0,.56,1,1.42,1.42,0,0,0,1.17.15,1.19,1.19,0,0,0,.88-1.17.54.54,0,0,1,0-.18,1.16,1.16,0,0,0-1-1.2,1.38,1.38,0,0,0-1.23.25.48.48,0,0,0-.19.21A1.13,1.13,0,0,0,101.06,15.65ZM108.23,45v-.18a1.55,1.55,0,0,0-.39-1,1.86,1.86,0,0,0-3,.17,1.69,1.69,0,0,0-.25,1.45,1.82,1.82,0,0,0,1,1.24,1.93,1.93,0,0,0,1,.16,1.39,1.39,0,0,0,.75-.21A1.7,1.7,0,0,0,108.23,45Zm.91,4A1,1,0,0,0,110.25,48a1.1,1.1,0,0,0-1.11-1.16A1.13,1.13,0,0,0,108,48,1.07,1.07,0,0,0,109.14,49.08Z"/><path class="cls-2" d="M18.1,87.59a2.91,2.91,0,0,0-.53-.63c-.67-.67-1.27-1.39-2-2-.39-.53-.91-.93-1.33-1.42s-.91-.93-1.34-1.42c-.27-.31-.58-.58-.83-.9a11.87,11.87,0,0,1-.88-1l-.07-.08A10.9,10.9,0,0,1,10.21,79c-.19-.23-.4-.44-.6-.67l-.79-1c-.22-.28-.45-.56-.67-.85s-.64-.87-1-1.31-.51-.7-.74-1.06c-.33-.51-.65-1-1-1.53S4.89,71.53,4.62,71s-.59-1.3-.85-2-.41-1.1-.58-1.66a13.92,13.92,0,0,1-.52-2.21c0-.21-.09-.42-.12-.63s-.06-.62-.09-.93l0-.29c0-.12,0-.23,0-.35V60.87a2.6,2.6,0,0,1,0-.39s0-.09,0-.14a4.49,4.49,0,0,1,.08-1c.08-.56.18-1.13.3-1.69a23,23,0,0,1,.87-3c.16-.46.37-.89.55-1.34.09-.21.18-.42.28-.62.32-.64.68-1.25,1-1.85a18.11,18.11,0,0,1,1.12-1.59c.31-.4.65-.78,1-1.16s.89-.95,1.36-1.4a13.29,13.29,0,0,1,1.18-1.06c.2-.15.38-.32.57-.49s.36-.32.55-.47c.39-.3.78-.59,1.17-.9l1.68-1.3,1.43-1.08.81-.66.89-.74c.39-.31.76-.66,1.14-1s.64-.59.95-.89a4.82,4.82,0,0,0,1.09-1.69,5.24,5.24,0,0,0,.33-1.28,7.62,7.62,0,0,0,.09-1.65c0-.21-.06-.41-.07-.61a1.81,1.81,0,0,0-.06-.61.37.37,0,0,1,0-.11,8.87,8.87,0,0,0-.14-1.14c0-.26-.05-.52-.08-.78a2.33,2.33,0,0,0-.08-.46c-.08-.32,0-.65-.12-1a.82.82,0,0,1,0-.22,2.76,2.76,0,0,0-.07-.86,6.23,6.23,0,0,1,.05-1.22.55.55,0,0,0,0-.18,10.83,10.83,0,0,1,.34-2.34A13.87,13.87,0,0,1,21.77,21a15.68,15.68,0,0,1,1.09-1.91,12.48,12.48,0,0,1,.87-1.19c.33-.38.62-.8,1-1.16a10.85,10.85,0,0,1,1.38-1.33l.08-.07a12.17,12.17,0,0,1,.93-.8,17.92,17.92,0,0,1,1.65-1.21,20.63,20.63,0,0,1,1.92-1.14c.27-.13.53-.3.8-.42a21.43,21.43,0,0,1,2.8-1.16l.81-.28c.67-.24,1.37-.38,2-.56.52-.13,1.06-.21,1.59-.3.28-.05.58,0,.86-.09s.57,0,.86-.07A22.4,22.4,0,0,1,43,9.27a1,1,0,0,1,.25,0,.57.57,0,0,0,.18,0,6.36,6.36,0,0,1,1,.09,4.58,4.58,0,0,1,.81.14l1.26.3c.38.1.76.23,1.13.35a.65.65,0,0,1,0,.13A12,12,0,0,0,46.72,14a11.65,11.65,0,0,0,.3,3.63,11.79,11.79,0,0,0,2.17,4.49,15.19,15.19,0,0,1,2.32,4.28,13.94,13.94,0,0,1,.76,3.67,2.31,2.31,0,0,0,.23,4.09c.13.06.27.09.41.14a2.18,2.18,0,0,0,.21.87,3.24,3.24,0,0,0,.6,1.11,5.13,5.13,0,0,0,1.75,1.42,6.67,6.67,0,0,0,2.32.67,6.85,6.85,0,0,0,3.6-.55,5.16,5.16,0,0,0,2.14-1.73,2.7,2.7,0,0,0,.46-.93,1.21,1.21,0,0,0,.16-.58l0,0,0,0,0-.18c.09,0,.17-.09.26-.12a2.45,2.45,0,0,0,.72-.41A2.18,2.18,0,0,0,66,32.16a2.22,2.22,0,0,0-.75-1.8,3.37,3.37,0,0,0-.38-.28A14.57,14.57,0,0,1,65.41,27a15.87,15.87,0,0,1,3-5.43c.21,0,.43,0,.65,0a6,6,0,0,0,1.53-.17,11.82,11.82,0,0,0,1.91-.54,16.42,16.42,0,0,0,1.63-.67c.33-.16.68-.3,1-.48l1.94-1,1.18-.63.86-.47a19.86,19.86,0,0,1,3.28-1.31,18.39,18.39,0,0,1,2.3-.57l1.17-.2c.31,0,.62-.05.93-.08h.11a5.65,5.65,0,0,1,1.36-.07l.43,0a2,2,0,0,1,.54,0,3.27,3.27,0,0,0,.53,0h.66c.12,0,.23,0,.35,0s.07,0,.11,0a5.12,5.12,0,0,1,1,.09,9.91,9.91,0,0,1,1.07.17l1.26.26c.19,0,.38.1.56.15a17,17,0,0,1,2.07.73c.41.19.82.35,1.22.55a17.75,17.75,0,0,1,2.34,1.48,16.45,16.45,0,0,1,1.93,1.8,5.81,5.81,0,0,1,.58.73,12,12,0,0,1,1.23,2,17.21,17.21,0,0,1,.66,1.68,12.9,12.9,0,0,1,.4,1.6c.06.35.1.69.15,1a12.22,12.22,0,0,1,0,1.91c0,.27-.1.55-.11.82s-.13.73-.18,1.1a9.86,9.86,0,0,1-.23,1c-.24.88-.49,1.76-.74,2.64-.2.71-.42,1.42-.64,2.14-.32,1.1-.63,2.21-.89,3.34a9.45,9.45,0,0,0-.25,1.41,5.85,5.85,0,0,1-.12.71,1.48,1.48,0,0,0,0,.21c0,.23,0,.45-.06.68a2.65,2.65,0,0,0,0,1,1.11,1.11,0,0,1,0,.17,4.8,4.8,0,0,0,.24,1.46,4.55,4.55,0,0,0,1,1.88c.1.11.17.24.27.34a6.31,6.31,0,0,0,.63.53A8.24,8.24,0,0,0,106,50c.47.18.93.41,1.39.61l.87.36,1.59.69,1.6.73a17.65,17.65,0,0,1,2.48,1.48,6.85,6.85,0,0,1,1.25,1l.34.33a9.1,9.1,0,0,1,1.37,1.66,13.23,13.23,0,0,1,1.29,2.58,14.29,14.29,0,0,1,.59,2c.08.35.14.71.2,1.06s.1.42.13.64.06.57.09.85v.08c0,.21,0,.42.07.64a2.32,2.32,0,0,0,.06.64.79.79,0,0,1,0,.22v3c0,.12,0,.24,0,.36a2.85,2.85,0,0,0,0,.29,1.59,1.59,0,0,1-.06.57.15.15,0,0,0,0,.07A7.39,7.39,0,0,1,119,71c-.09.56-.19,1.11-.33,1.65s-.37,1.35-.61,2a18.23,18.23,0,0,1-.84,2,17.11,17.11,0,0,1-1.49,2.51,15.63,15.63,0,0,1-1.06,1.37c-.41.47-.81,1-1.26,1.39-.19.18-.4.34-.59.52s-.36.35-.56.51-.63.52-1,.78L111,84a18.91,18.91,0,0,1-1.67,1.14l-1.15.67c-.45.24-.89.48-1.35.7-.81.41-1.66.76-2.51,1.1a1.43,1.43,0,0,0-.61.29.74.74,0,0,0-.66-.29c-1.14,0-2.28,0-3.42,0h-.4a1,1,0,0,0,.14-.62c0-3.07,0-6.13,0-9.2,0-.09,0-.19,0-.29a.9.9,0,0,1,0-.18l0,0,.33,0A1.33,1.33,0,0,0,101,76.12a4.74,4.74,0,0,0,.05-.65c0-4.16,0-8.32,0-12.49a6.3,6.3,0,0,0-.05-.75,1.25,1.25,0,0,0-1.08-1.14c-.11-.09-.23-.06-.35-.06H97.79a.61.61,0,0,1,.15-.43c.1-.15.22-.29.33-.43.29-.42.59-.83.88-1.24a2.9,2.9,0,0,0,.19-.34A1.37,1.37,0,0,0,99.19,57a3.71,3.71,0,0,0-.56-.56c-.3-.24-.63-.45-.94-.68a5.13,5.13,0,0,1-.58-.43,1.43,1.43,0,0,1-.49-1.5,5.35,5.35,0,0,1,.21-.68c.13-.33.28-.65.42-1a1.83,1.83,0,0,0-.11-1.77,2.37,2.37,0,0,0-1.38-1,2.69,2.69,0,0,0-1.29-.05,2.66,2.66,0,0,1-.69,0,2.62,2.62,0,0,1-1-.38c-.25-.15-.49-.32-.73-.47A3.82,3.82,0,0,0,91,48a1.75,1.75,0,0,0-1.52.2,2.33,2.33,0,0,0-.61.56,3.13,3.13,0,0,0-.59,1.61,4.05,4.05,0,0,0,.11,1.25c.08.34.14.69.22,1a1,1,0,0,1-.21.88l-.06.08c-.32.43-.63.86-.95,1.28a.45.45,0,0,1-.12.06.83.83,0,0,0-.07-.13l-4-6.28a1.42,1.42,0,0,0-.12-.13,1.21,1.21,0,0,0-.14-.1l-2-1a1,1,0,0,0-.2-.07.61.61,0,0,1-.1-.14.25.25,0,0,0-.16-.17.12.12,0,0,0-.1-.13l-.24-.06c0-.54.09-1.08.14-1.6l.55-.53c.82,0,1.18-.34,1.21-1a4.38,4.38,0,0,0,1.6-1.86,2.58,2.58,0,0,0,.2-1,2.07,2.07,0,0,0-1.59-2l-.2,0a2.19,2.19,0,0,0-1-1.38s.09-.12.14-.16.23-.14.33-.22L83,35.66l1.37-1.06.72-.53a.55.55,0,0,1,.37-.12h8.36a1.45,1.45,0,0,0,.36,0,3.16,3.16,0,0,0,1.35-.63,3,3,0,0,0,.78-1A3.18,3.18,0,0,0,96.57,31c0-1.83,0-3.67,0-5.5a3.85,3.85,0,0,0-.11-.82,2.69,2.69,0,0,0-1.09-1.61,2.45,2.45,0,0,0-1.43-.5h-13a1.37,1.37,0,0,0-.63.13,3.28,3.28,0,0,0-1.07.71,2.68,2.68,0,0,0-.76,1.9c0,1.85,0,3.71,0,5.57a3.21,3.21,0,0,0,.07.82,3.26,3.26,0,0,0,.33.87,2.62,2.62,0,0,0,.93.94,2.58,2.58,0,0,0,1.32.42l.23,0-.09.33c-.18.63-.37,1.26-.56,1.9-.09.29-.2.59-.29.88a4.39,4.39,0,0,0-1.37.44l-.52.24A2.43,2.43,0,0,1,77.3,38a1.53,1.53,0,0,1-.75-.23l-.12-.08a.25.25,0,0,0-.3,0A.25.25,0,0,0,76,38c0,.13.06.25.1.38a2.12,2.12,0,0,0,.11.21c-.17.06-.28,0-.41-.06s-.12-.07-.19-.1a.27.27,0,0,0-.41.27c0,.06,0,.12,0,.18a1.82,1.82,0,0,0,.89,1.25c.12.07.25.13.38.19-.09.15-.22.27-.2.47h0c-.07,0-.08.06-.07.12h0s0,0-.06.08a4.3,4.3,0,0,0-.25,2.89,2.65,2.65,0,0,0,1.44,1.79l.09.09-.06.7a1.13,1.13,0,0,0-.65.14H74c-.41,0-.82-.06-1.23-.07l-4.27,0h-.24c-.21-.64-.4-1.25-.62-1.85-.39-1.09-.81-2.17-1.21-3.25-.16-.44-.31-.89-.46-1.33a.2.2,0,0,0-.21-.16,7,7,0,0,1,.11-2,1.46,1.46,0,0,0-.15-1.12,2.53,2.53,0,0,1-.16-.33,4.35,4.35,0,0,1-.41-1.63.45.45,0,0,0,0-.11c0-.09-.11-.12-.2-.07a.51.51,0,0,0-.27.43,1.39,1.39,0,0,0,.06.64,3.34,3.34,0,0,1,.17.89,2,2,0,0,1,0,.24H64.5a.72.72,0,0,0-.62.29l-.18.23a1,1,0,0,0-.13.8c0,.17.09.35.15.52a1.08,1.08,0,0,0,.47.62l.17.11,0,.82c-.12.08-.28.06-.39.18a.76.76,0,0,0,0,.15c.22,1.08.43,2.17.66,3.25a27.41,27.41,0,0,0,.71,2.84,7.49,7.49,0,0,0,.43,1.11,1.65,1.65,0,0,0,.55.65,6.12,6.12,0,0,0,1.61.82,17.81,17.81,0,0,0,3.38.7c.83.1,1.66.16,2.48.24,0,.69-.07,1.37-.11,2.06-.07,1.25-.15,2.5-.21,3.75a2.35,2.35,0,0,1-.13.64c-.46,1.34-.91,2.69-1.37,4,0,.09,0,.18-.07.27a3.62,3.62,0,0,0,.9.64l.31.18c-.1,1.72-.21,3.43-.31,5.15-.34,0-.67,0-1,0L71.27,66l-3.72-6.21a1.41,1.41,0,0,0-.14-.18h-.1a1.08,1.08,0,0,0-.36,1.4,1.14,1.14,0,0,0,.1.19l3.9,6.4a3.65,3.65,0,0,0,.24.31H63.8l.09-.75c0-.25.07-.5.1-.75s.05-.5.08-.75.06-.5.1-.75.09-.5.1-.75a3.78,3.78,0,0,0,.06-.76l-.43-.05,0-.06a4.7,4.7,0,0,0,1.32-1.85.69.69,0,0,0,0-.13.15.15,0,0,0-.2-.17l-.49.22-.26.12a8.17,8.17,0,0,0,.78-1.7,15.93,15.93,0,0,0,.5-1.92,1.52,1.52,0,0,0,0-.21c0-.08,0-.16-.09-.18a.23.23,0,0,0-.16,0,.74.74,0,0,0-.13.12,17.36,17.36,0,0,0-1.46,1.75,2.29,2.29,0,0,1-.21.23c0-.14,0-.28,0-.43a13.51,13.51,0,0,0,0-1.91,2.17,2.17,0,0,0,0-.25.21.21,0,0,0-.36-.11,1.56,1.56,0,0,0-.16.2A8.87,8.87,0,0,0,62,59.39l-.18.59a1.22,1.22,0,0,1-.07-.17c0-.15-.07-.3-.12-.45A14.12,14.12,0,0,0,60.09,56a.5.5,0,0,0-.08-.12.18.18,0,0,0-.22-.07.19.19,0,0,0-.16.17,2.8,2.8,0,0,0,0,.4,20,20,0,0,0,.07,2.45,10,10,0,0,0,.35,2.1c.13.47.29.94.44,1.41l-.18-.11a3.26,3.26,0,0,0-1-.55.21.21,0,0,0-.23,0,.2.2,0,0,0,0,.23,1.51,1.51,0,0,0,.11.22,4,4,0,0,0,1.15,1.26c-.09,0-.22,0-.29.13a.56.56,0,0,0,0,.13c0,.28.08.57.11.85.06.48.11,1,.17,1.43s.13,1,.19,1.43c0,.2.05.4.07.6h-.66c.15-.26.12-.32-.16-.36h0V67l.18,0a.14.14,0,0,0,.11-.16.13.13,0,0,0-.12-.12h-.94a.73.73,0,0,0,.07-.24q0-.47,0-.93a1.09,1.09,0,0,0-.07-.24h.47c.17,0,.23-.07.24-.25a1.7,1.7,0,0,0,0-.22.2.2,0,0,0-.19-.18l-.43,0c.07-.08.16-.16.16-.27s0-.41,0-.62-.11-.25-.28-.27H52a.27.27,0,0,0-.27.28c0,.21,0,.41,0,.61a.28.28,0,0,0,.25.27l.32,0a.56.56,0,0,0,0,.63l-.8,0h-.25a.14.14,0,0,0-.12.15.15.15,0,0,0,.11.17,1,1,0,0,0,.25,0h6.2a2.8,2.8,0,0,1,.29,0,.28.28,0,0,1,.11.08H51.71l-.3,0a1.23,1.23,0,0,0,0,.51,1,1,0,0,0,.41,0h5.71l.47,0a2.09,2.09,0,0,1-.35,0H51.24a.17.17,0,0,0-.14.18.17.17,0,0,0,.15.18h.25l.65,0a.35.35,0,0,0,0,.13q0,.47,0,.93c0,.07.07.14.11.22H50.55V67.9c0-.08,0-.16,0-.25l-.09-1.9c-.06-1.1-.11-2.21-.17-3.31l0-.25.27-.09a1.78,1.78,0,0,0,.54-.17l-.22-4.06.43,0h3.29a.25.25,0,0,0,.23-.15l.06-.17c.18-.56.34-1.13.52-1.69.12-.35.21-.71.36-1,.37,0,.4,0,.48-.34a.21.21,0,0,1,.13-.16.33.33,0,0,0,.15-.27.32.32,0,0,1,.1-.26.33.33,0,0,0,.13-.28.59.59,0,0,0,0-.14.68.68,0,0,1,0-.14l.09-.07a.45.45,0,0,0,0-.71,1.08,1.08,0,0,0-.28-.16s0-.1,0-.14c.22-.71.44-1.42.67-2.14.09-.32.2-.64.29-1a.59.59,0,0,0,0-.17.29.29,0,0,0-.27-.33H52.23l-.08-.08a8.57,8.57,0,0,0-1.34-.79l-.2-.06-.28-.07-.78-.12-2.13-.27a.6.6,0,0,1-.09-.15c0-.14,0-.29-.06-.43l-.06-.46.23-.1a1.65,1.65,0,0,0,.77-.68,2.31,2.31,0,0,0,.29-.69,4,4,0,0,0,0-1.79,3,3,0,0,0-.33-1,2.84,2.84,0,0,0-.08-.42,3.73,3.73,0,0,0-.41-1.13l0-.1,0-.12a5.61,5.61,0,0,0,0-.58,1.64,1.64,0,0,0-1-1.49l-.07,0a.35.35,0,0,1-.25-.32.63.63,0,0,0-.48-.53,1.59,1.59,0,0,0-.35-.08,4.6,4.6,0,0,0-1,0,9.89,9.89,0,0,0-1.85.49,2,2,0,0,1-1,.1.74.74,0,0,0-.15,0,.7.7,0,0,0,.41.63s0,0,0,.05l-.25.25a2.59,2.59,0,0,0-.8,2,2.51,2.51,0,0,0,.45,1.35c.12.18.25.36.38.53a.73.73,0,0,0-.13,1.25,1,1,0,0,0,1,.27l.18,0c0,.06,0,.11.07.17a3.07,3.07,0,0,0,1.37,1.6,1,1,0,0,1,.17.12L44.22,47a3.41,3.41,0,0,0-.9,0c-.31,0-.62.08-.93.14a8.23,8.23,0,0,0-1.52.44,3.76,3.76,0,0,0-1.11.91,7.81,7.81,0,0,0-1,1.56,14.42,14.42,0,0,0-1.45,6.85,8.55,8.55,0,0,0,.14.86,1,1,0,0,0,.92.82,6.15,6.15,0,0,0,1.66,0l.68-.07c0,1.07-.08,2.13-.11,3.2a1.23,1.23,0,0,0,0,.27l.78.21c0,.15,0,.29,0,.43,0,.75.06,1.49.08,2.24a34.35,34.35,0,0,1-4.05.22l-.15-.19c-1.11-1.38-2.21-2.77-3.31-4.15l-1-1.26c-.07-.09-.12-.21-.27-.2h0c0-.06,0-.08-.07-.08h0l-.09-.11c-.16-.07-.32-.17-.48-.23-.39-.12-.79-.22-1.18-.33l-.08-.19c.16,0,.32-.09.48-.15a1.69,1.69,0,0,0,.95-.79.29.29,0,0,1,.26-.16l.65-.07A2.59,2.59,0,0,0,34,57a1.3,1.3,0,0,0,.74-.89,2.26,2.26,0,0,0,0-.86.85.85,0,0,0-.55-.78l-.43-.19a.78.78,0,0,1-.51-.72v-.26a4.52,4.52,0,0,0,0-1.22,3.42,3.42,0,0,0-.49-1.46,2.81,2.81,0,0,0-2.51-1.44,4.17,4.17,0,0,0-1.35.24,1,1,0,0,1-.46,0,3.09,3.09,0,0,0-.61,0A2.85,2.85,0,0,0,25.31,52v.58c0,.25,0,.51,0,.76a1.21,1.21,0,0,1-.6,1.12,5.23,5.23,0,0,0-.55.41,1.55,1.55,0,0,0-.48.79,2.7,2.7,0,0,0,0,.75,1.22,1.22,0,0,0,.75,1.11,1.92,1.92,0,0,0,1.05.19l.94-.08c.19,0,.38,0,.58,0a.74.74,0,0,1,.46.18l.65.45-.9.25a8.28,8.28,0,0,0-1.37.49,2.77,2.77,0,0,0-.43.18c-.37.22-.73.43-1.07.68a28.63,28.63,0,0,0-3.46,2.85c-.08.08-.15.19-.28.21l-.08-.13a27.69,27.69,0,0,0-2.71-4.45,3.16,3.16,0,0,0-.86-.81,4.94,4.94,0,0,0-2-.74,3.69,3.69,0,0,0-.58,0,.14.14,0,0,0-.12.15.34.34,0,0,0,.2.32,1.69,1.69,0,0,0,.34.11c.11,0,.23.06.34.11a.13.13,0,0,1,.08.1.15.15,0,0,1-.07.12l-.17.07a1.38,1.38,0,0,1-.64,0c-.32-.07-.63-.15-.94-.25a1.28,1.28,0,0,0-.82,0c-.31.11-.35.25-.11.48a3.66,3.66,0,0,0,1.15.74,5.82,5.82,0,0,0,2.51.44h.36a.48.48,0,0,1,.45.25.85.85,0,0,1,.13.25c.15.37.29.75.43,1.12.34,1,.67,1.91,1.08,2.84a7.42,7.42,0,0,0,.67,1.24,4.32,4.32,0,0,0,.45.51.54.54,0,0,0,.6.13,4.49,4.49,0,0,0,.61-.23l1.47-.77.26-.13V75.56c0,.13,0,.26,0,.4a1.33,1.33,0,0,0,.36.84,1.41,1.41,0,0,0,1,.44.37.37,0,0,1,.33.09V87a1.22,1.22,0,0,0,.09.6H18.1ZM35.19,47.45l.51-.1a2.46,2.46,0,0,0,1.62-1.06,2.57,2.57,0,0,0,.47-1.53c0-1.68,0-3.35,0-5a3.11,3.11,0,0,0-.37-1.52,2.42,2.42,0,0,0-.78-.84,2.75,2.75,0,0,0-1.57-.45H24a4.37,4.37,0,0,0-.72.06,2.6,2.6,0,0,0-1.67,1.1,2.39,2.39,0,0,0-.44,1.39v5.32a2.74,2.74,0,0,0,.08.64,2.45,2.45,0,0,0,1,1.51,2.58,2.58,0,0,0,1.53.48h7.23a1,1,0,0,1,.91.32l0,0,1.12.85,1.34,1,1.17.9a.83.83,0,0,0,.16.09.22.22,0,0,0,.16,0c.07,0,.08-.11.06-.19l-.09-.34-.72-2.38A1.86,1.86,0,0,1,35.19,47.45ZM104.33,66.7c0-.15,0-.28,0-.41V56.19c0-.11,0-.22,0-.32a.43.43,0,0,0-.85,0,1.69,1.69,0,0,0,0,.32V67a.54.54,0,0,0,.55.58,2.09,2.09,0,0,0,.25,0h12.34a1.61,1.61,0,0,0,.22,0,1.65,1.65,0,0,0,.32-.06.4.4,0,0,0,.16-.68.39.39,0,0,0-.29-.13H104.8A1.12,1.12,0,0,1,104.33,66.7Zm9.75-6.45a28.18,28.18,0,0,0,.94-2.82s0,0,0-.08c-.31.12-.6.27-.9.42l-.87.43a4.78,4.78,0,0,0-.92.48l.37.14c.12,0,.27,0,.34.21-.52.66-1.09,1.29-1.66,1.92-.42-.28-.81-.55-1.22-.81-.23-.15-.46-.3-.7-.44s-.42-.13-.63.08l-.18.18c-.91.88-1.76,1.81-2.64,2.72-.25.26-.52.51-.77.77s-.43.48-.65.72a.34.34,0,0,0,0,.46.42.42,0,0,0,.66,0,1,1,0,0,0,.18-.18l2.68-2.74.35-.36c.09-.09.17-.2.26-.3a1.59,1.59,0,0,1,.52-.48l.11,0L111,61.72l.41.24a.72.72,0,0,0,.44-.23c.21-.27.44-.53.67-.8l.79-.93a2.2,2.2,0,0,1,.31-.3.12.12,0,0,1,.21,0C113.89,59.89,114,60.05,114.08,60.25ZM12.24,65.05a3,3,0,0,0-1,.2,2,2,0,0,0-.77.44.69.69,0,0,0-.24.81.65.65,0,0,0,.59.39,1.41,1.41,0,0,0,.53-.09,2,2,0,0,1,.81-.13.63.63,0,0,1,.56.82,1.72,1.72,0,0,1-.67.92,3.42,3.42,0,0,0-.7.72.64.64,0,0,0-.08.58.49.49,0,0,0,.38.35.78.78,0,0,0,.56-.06,3,3,0,0,0,.64-.47c.27-.26.53-.53.79-.8a2.4,2.4,0,0,0,.8-1.93.22.22,0,0,1,0-.08,1.69,1.69,0,0,0-.53-1.11,1.8,1.8,0,0,0-.82-.43C12.79,65.12,12.51,65.09,12.24,65.05Zm28.08-49.7h2a1,1,0,0,0,.2-2,1.67,1.67,0,0,0-.39-.05H38.55a1.42,1.42,0,0,0-.36,0,1,1,0,0,0-.07,1.93,1.72,1.72,0,0,0,.39,0ZM74.65,26.94a1,1,0,0,0,.74-1.67,1,1,0,0,0-.22-.19l-2.91-2.21a1.09,1.09,0,0,0-.17-.13,1,1,0,0,0-1.33.24,1,1,0,0,0,.14,1.37l.23.18,2.5,1.9.44.33A1,1,0,0,0,74.65,26.94Zm-28.3-3.36a1,1,0,0,0-1-1,1.24,1.24,0,0,0-.66.27l-2.93,2.23-.14.12a1,1,0,0,0,1.23,1.57l.27-.19L45.21,25l.75-.57A1,1,0,0,0,46.35,23.58Zm-14.92.53a3.79,3.79,0,0,0-.05-.58A2.52,2.52,0,0,0,30.32,22a2.37,2.37,0,0,0-1.46-.43,2.41,2.41,0,0,0-1.62.61,2.45,2.45,0,0,0-.78,2.65,2.55,2.55,0,0,0,2.82,1.8A2.47,2.47,0,0,0,31,25.56,2.22,2.22,0,0,0,31.43,24.11Zm.28-4.05a1.45,1.45,0,1,0,2.89,0,1.45,1.45,0,0,0-2.89,0Zm68.63,2.61a1.42,1.42,0,1,0-2.83,0,1.42,1.42,0,1,0,2.83,0ZM96.07,42.49a1,1,0,0,0,.14.25.41.41,0,0,0,.49.14,2.83,2.83,0,0,1,.52-.13.48.48,0,0,1,.4.11.39.39,0,0,1,.11.51,1.54,1.54,0,0,1-.25.36c-.2.19-.4.38-.59.58a.44.44,0,0,0,0,.5.4.4,0,0,0,.53.14.78.78,0,0,0,.22-.12,5.23,5.23,0,0,0,1-.93,1.63,1.63,0,0,0,.35-1,1.06,1.06,0,0,0-.73-1,2.05,2.05,0,0,0-1.54.06A.83.83,0,0,0,96.07,42.49ZM8.69,57a1.63,1.63,0,0,0,.67-.1,1.53,1.53,0,0,0,.82-.72,1.33,1.33,0,0,0,.18-1.1,1.56,1.56,0,0,0-.81-1.18,1.58,1.58,0,0,0-1.84.14l-.31.3a1.34,1.34,0,0,0-.36,1,1.55,1.55,0,0,0,.57,1.23A1.33,1.33,0,0,0,8.69,57Zm3.25,15.57a1,1,0,0,0,1-1,1,1,0,0,0-2.05,0A1,1,0,0,0,11.94,72.61ZM97.39,20.14a2,2,0,0,0,.35-.06.92.92,0,0,0,.48-1.14,1.05,1.05,0,0,0-.53-.55.85.85,0,0,0-1,.19.8.8,0,0,0-.28.74A.89.89,0,0,0,97.39,20.14ZM98,46a.68.68,0,0,0-.72-.64.67.67,0,0,0-.66.66A.69.69,0,1,0,98,46Z"/><path class="cls-3" d="M52.27,30.09a13.94,13.94,0,0,0-.76-3.67,15.19,15.19,0,0,0-2.32-4.28A11.79,11.79,0,0,1,47,17.65a11.65,11.65,0,0,1-.3-3.63,12,12,0,0,1,.86-3.68.65.65,0,0,0,0-.13c.06-.11.11-.22.17-.32A11.84,11.84,0,0,1,53.57,4.1a11.24,11.24,0,0,1,3.21-1A12.46,12.46,0,0,1,59.3,3,11.47,11.47,0,0,1,64,4.34a11.69,11.69,0,0,1,6.13,8.09,10.46,10.46,0,0,1,.26,2.62,11.87,11.87,0,0,1-1.88,6.22l-.18.3a15.87,15.87,0,0,0-3,5.43,14.57,14.57,0,0,0-.58,3.08,3,3,0,0,0-1.4-.27c-.81,0-1.63,0-2.45,0l-.39,0c0-.12.11-.24.15-.36.79-2.34,1.51-4.71,2.13-7.1A42.5,42.5,0,0,0,64.1,16.1a11.22,11.22,0,0,0,0-2.09,3,3,0,0,0-.29-1.15,1.29,1.29,0,0,0-.69-.67A3.09,3.09,0,0,0,61.76,12a3.59,3.59,0,0,0-1.38.4A5,5,0,0,0,59,13.53a.82.82,0,0,1-.27.25l-.16-.2a6.57,6.57,0,0,0-1-1.08,3.45,3.45,0,0,0-.94-.61,2.12,2.12,0,0,0-2.19.25,2.83,2.83,0,0,0-1,1.38,5.78,5.78,0,0,0-.36,1.84,13.83,13.83,0,0,0,.08,2.49,29,29,0,0,0,.68,3.7,63.3,63.3,0,0,0,2.49,7.89,2.83,2.83,0,0,0,.16.36l-.4,0H53.42a2.19,2.19,0,0,0-1,.22Z"/><path class="cls-4" d="M99.18,87.59h.4c1.14,0,2.28,0,3.42,0a.74.74,0,0,1,.66.29,2.13,2.13,0,0,1,0,.25.48.48,0,0,1-.41.48.75.75,0,0,1-.21,0c-.11,0-.22,0-.33,0h-85a3.63,3.63,0,0,1-.57,0,.46.46,0,0,1-.38-.43.48.48,0,0,1,.24-.49.79.79,0,0,1,.31-.08c.1,0,.21,0,.32,0h6.71a2.72,2.72,0,0,0,.35.16.69.69,0,0,0,.57-.16h.36c.72,0,1.44,0,2.15,0h.54a.69.69,0,0,0,.57.16c.12,0,.23-.11.35-.16h4.28a.65.65,0,0,0,.88,0h3a1.89,1.89,0,0,0,.36.16.68.68,0,0,0,.56-.16l.78,0,.08.33c.26,0,.26,0,.33-.14a6.92,6.92,0,0,0,1.51-.06s0,.05.06.08c.06.26.25.32.48.37a6.52,6.52,0,0,0,1.82.13,3.58,3.58,0,0,0,.45-.09.28.28,0,0,0,.11-.08c0-.14-.07-.23-.12-.34H45.4a.2.2,0,0,0,.2-.2h.29c0,.06,0,.12.11.13h5.91c.1,0,.14-.08.16-.17l.28,0H56s0,.08.07.13a.59.59,0,0,0,1,.06l.15-.2h9.63l.21.25a.58.58,0,0,0,.93,0,.84.84,0,0,0,.09-.19h3s.06.11.11.13a.72.72,0,0,0,.21,0h2.14c.08.13.21.09.33.09h4.46a1,1,0,0,0,.25,0s.08,0,.12-.07h1.33c.08.13.21.08.33.08h4.75l0-.15a.72.72,0,0,0,.84-.07h.35c.63,0,1.25,0,1.87,0h.82a1.36,1.36,0,0,0,.39.17.85.85,0,0,0,.54-.17h4.28l.09.06a.62.62,0,0,0,.7,0l.13-.07h3a.68.68,0,0,0,.53.17A.88.88,0,0,0,99.18,87.59Z"/><path class="cls-5" d="M76.74,15.35H74.93a1.42,1.42,0,0,1-.36,0,1,1,0,0,1,0-1.94,1.87,1.87,0,0,1,.32,0h3.73a1.34,1.34,0,0,1,.35.05,1,1,0,0,1,.73,1.07,1,1,0,0,1-.94.88c-.67,0-1.35,0-2,0Z"/><path class="cls-5" d="M70.56,6.34a.94.94,0,0,1,.32-.73,1.56,1.56,0,0,1,.2-.16L73.9,3.31l.23-.17a1,1,0,0,1,1.2,1.59l-.22.18L72.32,7a2.07,2.07,0,0,1-.24.17,1,1,0,0,1-1,0A.93.93,0,0,1,70.56,6.34Z"/><path class="cls-5" d="M46.35,6.36a1,1,0,0,1-1.5.85A1.65,1.65,0,0,1,44.58,7l-2.76-2.1a1.74,1.74,0,0,1-.22-.18,1,1,0,0,1-.14-1.34,1,1,0,0,1,1.33-.26l.15.11,3,2.25A1,1,0,0,1,46.35,6.36Z"/><path class="cls-6" d="M16.87,34.31A1.48,1.48,0,0,1,18,34.7a1.51,1.51,0,0,1,.54.79,1.86,1.86,0,0,1-.21,1.59,1.41,1.41,0,0,1-.59.52,1.67,1.67,0,0,1-.92.26,1.81,1.81,0,0,1-1.53-.92,1.69,1.69,0,0,1-.22-.83A1.73,1.73,0,0,1,15.38,35a1.52,1.52,0,0,1,1.33-.72Z"/><path class="cls-6" d="M101.06,15.65a1.13,1.13,0,0,1,.24-.76.48.48,0,0,1,.19-.21,1.38,1.38,0,0,1,1.23-.25,1.16,1.16,0,0,1,1,1.2.54.54,0,0,0,0,.18,1.19,1.19,0,0,1-.88,1.17,1.42,1.42,0,0,1-1.17-.15,1.11,1.11,0,0,1-.56-1Z"/><path class="cls-6" d="M108.23,45a1.7,1.7,0,0,1-.93,1.6,1.39,1.39,0,0,1-.75.21,1.93,1.93,0,0,1-1-.16,1.82,1.82,0,0,1-1-1.24,1.69,1.69,0,0,1,.25-1.45,1.86,1.86,0,0,1,3-.17,1.55,1.55,0,0,1,.39,1Zm-.51,0a1.3,1.3,0,0,0-1.31-1.34A1.39,1.39,0,0,0,105.05,45a1.34,1.34,0,1,0,2.67,0Z"/><path class="cls-6" d="M109.14,49.08A1.07,1.07,0,0,1,108,48a1.13,1.13,0,0,1,1.14-1.17A1.1,1.1,0,0,1,110.25,48,1,1,0,0,1,109.14,49.08Z"/><path class="cls-7" d="M68.12,87.6a.84.84,0,0,1-.09.19.58.58,0,0,1-.93,0l-.21-.25-.65-1L64.5,83.9l-2.31-3.54-.13-.14-.4.63c-.4.6-.79,1.21-1.18,1.81L58.1,86.29l-.84,1.3-.15.2a.59.59,0,0,1-1-.06s-.05-.09-.07-.13a.8.8,0,0,1,.16-.54l.45-.7c.4-.6.79-1.21,1.19-1.82l2.39-3.65c.33-.52.66-1,1-1.54a.36.36,0,0,0,0-.47l-.06-.09c-.53-.8-1.05-1.61-1.57-2.42l-2.38-3.63c-.34-.52-.67-1-1-1.57-.15-.24-.32-.48-.49-.73H39.82l-.31-.3a1.15,1.15,0,0,0-.8-.36h-.18c0-.08-.05-.16-.07-.25a1.05,1.05,0,0,1,.15-.86,1.48,1.48,0,0,1,.34-.32A2.09,2.09,0,0,1,40.1,68l1.48,0H79.81c.63,0,1.26,0,1.89,0h.44c.65,0,1.3,0,2,0a2,2,0,0,1,1.39.59.92.92,0,0,1,0,1.26,1.93,1.93,0,0,0-.22.28l-.51.17-.58.16H68.72a.55.55,0,0,0-.18,0,.37.37,0,0,0-.17.1c-.08.1-.13.21-.2.31-.7,1.09-1.41,2.18-2.12,3.27s-1.49,2.27-2.24,3.41l-.87,1.32a.38.38,0,0,0,0,.5c.31.44.59.9.89,1.36C64.56,81.85,65.3,83,66,84.1c.63,1,1.26,1.94,1.9,2.9A.82.82,0,0,1,68.12,87.6ZM67,70.48a1.43,1.43,0,0,0-.44,0H57.38c-.06,0-.12,0-.17.08l.13.23c.3.48.61.95.92,1.43l1.5,2.29.54.81c.55.84,1.09,1.68,1.63,2.52,0,0,.1.09.16.15l.17-.21,1-1.52,2.52-3.83,1.08-1.66C66.88,70.67,66.91,70.59,67,70.48Z"/><path class="cls-1" d="M80.41,37.09c.09-.29.2-.59.29-.88.19-.64.38-1.27.56-1.9l.09-.33-.23,0a2.58,2.58,0,0,1-1.32-.42,2.62,2.62,0,0,1-.93-.94,3.26,3.26,0,0,1-.33-.87,3.21,3.21,0,0,1-.07-.82c0-1.86,0-3.72,0-5.57a2.68,2.68,0,0,1,.76-1.9,3.28,3.28,0,0,1,1.07-.71,1.37,1.37,0,0,1,.63-.13h13a2.45,2.45,0,0,1,1.43.5,2.69,2.69,0,0,1,1.09,1.61,3.85,3.85,0,0,1,.11.82c0,1.83,0,3.67,0,5.5a3.18,3.18,0,0,1-.25,1.26,3,3,0,0,1-.78,1,3.16,3.16,0,0,1-1.35.63,1.45,1.45,0,0,1-.36,0H85.47a.55.55,0,0,0-.37.12l-.72.53L83,35.66l-1.54,1.19c-.1.08-.22.14-.33.22s-.09.11-.14.16l-.36-.11a.2.2,0,0,0-.23,0Zm7-9.65h6.37a1,1,0,0,0,.94-.67,1.89,1.89,0,0,0,.07-.71A1.07,1.07,0,0,0,93.92,25a2.47,2.47,0,0,0-.6-.08c-4,0-7.91,0-11.87,0a4.18,4.18,0,0,0-.71.09,1.26,1.26,0,0,0-.73.7s0,.07,0,.11c0,.26,0,.53,0,.79a.36.36,0,0,0,0,.18,1.14,1.14,0,0,0,.8.66,1.82,1.82,0,0,0,.33,0Zm-2.86,3.83h3a1.42,1.42,0,0,0,.36,0,1.25,1.25,0,0,0,.85-1.6,1.31,1.31,0,0,0-.9-.83,2.46,2.46,0,0,0-.6-.07H82.12a4.74,4.74,0,0,0-.75.06,1.22,1.22,0,0,0-1,1.15,1.13,1.13,0,0,0,.34.92,1.25,1.25,0,0,0,1,.41C82.64,31.26,83.58,31.27,84.52,31.27Z"/><path class="cls-8" d="M30.83,58.55c.39.11.79.21,1.18.33.16.06.32.16.48.23a.1.1,0,0,0,.09.11h0s0,.08.07.08h0a.26.26,0,0,0,.05.12,6.28,6.28,0,0,1,.58,1,19.9,19.9,0,0,1,.78,1.9,1.73,1.73,0,0,1,.1.45,5.06,5.06,0,0,1,0,1.29c-.06.38-.13.76-.19,1.14l0,.06c-.1.42-.2.84-.29,1.27a2.07,2.07,0,0,0,0,.5c0,.67.1,1.34.15,2a1.6,1.6,0,0,0,.05.21l2.76.44,1.17.2-.19.09c-.21.06-.42.1-.63.17a10.18,10.18,0,0,0-4.78,3.33,5.5,5.5,0,0,0-.8,1.28.05.05,0,0,0,0,0l-.22,0H27.38l-.23-.08a1,1,0,0,1-.17-.13c-.1-.12-.2-.23-.29-.36a2.56,2.56,0,0,1-.52-2.27c.14-.55.28-1.1.43-1.65.09-.36.22-.71.29-1.08a14.59,14.59,0,0,0,.35-2.79A4.63,4.63,0,0,0,27,64.64c-.33-.86-.65-1.72-1-2.58l.4-.29a2.3,2.3,0,0,0,.75-.86,1.48,1.48,0,0,0-.32-1.69,1.11,1.11,0,0,0-.64-.29h-.36a8.28,8.28,0,0,1,1.37-.49l.9-.25.56-.06a5.34,5.34,0,0,0,.58,1.08,2.26,2.26,0,0,0,.53.54,1,1,0,0,0,.64.22.33.33,0,0,0,.38-.27,1.21,1.21,0,0,0,.06-.38C30.85,59.05,30.83,58.8,30.83,58.55Z"/><path class="cls-1" d="M35.19,47.45a1.86,1.86,0,0,0,0,.26l.72,2.38.09.34c0,.08,0,.16-.06.19a.22.22,0,0,1-.16,0,.83.83,0,0,1-.16-.09l-1.17-.9-1.34-1L32,47.75l0,0a1,1,0,0,0-.91-.32H23.85a2.58,2.58,0,0,1-1.53-.48,2.45,2.45,0,0,1-1-1.51,2.74,2.74,0,0,1-.08-.64V39.47a2.39,2.39,0,0,1,.44-1.39A2.6,2.6,0,0,1,23.32,37a4.37,4.37,0,0,1,.72-.06h11a2.75,2.75,0,0,1,1.57.45,2.42,2.42,0,0,1,.78.84,3.11,3.11,0,0,1,.37,1.52c0,1.68,0,3.35,0,5a2.57,2.57,0,0,1-.47,1.53,2.46,2.46,0,0,1-1.62,1.06Zm-5.47-4.67H24a.77.77,0,0,0-.57.25l-.18.18a1,1,0,0,0-.32,1,1.27,1.27,0,0,0,1,1.09,2.42,2.42,0,0,0,.54.06H34.89a.81.81,0,0,0,.22,0,3.1,3.1,0,0,0,.62-.13,1.1,1.1,0,0,0,.61-.59,1.2,1.2,0,0,0-.41-1.6,1.1,1.1,0,0,0-.71-.21Zm0-1.37h5.46a1.17,1.17,0,0,0,1-.44,1.2,1.2,0,0,0,0-1.69,1.27,1.27,0,0,0-1-.41c-3.59,0-7.19,0-10.78,0a1.5,1.5,0,0,0-.69.17A1.24,1.24,0,0,0,23,40.11a.84.84,0,0,0,.05.31,1.51,1.51,0,0,0,.15.37,1.15,1.15,0,0,0,.68.56,1.42,1.42,0,0,0,.46.06Z"/><path class="cls-9" d="M95.25,87.59l-.13.07a.62.62,0,0,1-.7,0l-.09-.06a1.27,1.27,0,0,1-.14-.66q0-4.64,0-9.25c0-.15,0-.29,0-.43a.32.32,0,0,0-.43,0h-2.9a.52.52,0,0,0-.5,0h-.14c0-.12-.12-.14-.2-.19a1.31,1.31,0,0,1-.48-1.78.7.7,0,0,1,.21-.24h.11c1.09-.05,2.17-.11,3.25-.14.77,0,1.55,0,2.32,0a1.51,1.51,0,0,0,1-.27H97c.28,0,.56,0,.83,0s.49-.15.46-.45a2.08,2.08,0,0,1,0-.25V62.62a2.09,2.09,0,0,1,.08-.61,1.2,1.2,0,0,1,1.16-.91h.36A1.25,1.25,0,0,1,101,62.23,6.3,6.3,0,0,1,101,63c0,4.17,0,8.33,0,12.49a4.74,4.74,0,0,1-.05.65,1.33,1.33,0,0,1-1.27,1.12l-.33,0,0,0a.9.9,0,0,0,0,.18c0,.1,0,.2,0,.29,0,3.07,0,6.13,0,9.2a1,1,0,0,1-.14.62.88.88,0,0,1-.35.17.68.68,0,0,1-.53-.17,1,1,0,0,1-.13-.59V77.63c0-.11,0-.23,0-.36l-.16,0H95.53a.9.9,0,0,0-.19.05V87A1.35,1.35,0,0,1,95.25,87.59Z"/><path class="cls-9" d="M27,74.56a1,1,0,0,0,.17.13l.23.08h3.67l.22,0,.35,0H33.2l.46,0,.07,0a1.71,1.71,0,0,1,.11.14,1.26,1.26,0,0,1,.4,1,1.05,1.05,0,0,1-.33.77l-.54.48h-.14a.36.36,0,0,0-.44,0H29.9a.47.47,0,0,0-.46,0s0,0,0,.05v.47c0,3.07,0,6.15,0,9.23a1.37,1.37,0,0,1-.1.63c-.12,0-.23.12-.35.16a.69.69,0,0,1-.57-.16,1.38,1.38,0,0,1-.14-.66q0-4.47,0-8.93c0-.17,0-.34,0-.51a1.8,1.8,0,0,0,0-.22l-.15,0H25.61a.9.9,0,0,0-.19.05v10a.48.48,0,0,1-.66.5,2.72,2.72,0,0,1-.35-.16,1.22,1.22,0,0,1-.09-.6V77.33a.37.37,0,0,0-.33-.09,1.41,1.41,0,0,1-1-.44,1.33,1.33,0,0,1-.36-.84c0-.14,0-.27,0-.4V64.27l1.57-1,1-.66a.48.48,0,0,1,.08.16c0,.1,0,.21,0,.32V73.87c0,.11,0,.22,0,.33a.36.36,0,0,0,.37.36H27Z"/><path class="cls-10" d="M87.31,55a.45.45,0,0,0,.12-.06c.32-.42.63-.85.95-1.28l.06-.08a1,1,0,0,0,.21-.88c-.08-.34-.14-.69-.22-1a4.05,4.05,0,0,1-.11-1.25,3.13,3.13,0,0,1,.59-1.61,2.33,2.33,0,0,1,.61-.56A1.75,1.75,0,0,1,91,48a3.82,3.82,0,0,1,1,.48c.24.15.48.32.73.47a2.62,2.62,0,0,0,1,.38,2.66,2.66,0,0,0,.69,0,2.69,2.69,0,0,1,1.29.05,2.37,2.37,0,0,1,1.38,1,1.83,1.83,0,0,1,.11,1.77c-.14.31-.29.63-.42,1a5.35,5.35,0,0,0-.21.68,1.43,1.43,0,0,0,.49,1.5,5.13,5.13,0,0,0,.58.43c.31.23.64.44.94.68a3.71,3.71,0,0,1,.56.56,1.37,1.37,0,0,1,.15,1.59,2.9,2.9,0,0,1-.19.34c-.29.41-.59.82-.88,1.24-.11.14-.23.28-.33.43a.61.61,0,0,0-.15.43,1.08,1.08,0,0,0,.12.59A1.25,1.25,0,0,1,97.62,63a2,2,0,0,1-1.1.57,3,3,0,0,1-1.08,0s0-.1,0-.14c0-.75.06-1.49.09-2.23,0-.32,0-.64,0-1l0-.17a2.43,2.43,0,0,0,.07-.89,1.48,1.48,0,0,0-.54-1l-.27-.23a3.18,3.18,0,0,0-1.21-1,1.62,1.62,0,0,1,0-.22c.06-.3.14-.61.19-.92a1.4,1.4,0,0,1,.41-.83,1.37,1.37,0,0,0,.28,0,.77.77,0,0,0,.56-.64.49.49,0,0,0-.47-.59h-.18a.45.45,0,0,1-.34-.1,5.88,5.88,0,0,1-1-.78,3.69,3.69,0,0,1-.82-1.17l-.08-.13a2.14,2.14,0,0,1-1,.46l-1.07.17a3.79,3.79,0,0,0-.3,1.33,3.16,3.16,0,0,0,.54,1.95,2.08,2.08,0,0,0,1.15.82l.25.08a2.54,2.54,0,0,1-.23.92.65.65,0,0,0-.51.18,1.48,1.48,0,0,0-1,.19c-.18.1-.35.23-.53.34a.18.18,0,0,0-.13-.15c-.19-.08-.37-.17-.56-.24a3.33,3.33,0,0,1-1.26-.86,1.29,1.29,0,0,1-.37-1.24l.09-.35A1,1,0,0,0,87.31,55Z"/><path class="cls-8" d="M60.59,29.8l.39,0c.82,0,1.64,0,2.45,0a3,3,0,0,1,1.4.27,3.37,3.37,0,0,1,.38.28,2.22,2.22,0,0,1,.75,1.8,2.18,2.18,0,0,1-.79,1.68,2.45,2.45,0,0,1-.72.41c-.09,0-.17.08-.26.12l-.31,0h-11c-.14,0-.28-.08-.41-.14a2.31,2.31,0,0,1-.23-4.09l.14-.05a2.19,2.19,0,0,1,1-.22h2.67l.4,0h4.1Z"/><path class="cls-7" d="M52.23,48.49h5.05a.29.29,0,0,1,.27.33.59.59,0,0,1,0,.17c-.09.32-.2.64-.29,1-.23.72-.45,1.43-.67,2.14,0,0,0,.09,0,.14-.34.07-.36.1-.44.52-.13.08-.28.19-.26.38s-.23.25-.22.43a1.62,1.62,0,0,0,0,.22c0,.08,0,.16.07.23-.23.33-.23.44,0,.72l0,0c-.15.34-.24.7-.36,1-.18.56-.34,1.13-.52,1.69l-.06.17a.25.25,0,0,1-.23.15H51.29l-.43,0c-.12,0-.23,0-.35,0H47.86c.21-.67.43-1.34.64-2,.08-.26.17-.52.25-.78l.44-.06.78-.1a2.61,2.61,0,0,0,1.35-.71,1.72,1.72,0,0,0,.25-.35c.07-.13,0-.2-.09-.27a.36.36,0,0,1-.23-.29.23.23,0,0,0,0-.11c-.07-.22-.18-.29-.43-.3a1.19,1.19,0,0,0-.55.12,1.67,1.67,0,0,1-.71.24H49.4v0h0c0-.12,0-.24.05-.35q.33-1.17.69-2.31L50.62,49a1,1,0,0,0,0-.1c0-.16,0-.24-.18-.29l-.17-.06.15,0Z"/><path class="cls-10" d="M80.74,47.21a1,1,0,0,1,.2.07l2,1a1.21,1.21,0,0,1,.14.1.37.37,0,0,1,0,.11c-.15.58-.25,1.16-.36,1.75s-.23,1.07-.34,1.61c-.08.38-.14.76-.21,1.13a4.27,4.27,0,0,1,.41.6.75.75,0,0,0-.06.13l-.09.82c0,.54-.1,1.08-.17,1.62a3.79,3.79,0,0,0,0,1.5c0,.05,0,.1,0,.15.13.88.27,1.76.4,2.64L83,62.09a3.16,3.16,0,0,1-1,.43,1.36,1.36,0,0,0,0,.17c0,.72,0,1.45-.08,2.17a2.49,2.49,0,0,1-.28.15l-.89.35-.52.23a.72.72,0,0,1-.46,0l-.17,0a5,5,0,0,0-1.21-.16,1.89,1.89,0,0,0-1.65.94l-.14.21s0,0,0,0c-.06-.33-.12-.66-.16-1s0-.55-.09-.82c-.06-.44-.14-.89-.2-1.34s-.1-.75-.15-1.13h.18c.6.11,1.22.13,1.83.18l.23,0c0-.1,0-.19.07-.28.06-.35.11-.69.17-1,.21-1.28.42-2.55.64-3.82.07-.4.15-.8.22-1.21a.12.12,0,0,0,0-.16s0,0,0,0a1.92,1.92,0,0,0,.18-.31c.35-.85.69-1.71,1-2.57.44-1.11.88-2.23,1.33-3.35a.43.43,0,0,0,0-.4L81.17,48c-.1-.18-.22-.36-.33-.55Z"/><path class="cls-11" d="M40.68,58.52l-.68.07a6.15,6.15,0,0,1-1.66,0,1,1,0,0,1-.92-.82,8.55,8.55,0,0,1-.14-.86A14.42,14.42,0,0,1,38.73,50a7.81,7.81,0,0,1,1-1.56,3.76,3.76,0,0,1,1.11-.91,2.08,2.08,0,0,1,.22.38c.09.26.18.52.25.79a12.89,12.89,0,0,1,.27,2.32c.06.78-.06,1.56-.07,2.35a.34.34,0,0,1,0,.1c0,.24,0,.48-.05.72,0,.07,0,.13,0,.21a4.36,4.36,0,0,0,.81-.06c.84-.12,1.68-.3,2.51-.5.65-.15,1.3-.33,1.95-.5a.36.36,0,0,1,.45.13c.06.19.11.39.17.58a4.82,4.82,0,0,1,.11.93c0,.19,0,.38-.21.51s-.54.41-.81.6a14,14,0,0,1-2.85,1.54A15.28,15.28,0,0,1,40.68,58.52Z"/><path class="cls-12" d="M47.24,53.51a.36.36,0,0,0-.45-.13c-.65.17-1.3.35-1.95.5-.83.2-1.67.38-2.51.5a4.36,4.36,0,0,1-.81.06c0-.08-.05-.14,0-.21,0-.24,0-.48.05-.72a.34.34,0,0,0,0-.1c0-.79.13-1.57.07-2.35a12.89,12.89,0,0,0-.27-2.32c-.07-.27-.16-.53-.25-.79a2.08,2.08,0,0,0-.22-.38,8.23,8.23,0,0,1,1.52-.44c.31-.06.62-.11.93-.14a3.41,3.41,0,0,1,.9,0,.69.69,0,0,0,.13.11c.19.08.37.17.56.24a3.86,3.86,0,0,0,1.26.24,1.44,1.44,0,0,0,1-.39,1.59,1.59,0,0,1,.21-.15l2.13.28.78.12.28.07a2,2,0,0,1-.06.42,3.86,3.86,0,0,0-.09.51l-.15,0a.22.22,0,0,0-.18.15,1.7,1.7,0,0,0-.09.24l-.45,1.47c-.2.63-.4,1.26-.59,1.89a1.05,1.05,0,0,0-1,.59,1,1,0,0,1-.51.52A.92.92,0,0,0,47.24,53.51Z"/><path class="cls-10" d="M28.65,58.12l-.56.06-.65-.45a.74.74,0,0,0-.46-.18c-.2,0-.39,0-.58,0l-.94.08a1.92,1.92,0,0,1-1.05-.19,1.22,1.22,0,0,1-.75-1.11,2.7,2.7,0,0,1,0-.75,1.55,1.55,0,0,1,.48-.79,5.23,5.23,0,0,1,.55-.41,1.21,1.21,0,0,0,.6-1.12c0-.25,0-.51,0-.76V52A2.85,2.85,0,0,1,27.8,49.4a3.09,3.09,0,0,1,.61,0,1,1,0,0,0,.46,0,4.17,4.17,0,0,1,1.35-.24,2.81,2.81,0,0,1,2.51,1.44,3.42,3.42,0,0,1,.49,1.46,4.52,4.52,0,0,1,0,1.22v.26a.78.78,0,0,0,.51.72l.43.19a.85.85,0,0,1,.55.78,2.26,2.26,0,0,1,0,.86A1.3,1.3,0,0,1,34,57a2.59,2.59,0,0,1-.87.22l-.65.07a.29.29,0,0,0-.26.16,1.69,1.69,0,0,1-.95.79c-.16.06-.32.1-.48.15-.06-.18-.14-.36-.19-.54a2,2,0,0,1-.14-.59l.1,0A2.47,2.47,0,0,0,32,55.72a3.63,3.63,0,0,0,.28-2c0-.14,0-.28,0-.43a.23.23,0,0,0-.05-.22c-.13-.3-.24-.6-.37-.89a2.75,2.75,0,0,0-.54-.77A4.65,4.65,0,0,1,31,52a3.34,3.34,0,0,1-.45.47c-.3.25-.62.49-.93.73-.08.07-.18.12-.26.19s0,.06,0,.09h0s-.07,0-.09,0l-.29.15a6.37,6.37,0,0,1-2,.76.56.56,0,0,0-.46.73.9.9,0,0,0,.62.65,3.21,3.21,0,0,0,.36.08,3.87,3.87,0,0,0,1,1,.27.27,0,0,1,.12.24Z"/><path class="cls-12" d="M40.68,58.52a15.28,15.28,0,0,0,3-.85,14,14,0,0,0,2.85-1.54c.27-.19.53-.41.81-.6s.18-.32.21-.51l.34-.08.34-.07c-.25.82-.51,1.64-.76,2.46-.12.4,0,.52.42.5h2.65c.12,0,.23,0,.35,0,.08,1.35.15,2.7.22,4.06a1.78,1.78,0,0,1-.54.17l-.27.09-.22,0-1.63.28-1.22.17-1.88,0c0-.07,0-.14,0-.21l1.07-3.29a1.81,1.81,0,0,0,.09-.31.43.43,0,0,0-.3-.48.42.42,0,0,0-.52.19,1.53,1.53,0,0,0-.11.27c-.21.67-.43,1.33-.65,2s-.39,1.19-.59,1.78c-.39,0-.79-.07-1.18-.13l-1.81-.31L40.59,62a1.23,1.23,0,0,1,0-.27C40.6,60.65,40.64,59.59,40.68,58.52Z"/><path class="cls-13" d="M73.75,50.11c-.82-.08-1.65-.14-2.48-.24a17.81,17.81,0,0,1-3.38-.7,6.12,6.12,0,0,1-1.61-.82,1.65,1.65,0,0,1-.55-.65,7.49,7.49,0,0,1-.43-1.11,27.41,27.41,0,0,1-.71-2.84c-.23-1.08-.44-2.17-.66-3.25a.76.76,0,0,1,0-.15c.11-.12.27-.1.39-.18a10.07,10.07,0,0,1,1.43-.29A.2.2,0,0,1,66,40c.15.44.3.89.46,1.33.4,1.08.82,2.16,1.21,3.25.22.6.41,1.21.62,1.85h.24l4.27,0c.41,0,.82,0,1.23.07a.51.51,0,0,0-.07.31v.8a.71.71,0,0,1,0,.25,1.87,1.87,0,0,0,0,.53,4,4,0,0,1-.06,1,.68.68,0,0,0,0,.25C73.76,49.82,73.76,50,73.75,50.11Z"/><path class="cls-14" d="M25.18,62.61l-1,.66-1.57,1-.26.13-1.47.77a4.49,4.49,0,0,1-.61.23.54.54,0,0,1-.6-.13,4.32,4.32,0,0,1-.45-.51,7.42,7.42,0,0,1-.67-1.24c-.41-.93-.74-1.89-1.08-2.84-.14-.37-.28-.75-.43-1.12a.85.85,0,0,0-.13-.25.48.48,0,0,0-.45-.25h-.36a5.82,5.82,0,0,1-2.51-.44,3.66,3.66,0,0,1-1.15-.74c-.24-.23-.2-.37.11-.48a1.28,1.28,0,0,1,.82,0c.31.1.62.18.94.25a1.38,1.38,0,0,0,.64,0l.17-.07a.15.15,0,0,0,.07-.12.13.13,0,0,0-.08-.1c-.11,0-.23-.07-.34-.11a1.69,1.69,0,0,1-.34-.11.34.34,0,0,1-.2-.32.14.14,0,0,1,.12-.15,3.69,3.69,0,0,1,.58,0,4.94,4.94,0,0,1,2,.74,3.16,3.16,0,0,1,.86.81,27.69,27.69,0,0,1,2.71,4.45l.08.13c.13,0,.2-.13.28-.21a28.63,28.63,0,0,1,3.46-2.85c.34-.25.7-.46,1.07-.68a2.77,2.77,0,0,1,.43-.18h.36a1.11,1.11,0,0,1,.64.29,1.48,1.48,0,0,1,.32,1.69,2.3,2.3,0,0,1-.75.86l-.4.29Z"/><path class="cls-10" d="M73.75,50.11c0-.14,0-.29,0-.43a.68.68,0,0,1,0-.25,4,4,0,0,0,.06-1,1.87,1.87,0,0,1,0-.53.71.71,0,0,0,0-.25v-.8a.51.51,0,0,1,.07-.31h2.59l-.28.38a.31.31,0,0,0-.05.12l-.63.75c-.16.2-.32.42-.49.62a.74.74,0,0,0-.16.74,2.33,2.33,0,0,1,.05.28c.21,1,.43,2,.63,3l.6,3.07s.06.08.08.11v.23c0,.17,0,.34,0,.5l-1,4.76c-.06.32-.11.64-.16.95s-.3.15-.45.11a8.51,8.51,0,0,1-1.41-.43,1.6,1.6,0,0,0-.21,0l-.31-.18a3.62,3.62,0,0,1-.9-.64c0-.09,0-.18.07-.27.46-1.34.91-2.69,1.37-4a2.35,2.35,0,0,0,.13-.64c.06-1.25.14-2.5.21-3.75C73.68,51.48,73.71,50.8,73.75,50.11Z"/><path class="cls-14" d="M77.38,46.41l.06-.7-.09-.09a2.65,2.65,0,0,1-1.44-1.79,4.3,4.3,0,0,1,.25-2.89s0,0,.06-.08.06.17.16.18h0a.38.38,0,0,1,.57,0,.07.07,0,0,0,.06,0,.3.3,0,0,0,.11-.07.17.17,0,0,0,0-.14.52.52,0,0,0-.56-.24l-.3.1c0-.2.11-.32.2-.47a3,3,0,0,0,2.28-.19c.14-.06.28-.14.43-.19a3.07,3.07,0,0,1,.52-.14,1,1,0,0,1,.69.12c0,.3-.08.61.13.87l.36-.06c.08,0,.17,0,.22.08a3.32,3.32,0,0,0-.15,2.3l.31,0a.66.66,0,0,1,.75.52c0,.66-.39,1-1.21,1l-.55.53c0,.52-.14,1.06-.14,1.6l-.06.4q-.8.54-1.59,1a.34.34,0,0,1-.12-.06l-1-1Zm.92-2.19c0-.14-.16-.11-.25-.11A6.24,6.24,0,0,1,76.62,44a.09.09,0,0,0-.07,0s-.09,0-.09,0a.59.59,0,0,0,0,.14l0,0a1.12,1.12,0,0,0,1.46.39A.79.79,0,0,0,78.3,44.22ZM79,41.61c-.13,0-.2,0-.21.13a.13.13,0,0,0,.11.16.53.53,0,0,1,.43.38.16.16,0,0,0,.2.12.18.18,0,0,0,.09-.24,1.9,1.9,0,0,0-.2-.34A.53.53,0,0,0,79,41.61Zm-.32,1.11a.34.34,0,0,0,.32-.33.36.36,0,0,0-.33-.32.33.33,0,0,0-.31.33A.32.32,0,0,0,78.65,42.72Zm-2.11-.88a.3.3,0,0,0,.28-.3.27.27,0,0,0-.3-.28.28.28,0,0,0-.28.3A.29.29,0,0,0,76.54,41.84Zm5,1.79a.13.13,0,0,0-.1-.18.81.81,0,0,0-.31,0,.45.45,0,0,0-.3.62c0,.11.12.16.18.13s0-.12,0-.19c0-.22,0-.33.25-.37Z"/><path class="cls-13" d="M82.6,53.62a4.27,4.27,0,0,0-.41-.6c.07-.37.13-.75.21-1.13.11-.54.23-1.08.34-1.61s.21-1.17.36-1.75a.37.37,0,0,0,0-.11,1.42,1.42,0,0,1,.12.13l4,6.28a.83.83,0,0,1,.07.13,1,1,0,0,1,0,.17l-.09.35a1.29,1.29,0,0,0,.37,1.24,3.33,3.33,0,0,0,1.26.86c.19.07.37.16.56.24a.18.18,0,0,1,.13.15,10.66,10.66,0,0,0-1.22,1.38l-.21.25c-.5-.22-1-.45-1.49-.66a1.23,1.23,0,0,1-.6-.48C84.89,56.84,83.75,55.24,82.6,53.62Z"/><path class="cls-8" d="M64,35.18a2.7,2.7,0,0,1-.46.93,5.16,5.16,0,0,1-2.14,1.73,6.85,6.85,0,0,1-3.6.55,6.67,6.67,0,0,1-2.32-.67,5.13,5.13,0,0,1-1.75-1.42,3.24,3.24,0,0,1-.6-1.11H64Z"/><path class="cls-15" d="M82,43.58a.66.66,0,0,0-.75-.52l-.31,0a3.32,3.32,0,0,1,.15-2.3c0-.1-.14-.09-.22-.08l-.36.06c-.21-.26-.13-.57-.13-.87a1,1,0,0,0-.69-.12,3.07,3.07,0,0,0-.52.14c-.15.05-.29.13-.43.19a3,3,0,0,1-2.28.19c-.13-.06-.26-.12-.38-.19a1.82,1.82,0,0,1-.89-1.25c0-.06,0-.12,0-.18a.27.27,0,0,1,.41-.27c.07,0,.13.08.19.1s.24.12.41.06a2.12,2.12,0,0,1-.11-.21c0-.13-.07-.25-.1-.38a.25.25,0,0,1,.12-.28.25.25,0,0,1,.3,0l.12.08a1.53,1.53,0,0,0,.75.23,2.43,2.43,0,0,0,1.22-.24l.52-.24a4.39,4.39,0,0,1,1.37-.44h0l.23,0,.36.11a2.19,2.19,0,0,1,1,1.38l.2,0a2.07,2.07,0,0,1,1.59,2,2.58,2.58,0,0,1-.2,1A4.38,4.38,0,0,1,82,43.58Z"/><path class="cls-14" d="M33.94,65.15c.06-.38.13-.76.19-1.14a5.06,5.06,0,0,0,0-1.29,1.73,1.73,0,0,0-.1-.45,19.9,19.9,0,0,0-.78-1.9,6.28,6.28,0,0,0-.58-1,.26.26,0,0,1-.05-.12c.15,0,.2.11.27.2l1,1.26c1.1,1.38,2.2,2.77,3.31,4.15l.15.19a34.35,34.35,0,0,0,4.05-.22h.18l1.17-.13.89-.1L43.27,66l-1.73.66-.25.06c-.56.16-1.12.34-1.69.49a10.65,10.65,0,0,1-2.1.31,1.65,1.65,0,0,1-1.24-.38c-.38-.33-.78-.63-1.17-1S34.33,65.5,33.94,65.15Z"/><path class="cls-16" d="M95.44,63.57a3,3,0,0,0,1.08,0,2,2,0,0,0,1.1-.57,1.25,1.25,0,0,0,.29-1.37,1.08,1.08,0,0,1-.12-.59h1.77c.12,0,.24,0,.35.06h-.36a1.2,1.2,0,0,0-1.16.91,2.09,2.09,0,0,0-.08.61V73.87a2.08,2.08,0,0,0,0,.25c0,.3-.12.47-.46.45s-.55,0-.83,0h-.65a4.41,4.41,0,0,0,.36-.49A3.24,3.24,0,0,0,97.12,72a3.63,3.63,0,0,0-.42-1.18c0-.15,0-.3-.08-.46l-1-4.84A10.47,10.47,0,0,1,95.44,63.57Z"/><path class="cls-17" d="M29.32,53.43s0-.08,0-.09.18-.12.26-.19c.31-.24.63-.48.93-.73A3.34,3.34,0,0,0,31,52a4.65,4.65,0,0,0,.34-.52,2.75,2.75,0,0,1,.54.77c.13.29.24.59.37.89-.12,0-.2-.06-.3-.09a.61.61,0,0,0-.42,0c-.06,0-.11,0-.11.12a.11.11,0,0,0,.12.1h.22c.08,0,.16,0,.19.13a1,1,0,0,0-.24,0,.26.26,0,0,0-.16.35.28.28,0,0,0,.31.18.27.27,0,0,0,.21-.32,1.15,1.15,0,0,0-.06-.17.34.34,0,0,0,.14-.05.12.12,0,0,1,.15,0c0,.15,0,.29,0,.43a3.63,3.63,0,0,1-.28,2,2.47,2.47,0,0,1-1.52,1.46l-.1,0a2,2,0,0,0,.14.59c.05.18.13.36.19.54l.08.19c0,.25,0,.5,0,.76a1.21,1.21,0,0,1-.06.38.33.33,0,0,1-.38.27,1,1,0,0,1-.64-.22,2.26,2.26,0,0,1-.53-.54,5.34,5.34,0,0,1-.58-1.08L28.56,57a.27.27,0,0,0-.12-.24,3.87,3.87,0,0,1-1-1,3.21,3.21,0,0,1-.36-.08.9.9,0,0,1-.62-.65.56.56,0,0,1,.46-.73,6.37,6.37,0,0,0,2-.76l.29-.15s.06,0,.09,0-.07.11-.11.17a1,1,0,0,0-.17.23c0,.07,0,.13.11.16a1.07,1.07,0,0,1,.58-.42.1.1,0,0,0,.08-.14c0-.07-.09-.06-.15-.06S29.44,53.47,29.32,53.43Zm2.08,2.21a1.5,1.5,0,0,0-.56,0H30.3a2.37,2.37,0,0,0-.53,0c0,.14.05.2.11.27a.95.95,0,0,0,1.52-.25Zm-1.67-1.86a.26.26,0,0,0-.28.3.29.29,0,0,0,.28.28.3.3,0,0,0,.3-.29A.29.29,0,0,0,29.73,53.78Z"/><path class="cls-1" d="M104.33,66.7a1.12,1.12,0,0,0,.47,0H117a.39.39,0,0,1,.29.13.4.4,0,0,1-.16.68,1.65,1.65,0,0,1-.32.06,1.61,1.61,0,0,1-.22,0H104.25a2.09,2.09,0,0,1-.25,0,.54.54,0,0,1-.55-.58V56.17a1.69,1.69,0,0,1,0-.32.43.43,0,0,1,.85,0c0,.1,0,.21,0,.32v10.1C104.32,66.42,104.32,66.55,104.33,66.7Z"/><path class="cls-17" d="M42.71,43.92l-.18,0a1,1,0,0,1-1-.27.73.73,0,0,1,.13-1.25,1.64,1.64,0,0,1,.85.09l0-.11c0-.28,0-.56.09-.83s.13-.66.21-1a1.05,1.05,0,0,1,.78-.77,3.69,3.69,0,0,1,.46-.08c.18,0,.37,0,.55,0,.36,0,.72,0,1.07-.1a.73.73,0,0,0,.6-.47s0-.07,0-.1a.18.18,0,0,1,.21-.1.75.75,0,0,1,.24.08,1.44,1.44,0,0,1,.44.41c.13.19.25.39.37.58l0,.12-.08.07a1.57,1.57,0,0,0-.23-.09.56.56,0,0,0-.57.22.2.2,0,0,0,0,.13.16.16,0,0,0,.07.11s.07,0,.1,0a.24.24,0,0,0,.08-.06.32.32,0,0,1,.45-.05l.15.06a.26.26,0,0,0,.08-.26l0,0a3.73,3.73,0,0,1,.41,1.13,2.84,2.84,0,0,1,.08.42c0,.26,0,.52,0,.79a1.65,1.65,0,0,1-.09.57.41.41,0,0,0-.52,0,1.61,1.61,0,0,1-.86.21h-.61a2.77,2.77,0,0,0-.81.16,1,1,0,0,0-.68.69l-.06.21a.81.81,0,0,1-.75-.15,2.9,2.9,0,0,1-.58-.58l-.17-.22Zm4.27-2,0,0h0l.07.08a.82.82,0,0,0,.19.37.41.41,0,0,1,0,.47.87.87,0,0,0,0,.1l0,0h0v0c.23,0,.31-.21.35-.4a.2.2,0,0,0,0-.19,1.37,1.37,0,0,0-.51-.35Zm-2.06-.8a.73.73,0,0,0-.7.68.19.19,0,0,0,.1.13.32.32,0,0,0,.16,0s0,0,0-.06a.6.6,0,0,1,.46-.42s.09-.07.11-.12S45,41.12,44.92,41.12Zm.28.49a.34.34,0,0,0-.32.33.35.35,0,0,0,.35.34.33.33,0,0,0,.31-.37A.32.32,0,0,0,45.2,41.61Zm2.22-.87a.31.31,0,0,0,0,.61.31.31,0,1,0,0-.61ZM41.8,43c.31,0,.31,0,.53.22a1.26,1.26,0,0,0,0,.27.08.08,0,0,0,.05.08.12.12,0,0,0,.1,0,.55.55,0,0,0,.12-.21.54.54,0,0,0-.64-.58C41.82,42.82,41.76,42.9,41.8,43Z"/><path class="cls-13" d="M47.2,62.66l1.22-.17,1.63-.28.22,0,0,.25c.06,1.1.11,2.21.17,3.31l.09,1.9c0,.09,0,.17,0,.25H47c-.13,0-.27,0-.39-.06a1.35,1.35,0,0,1,0-.49q.07-.39.12-.78c0-.25.05-.5.09-.75s.1-.5.12-.74c0-.45.16-.88.16-1.32.09-.21,0-.43.09-.64A1.85,1.85,0,0,0,47.2,62.66Z"/><path class="cls-18" d="M79.45,68H71.19a3.65,3.65,0,0,1-.24-.31l-3.9-6.4a1.14,1.14,0,0,1-.1-.19,1.08,1.08,0,0,1,.36-1.4h.1a1.41,1.41,0,0,1,.14.18L71.27,66l.47.77c.35,0,.68,0,1,0a2,2,0,0,0,.24,0h3.21a2,2,0,0,0,.24-.05h.28c.07.08.17.05.27.05h1.93a1.35,1.35,0,0,0,.28,0h.6l.51.08a1,1,0,0,1-.57.91Z"/><path class="cls-4" d="M47.63,40c-.12-.19-.24-.39-.37-.58a1.44,1.44,0,0,0-.44-.41.75.75,0,0,0-.24-.08.18.18,0,0,0-.21.1s0,.07,0,.1a.73.73,0,0,1-.6.47c-.35.05-.71.07-1.07.1-.18,0-.37,0-.55,0a3.69,3.69,0,0,0-.46.08,1.05,1.05,0,0,0-.78.77c-.08.33-.16.66-.21,1s-.06.55-.09.83l0,.11a1.64,1.64,0,0,0-.85-.09c-.13-.17-.26-.35-.38-.53a2.51,2.51,0,0,1-.45-1.35,2.59,2.59,0,0,1,.8-2l.25-.25s0,0,0-.05a.7.7,0,0,1-.41-.63.74.74,0,0,1,.15,0,2,2,0,0,0,1-.1A9.89,9.89,0,0,1,44.48,37a4.6,4.6,0,0,1,1,0,1.59,1.59,0,0,1,.35.08.63.63,0,0,1,.48.53.35.35,0,0,0,.25.32l.07,0a1.64,1.64,0,0,1,1,1.49A5.61,5.61,0,0,1,47.63,40Z"/><path class="cls-9" d="M63.8,68H60.51c0-.2,0-.4-.07-.6-.06-.48-.13-1-.19-1.43s-.11-1-.17-1.43c0-.28-.08-.57-.11-.85a.56.56,0,0,1,0-.13c.07-.12.2-.09.29-.13H63.9l.43.05a3.78,3.78,0,0,1-.06.76c0,.25-.07.5-.1.75s-.07.5-.1.75,0,.5-.08.75-.07.5-.1.75Z"/><path class="cls-13" d="M76.45,66.82a2,2,0,0,1-.24.05H73a2,2,0,0,1-.24,0c.1-1.72.21-3.43.31-5.15a1.6,1.6,0,0,1,.21,0,8.51,8.51,0,0,0,1.41.43c.15,0,.34.08.45-.11l.73.15c0,.38.09.76.15,1.13s.14.9.2,1.34c0,.27,0,.55.09.82s.1.66.16,1c0,0,0,0,0,0Z"/><path class="cls-10" d="M47.2,62.66a1.85,1.85,0,0,1-.05.46c-.06.21,0,.43-.09.64,0,.44-.13.87-.16,1.32,0,.24-.09.49-.12.74s-.06.5-.09.75-.07.52-.12.78a1.35,1.35,0,0,0,0,.49c.12.1.26.06.39.06h3.58V68h-9c0-.43,0-.86,0-1.29L43.27,66c0,.12-.07.25-.11.38S43,66.8,43,67a.45.45,0,0,0,.28.53.44.44,0,0,0,.53-.2,1.25,1.25,0,0,0,.1-.27l.45-1.33a.86.86,0,0,0,.42-.25,2.44,2.44,0,0,0,.62-1A2,2,0,0,0,45.24,63l.08-.25Z"/><path class="cls-1" d="M114.08,60.25c-.11-.2-.19-.36-.28-.51a.12.12,0,0,0-.21,0,2.2,2.2,0,0,0-.31.3l-.79.93c-.23.27-.46.53-.67.8a.72.72,0,0,1-.44.23l-.41-.24-1.66-1.08-.11,0a1.59,1.59,0,0,0-.52.48c-.09.1-.17.21-.26.3l-.35.36-2.68,2.74a1,1,0,0,1-.18.18.42.42,0,0,1-.66,0,.34.34,0,0,1,0-.46c.22-.24.43-.49.65-.72s.52-.51.77-.77c.88-.91,1.73-1.84,2.64-2.72l.18-.18c.21-.21.27-.29.63-.08s.47.29.7.44c.41.26.8.53,1.22.81.57-.63,1.14-1.26,1.66-1.92-.07-.17-.22-.16-.34-.21l-.37-.14a4.78,4.78,0,0,1,.92-.48l.87-.43c.3-.15.59-.3.9-.42,0,0,0,.06,0,.08A28.18,28.18,0,0,1,114.08,60.25Z"/><path class="cls-4" d="M42.71,43.92l.36-.44.17.22a2.9,2.9,0,0,0,.58.58.81.81,0,0,0,.75.15l.06-.21a1,1,0,0,1,.68-.69,2.77,2.77,0,0,1,.81-.16h.61a1.61,1.61,0,0,0,.86-.21.41.41,0,0,1,.52,0,1.65,1.65,0,0,0,.09-.57c0-.27,0-.53,0-.79a3,3,0,0,1,.33,1,4,4,0,0,1,0,1.79,2.31,2.31,0,0,1-.29.69,1.65,1.65,0,0,1-.77.68l-.22.1-.54.07a4.23,4.23,0,0,1-2.22-.28l-.14,0a1,1,0,0,0-.17-.12,3.07,3.07,0,0,1-1.37-1.6C42.76,44,42.73,44,42.71,43.92Zm3.06-.1s0,.07,0,.09a1.57,1.57,0,0,0,1.13.24,1.08,1.08,0,0,0,.79-.58.12.12,0,0,0,0-.1h-.1s0,.05-.07.07a1.6,1.6,0,0,1-.26.26,1.11,1.11,0,0,1-1,.11c-.12,0-.24-.11-.37-.14S45.82,43.8,45.77,43.82Z"/><path class="cls-1" d="M12.24,65.05c.27,0,.55.07.82.13a1.8,1.8,0,0,1,.82.43,1.69,1.69,0,0,1,.53,1.11.22.22,0,0,0,0,.08,2.4,2.4,0,0,1-.8,1.93c-.26.27-.52.54-.79.8a3,3,0,0,1-.64.47.78.78,0,0,1-.56.06.49.49,0,0,1-.38-.35.64.64,0,0,1,.08-.58,3.42,3.42,0,0,1,.7-.72,1.72,1.72,0,0,0,.67-.92.63.63,0,0,0-.56-.82,2,2,0,0,0-.81.13,1.41,1.41,0,0,1-.53.09.65.65,0,0,1-.59-.39.69.69,0,0,1,.24-.81,2,2,0,0,1,.77-.44A3,3,0,0,1,12.24,65.05Z"/><path class="cls-5" d="M40.32,15.35H38.51a1.72,1.72,0,0,1-.39,0,1,1,0,0,1,.07-1.93,1.42,1.42,0,0,1,.36,0h3.61a1.67,1.67,0,0,1,.39.05,1,1,0,0,1-.2,2h-2Z"/><path class="cls-5" d="M74.65,26.94a1,1,0,0,1-.58-.18l-.44-.33-2.5-1.9-.23-.18A1,1,0,0,1,70.76,23a1,1,0,0,1,1.33-.24,1.09,1.09,0,0,1,.17.13l2.91,2.21a1,1,0,0,1,.39,1.26A1,1,0,0,1,74.65,26.94Z"/><path class="cls-5" d="M46.35,23.58a1,1,0,0,1-.39.81l-.75.57-2.12,1.62-.27.19a1,1,0,0,1-1.23-1.57l.14-.12,2.93-2.23a1.24,1.24,0,0,1,.66-.27A1,1,0,0,1,46.35,23.58Z"/><path class="cls-8" d="M61.68,63.41h-.5a.69.69,0,0,0-.13-.36,3.9,3.9,0,0,0-.59-.75c-.15-.47-.31-.94-.44-1.41a10,10,0,0,1-.35-2.1,20,20,0,0,1-.07-2.45,2.8,2.8,0,0,1,0-.4.19.19,0,0,1,.16-.17.18.18,0,0,1,.22.07.5.5,0,0,1,.08.12,14.12,14.12,0,0,1,1.55,3.4c0,.15.08.3.12.45a.77.77,0,0,0,.07.16.37.37,0,0,1,0,.11,8.36,8.36,0,0,0-.21,2.11,3.23,3.23,0,0,0,0,.54A4,4,0,0,1,61.68,63.41Z"/><path class="cls-1" d="M31.43,24.11A2.22,2.22,0,0,1,31,25.56a2.47,2.47,0,0,1-1.7,1.07,2.55,2.55,0,0,1-2.82-1.8,2.45,2.45,0,0,1,.78-2.65,2.41,2.41,0,0,1,1.62-.61,2.37,2.37,0,0,1,1.46.43,2.52,2.52,0,0,1,1.06,1.53A3.79,3.79,0,0,1,31.43,24.11ZM28.91,22.3a1.83,1.83,0,0,0-1.85,1.8,1.86,1.86,0,0,0,1.84,1.82,1.72,1.72,0,0,0,1.18-.43,1.78,1.78,0,0,0,.67-1.41A1.81,1.81,0,0,0,28.91,22.3Z"/><path class="cls-19" d="M64,35.18H53.12a2.18,2.18,0,0,1-.21-.87h11l.31,0,0,.18a0,0,0,0,0,0,.05A1.21,1.21,0,0,1,64,35.18Z"/><path class="cls-12" d="M52.28,64.58l-.32,0a.28.28,0,0,1-.25-.27c0-.2,0-.4,0-.61A.27.27,0,0,1,52,63.4h6.86c.17,0,.27.1.28.27s0,.41,0,.62-.09.19-.16.27H52.28Z"/><path class="cls-19" d="M61.68,63.41a4,4,0,0,0-.06-.68,3.23,3.23,0,0,1,0-.54,8.36,8.36,0,0,1,.21-2.11.37.37,0,0,0,0-.11l.18-.58a8.87,8.87,0,0,1,1.11-2.22,1.56,1.56,0,0,1,.16-.2.21.21,0,0,1,.36.11,2.17,2.17,0,0,1,0,.25,13.51,13.51,0,0,1,0,1.91c0,.15,0,.29,0,.43a.8.8,0,0,0,0,.21A3.78,3.78,0,0,1,63.3,61a21,21,0,0,1-.94,2.12,2,2,0,0,0-.1.26Z"/><path class="cls-14" d="M65.74,39.88a10.07,10.07,0,0,0-1.43.29c0-.27,0-.55,0-.82l-.17-.11a1.08,1.08,0,0,1-.47-.62c-.06-.17-.1-.35-.15-.52a1,1,0,0,1,.13-.8l.18-.23a.72.72,0,0,1,.62-.29h.35a2,2,0,0,0,0-.24,3.34,3.34,0,0,0-.17-.89,1.39,1.39,0,0,1-.06-.64.51.51,0,0,1,.27-.43c.09,0,.18,0,.2.07a.45.45,0,0,1,0,.11,4.35,4.35,0,0,0,.41,1.63,2.53,2.53,0,0,0,.16.33,1.46,1.46,0,0,1,.15,1.12A7,7,0,0,0,65.74,39.88Z"/><path class="cls-1" d="M31.71,20.06a1.45,1.45,0,0,1,2.89,0,1.45,1.45,0,1,1-2.89,0Z"/><path class="cls-1" d="M100.34,22.67a1.42,1.42,0,1,1-1.42-1.46A1.42,1.42,0,0,1,100.34,22.67Z"/><path class="cls-8" d="M52.15,66.69l-.65,0h-.25a.17.17,0,0,1-.15-.18.17.17,0,0,1,.14-.18h6.43a2.09,2.09,0,0,0,.35,0s.08,0,.08-.06a.9.9,0,0,0,0-.54.28.28,0,0,0-.11-.08,2.8,2.8,0,0,0-.29,0h-6.2a1,1,0,0,1-.25,0,.15.15,0,0,1-.11-.17.14.14,0,0,1,.12-.15h.25l.8,0,.39,0h6.21a1.09,1.09,0,0,1,.07.24q0,.47,0,.93a.73.73,0,0,1-.07.24l-.43,0H52.58Z"/><path class="cls-8" d="M62.26,63.41a2,2,0,0,1,.1-.26A21,21,0,0,0,63.3,61a3.78,3.78,0,0,0,.27-1.15.8.8,0,0,1,0-.21,2.29,2.29,0,0,0,.21-.23,17.36,17.36,0,0,1,1.46-1.75.74.74,0,0,1,.13-.12.23.23,0,0,1,.16,0c.08,0,.1.1.09.18a1.52,1.52,0,0,1,0,.21,15.93,15.93,0,0,1-.5,1.92,8.17,8.17,0,0,1-.78,1.7,1.36,1.36,0,0,1-.12.12,3,3,0,0,0-.86.81,2.14,2.14,0,0,1-.19.26,1.94,1.94,0,0,0-.36.68Z"/><path class="cls-10" d="M43.7,64.65l-.89.1-1.17.13h-.18c0-.75-.05-1.49-.08-2.24,0-.14,0-.28,0-.43l1.81.31c.39.06.79.09,1.18.13l-.22.66a1.74,1.74,0,0,0-.11-.18c-.1-.11-.23-.17-.31-.12s-.1.19-.08.29a2.55,2.55,0,0,0,.25.78Z"/><path class="cls-20" d="M77.36,47.12l1,1a.34.34,0,0,0,.12.06q.8-.51,1.59-1l.4-.21a.25.25,0,0,1,.16.17.61.61,0,0,0,.1.14l.1.28-.34.58L80,49a1.92,1.92,0,0,1-.3.42,3.63,3.63,0,0,1-.81-.64,4.82,4.82,0,0,0-.41-.51l-.4.42-.22.12a3.64,3.64,0,0,1-.73.39,1.36,1.36,0,0,1-.2-.4c-.09-.23-.18-.46-.28-.69l-.36-1a.31.31,0,0,1,.05-.12l.28-.38h.16c.1.11.21.23.32.33S77.22,47.09,77.36,47.12Z"/><path class="cls-12" d="M52.15,66.69l.43,0h5.87l.43,0h.94a.13.13,0,0,1,.12.12.14.14,0,0,1-.11.16l-.18,0-.36,0H53.36A.81.81,0,0,0,53,67a.82.82,0,0,0,0,.61h6.33l.32,0h0c.28,0,.31.1.16.36H52.21c0-.08-.11-.15-.11-.22q0-.47,0-.93A.35.35,0,0,1,52.15,66.69Z"/><path class="cls-1" d="M96.07,42.49a.83.83,0,0,1,.55-.62,2.05,2.05,0,0,1,1.54-.06,1.06,1.06,0,0,1,.73,1,1.63,1.63,0,0,1-.35,1,5.23,5.23,0,0,1-1,.93.78.78,0,0,1-.22.12.4.4,0,0,1-.53-.14.44.44,0,0,1,0-.5c.19-.2.39-.39.59-.58a1.54,1.54,0,0,0,.25-.36.39.39,0,0,0-.11-.51.48.48,0,0,0-.4-.11,2.83,2.83,0,0,0-.52.13.41.41,0,0,1-.49-.14A1,1,0,0,1,96.07,42.49Z"/><path class="cls-9" d="M58.88,65.24H52.67l-.39,0a.56.56,0,0,1,0-.63H59l.43,0a.2.2,0,0,1,.19.18,1.7,1.7,0,0,1,0,.22c0,.18-.07.24-.24.25Z"/><path class="cls-1" d="M59.65,67.6l-.32,0H53A.82.82,0,0,1,53,67a.81.81,0,0,1,.4-.05h5.93l.36,0Z"/><path class="cls-1" d="M8.69,57a1.33,1.33,0,0,1-1.08-.4A1.55,1.55,0,0,1,7,55.41a1.34,1.34,0,0,1,.36-1l.31-.3a1.58,1.58,0,0,1,1.84-.14,1.56,1.56,0,0,1,.81,1.18,1.33,1.33,0,0,1-.18,1.1,1.53,1.53,0,0,1-.82.72A1.63,1.63,0,0,1,8.69,57Zm.06-2.82a1.16,1.16,0,0,0-1.23,1.2,1.23,1.23,0,0,0,1.2,1.19,1.24,1.24,0,0,0,1.2-1.19,1.21,1.21,0,0,0-.33-.85A1,1,0,0,0,8.75,54.22Z"/><path class="cls-14" d="M44.32,45.81l.14,0a4.23,4.23,0,0,0,2.22.28l.54-.07c0,.15,0,.31.05.46s0,.29.06.43a.6.6,0,0,0,.09.15,1,1,0,0,0-.21.14,1.44,1.44,0,0,1-1,.39,3.86,3.86,0,0,1-1.26-.24c-.19-.07-.37-.16-.56-.24a.69.69,0,0,1-.13-.11C44.25,46.63,44.29,46.22,44.32,45.81Z"/><path class="cls-1" d="M58.07,65.66a.9.9,0,0,1,0,.54s-.05,0-.08.06l-.47,0H51.84a1,1,0,0,1-.41,0,1.23,1.23,0,0,1,0-.51l.3,0h6.36Z"/><path class="cls-1" d="M11.94,72.61a1,1,0,0,1-1-1,1,1,0,0,1,2.05,0A1,1,0,0,1,11.94,72.61Z"/><path class="cls-1" d="M97.39,20.14a.89.89,0,0,1-.94-.82.8.8,0,0,1,.28-.74.85.85,0,0,1,1-.19,1.05,1.05,0,0,1,.53.55.92.92,0,0,1-.48,1.14A2,2,0,0,1,97.39,20.14Z"/><path class="cls-19" d="M62.83,63.41a1.94,1.94,0,0,1,.36-.68,2.14,2.14,0,0,0,.19-.26,3,3,0,0,1,.86-.81,1.36,1.36,0,0,0,.12-.12l.26-.12.49-.22a.15.15,0,0,1,.2.17.69.69,0,0,1,0,.13,4.7,4.7,0,0,1-1.32,1.85l0,.06Z"/><path class="cls-14" d="M55.75,54.78l0,0c-.27-.28-.27-.39,0-.72,0-.07,0-.15-.07-.23a1.62,1.62,0,0,1,0-.22c0-.18.23-.23.22-.43s.13-.3.26-.38c.08-.42.1-.45.44-.52a1.08,1.08,0,0,1,.28.16.45.45,0,0,1,0,.71l-.09.07a.68.68,0,0,0,0,.14.59.59,0,0,1,0,.14.33.33,0,0,1-.13.28.32.32,0,0,0-.1.26.33.33,0,0,1-.15.27.21.21,0,0,0-.13.16C56.15,54.79,56.12,54.81,55.75,54.78Z"/><path class="cls-19" d="M60.46,62.3a3.9,3.9,0,0,1,.59.75.69.69,0,0,1,.13.36h-.92a4,4,0,0,1-1.15-1.26,1.51,1.51,0,0,1-.11-.22.2.2,0,0,1,0-.23.21.21,0,0,1,.23,0,3.26,3.26,0,0,1,1,.55Z"/><path class="cls-1" d="M98,46a.69.69,0,1,1-1.38,0,.67.67,0,0,1,.66-.66A.68.68,0,0,1,98,46Z"/><path class="cls-21" d="M50.46,48.49a3.86,3.86,0,0,1,.09-.51,2,2,0,0,0,.06-.42l.2.06a8.57,8.57,0,0,1,1.34.79l.08.08Z"/><path class="cls-22" d="M76.3,40.76l.3-.1a.52.52,0,0,1,.56.24.17.17,0,0,1,0,.14.3.3,0,0,1-.11.07.07.07,0,0,1-.06,0,.38.38,0,0,0-.57,0h0c-.1,0-.12-.1-.16-.18h0l.07-.12Z"/><path class="cls-7" d="M77.36,47.12c-.14,0-.21-.15-.31-.24s-.22-.22-.32-.33a1.13,1.13,0,0,1,.65-.14Z"/><path class="cls-7" d="M80.48,46.9l-.4.21.06-.4.24.06A.12.12,0,0,1,80.48,46.9Z"/><path class="cls-8" d="M64.15,34.6a0,0,0,0,1,0-.05l0,0Z"/><path class="cls-14" d="M76.3,40.75l-.07.12C76.22,40.81,76.23,40.76,76.3,40.75Z"/><path class="cls-17" d="M47.68,40.14l0,.1,0,0-.09-.06Z"/><path class="cls-14" d="M32.65,59.29s-.07,0-.07-.08S32.66,59.23,32.65,59.29Z"/><path class="cls-14" d="M32.58,59.22a.1.1,0,0,1-.09-.11Z"/><path class="cls-23" d="M60.59,29.8H60.1a.29.29,0,0,1-.05-.24l.09-.27c.92-2.75,1.76-5.51,2.44-8.33a32.72,32.72,0,0,0,1-5.48,7.69,7.69,0,0,0-.05-1.66,2.09,2.09,0,0,0-.23-.72.68.68,0,0,0-.46-.38,4.66,4.66,0,0,0-.63-.12,2.67,2.67,0,0,0-1.69.43,4.82,4.82,0,0,0-1.24,1.14l-.16.23.09.18a10.86,10.86,0,0,1,1.25,3.57,5.18,5.18,0,0,1,0,1.62,2.5,2.5,0,0,1-.28.85,1.39,1.39,0,0,1-.8.65,1.72,1.72,0,0,1-2-.68,2.24,2.24,0,0,1-.34-.83,4.86,4.86,0,0,1,0-1.9,9,9,0,0,1,1.16-3.25c0-.08.09-.17.14-.26a5.24,5.24,0,0,0-1.54-1.67,2.49,2.49,0,0,0-.51-.27,1.46,1.46,0,0,0-1.41.19,2,2,0,0,0-.63.68,3.61,3.61,0,0,0-.37.94,7.63,7.63,0,0,0-.2,1.9,17.19,17.19,0,0,0,.22,2.49c.15,1,.36,2,.6,3a59.06,59.06,0,0,0,2,6.36c.18.5.37,1,.56,1.49,0,.13.09.25,0,.37h-.48a2.83,2.83,0,0,1-.16-.36,63.3,63.3,0,0,1-2.49-7.89,29,29,0,0,1-.68-3.7,13.83,13.83,0,0,1-.08-2.49,5.78,5.78,0,0,1,.36-1.84,2.83,2.83,0,0,1,1-1.38,2.12,2.12,0,0,1,2.19-.25,3.45,3.45,0,0,1,.94.61,6.57,6.57,0,0,1,1,1.08l.16.2a.82.82,0,0,0,.27-.25,5,5,0,0,1,1.42-1.16,3.59,3.59,0,0,1,1.38-.4,3.09,3.09,0,0,1,1.38.22,1.29,1.29,0,0,1,.69.67A3,3,0,0,1,64.12,14a11.22,11.22,0,0,1,0,2.09,42.5,42.5,0,0,1-1.23,6.24c-.62,2.39-1.34,4.76-2.13,7.1C60.7,29.56,60.64,29.68,60.59,29.8ZM58.69,15l-.1.13a8.68,8.68,0,0,0-.88,2.32A5.71,5.71,0,0,0,57.56,19a2.7,2.7,0,0,0,.26,1.12,1.05,1.05,0,0,0,1,.62.86.86,0,0,0,.87-.58,2.58,2.58,0,0,0,.16-.77,6.27,6.27,0,0,0-.09-1.3,10.74,10.74,0,0,0-1-2.86C58.78,15.15,58.74,15.09,58.69,15Z"/><path class="cls-24" d="M50.64,70.45h5.07c.17.25.34.49.49.73.35.52.68,1,1,1.57l2.38,3.63c.52.81,1,1.62,1.57,2.42l.06.09a.36.36,0,0,1,0,.47c-.34.5-.67,1-1,1.54l-2.39,3.65c-.4.61-.79,1.22-1.19,1.82l-.45.7a.8.8,0,0,0-.16.54H52.35l-.28,0a1.23,1.23,0,0,0-.83-1.23,3.13,3.13,0,0,0-.54-.19l-1.31-.37c0-1.66,0-3.33.11-5l.8.1a6,6,0,0,0,1.52-1.7,2.1,2.1,0,0,0,.13-.26c0-.15,0-.22-.15-.25a.83.83,0,0,0-.49.07,3.26,3.26,0,0,0-.86.51h-.82c0-.4.07-.8.12-1.19.15-1.22.37-2.42.59-3.63a15.25,15.25,0,0,0,.25-1.53A16.68,16.68,0,0,0,50.64,70.45Z"/><path class="cls-24" d="M68.12,87.6a.82.82,0,0,0-.18-.6c-.64-1-1.27-1.93-1.9-2.9-.74-1.13-1.48-2.25-2.21-3.38-.3-.46-.58-.92-.89-1.36a.38.38,0,0,1,0-.5l.87-1.32c.75-1.14,1.49-2.28,2.24-3.41s1.42-2.18,2.12-3.27c.07-.1.12-.21.2-.31a.37.37,0,0,1,.17-.1.55.55,0,0,1,.18,0h3.91c0,.8,0,1.61,0,2.42a4.92,4.92,0,0,0,.09.86c.1.64.22,1.28.34,1.92a39.29,39.29,0,0,1,.69,5.18c.1,1.45.13,2.89.12,4.34,0,.23,0,.45,0,.68l-.94.24c-.25.06-.49.13-.73.21a1.33,1.33,0,0,0-1,1.3Z"/><path class="cls-2" d="M94.18,77.25c0,.14,0,.28,0,.43q0,4.62,0,9.25a1.27,1.27,0,0,0,.14.66H90.05a1.35,1.35,0,0,0,.09-.6V77.25l.07,0h.14l.5,0h3.33Z"/><path class="cls-24" d="M29.3,87.59a1.37,1.37,0,0,0,.1-.63c0-3.08,0-6.16,0-9.23v-.47l.5,0h3.47l.08,0V87a1,1,0,0,0,.13.62H29.3Z"/><path class="cls-24" d="M57.26,87.59l.84-1.3,2.38-3.63c.39-.6.78-1.21,1.18-1.81l.4-.63.13.14L64.5,83.9l1.74,2.65.65,1H57.26Z"/><path class="cls-24" d="M89.12,87.59H88.3c-.62,0-1.24,0-1.87,0h-.35a1.37,1.37,0,0,0,.13-.66V77.24H89V87A1.35,1.35,0,0,0,89.12,87.59Z"/><path class="cls-24" d="M25.33,87.59a.69.69,0,0,0,.09-.34v-10a.9.9,0,0,1,.19-.05h2.46l.15,0a1.8,1.8,0,0,1,0,.22c0,.17,0,.34,0,.51q0,4.45,0,8.93a1.38,1.38,0,0,0,.14.66h-.54c-.71,0-1.43,0-2.15,0Z"/><path class="cls-24" d="M95.25,87.59a1.35,1.35,0,0,0,.09-.6v-9.7a.9.9,0,0,1,.19-.05H98l.16,0c0,.13,0,.25,0,.36V87a1,1,0,0,0,.13.59h-3Z"/><path class="cls-24" d="M37.51,87.59h-3A1,1,0,0,0,34.6,87V77.24h2.45l.39.87c0,.12,0,.24,0,.36v8.6A1.34,1.34,0,0,0,37.51,87.59Z"/><path class="cls-25" d="M45.89,87.6H45.6c0-.08,0-.16-.05-.24a1.82,1.82,0,0,0-.07-.25,1.18,1.18,0,0,0-.61-.67,3.25,3.25,0,0,0-.84-.3,7,7,0,0,1-1.89-.67c0-.31.08-.62.14-.92.25-1.35.54-2.7.91-4,.2-.72.43-1.43.64-2.15a.58.58,0,0,1,.14,0,13.48,13.48,0,0,1,1.58.76c.17.1.33.22.5.33,0,.33-.06.65-.08,1-.11,1.76-.09,3.51-.07,5.27l.15.11Z"/><path class="cls-9" d="M34.6,77.24V87a1,1,0,0,1-.14.59.65.65,0,0,1-.88,0,1,1,0,0,1-.13-.62V77.24Z"/><path class="cls-9" d="M89.12,87.59A1.35,1.35,0,0,1,89,87V77.24h1.11V87a1.35,1.35,0,0,1-.09.6.85.85,0,0,1-.54.17A1.36,1.36,0,0,1,89.12,87.59Z"/><path class="cls-15" d="M45.89,87.6l.16-1.74a4.18,4.18,0,0,1,.71,0,3.66,3.66,0,0,0,.57.05c.31,0,.62,0,.93,0a4.33,4.33,0,0,0,1.13-.15l1.31.37a3.13,3.13,0,0,1,.54.19,1.23,1.23,0,0,1,.83,1.23c0,.09-.06.16-.16.17H46C45.93,87.72,45.91,87.66,45.89,87.6Z"/><path class="cls-9" d="M86.21,77.24v9.69a1.37,1.37,0,0,1-.13.66.72.72,0,0,1-.84.07c0-.2,0-.41,0-.61s-.08-.65-.12-1,0-.74,0-1.11l.25-.09v-.32c0-1,0-1.92,0-2.89s0-2.06-.07-3.1a1.1,1.1,0,0,0,0-.18c0-.38-.07-.76-.11-1.14Z"/><path class="cls-9" d="M37.51,87.59a1.34,1.34,0,0,1-.09-.53v-8.6c0-.12,0-.24,0-.36.1.21.21.42.31.64.27.62.53,1.23.79,1.85,0,.14,0,.29,0,.43,0,2,0,4,0,6a1.1,1.1,0,0,1-.1.56.68.68,0,0,1-.56.16A1.89,1.89,0,0,1,37.51,87.59Z"/><path class="cls-12" d="M78.78,87.74s-.08.07-.12.07a1,1,0,0,1-.25,0H74c-.12,0-.25,0-.33-.09l0-.13,0-.22a1.12,1.12,0,0,1,.73-.69l.34-.11.83-.22a2.35,2.35,0,0,0,.94-.42l.3-.24.2-.14.14.11a.84.84,0,0,1,.4.39l.11.16a5,5,0,0,0,.93-.14l.09.25a1.48,1.48,0,0,0,0,.21C78.71,86.94,78.74,87.34,78.78,87.74Z"/><path class="cls-12" d="M85.08,86.08c0,.32.09.64.12,1s0,.41,0,.61l0,.15H80.44c-.12,0-.25.05-.33-.08s0,0,0-.07a1,1,0,0,1,.74-1,6.36,6.36,0,0,1,.62-.19c.28-.08.56-.14.84-.23A1.75,1.75,0,0,0,83,86a1.07,1.07,0,0,0,.41-.38c.36.07.54.36.75.64a1.92,1.92,0,0,0,.24,0Z"/><path class="cls-12" d="M43.93,87.81c0,.11.14.2.12.34a.28.28,0,0,1-.11.08,3.58,3.58,0,0,1-.45.09,6.52,6.52,0,0,1-1.82-.13c-.23,0-.42-.11-.48-.37,0,0,0,0-.06-.08a2.9,2.9,0,0,0-.67-1,2.51,2.51,0,0,0-.48-.38.58.58,0,0,0-.21-.06c0,.21-.05.4-.07.59s-.05.64-.08,1c-.07.16-.07.16-.33.14l-.08-.33a.83.83,0,0,0,0-.22c0-.36,0-.72-.08-1.07a2.84,2.84,0,0,0-.09-.42c0-.19-.12-.37-.15-.56a1,1,0,0,1,.39-1l.53-.17s0,0,0,.06a6,6,0,0,0,.8,2.07,4.67,4.67,0,0,0,.74.92.74.74,0,0,0,.78.23.82.82,0,0,1,.22,0,.49.49,0,0,0,.32-.14A3.84,3.84,0,0,1,43.93,87.81Z"/><path class="cls-15" d="M76.52,85.94a2.35,2.35,0,0,1-.94.42l-.83.22-.34.11a1.12,1.12,0,0,0-.73.69.2.2,0,0,0,0,.22l0,.13H71.48a.72.72,0,0,1-.21,0s-.07-.09-.11-.13a1.33,1.33,0,0,1,1-1.3c.24-.08.48-.15.73-.21l.94-.24a8.26,8.26,0,0,0,1,.09l.1,0a5.9,5.9,0,0,0,.94,0A4.5,4.5,0,0,1,76.52,85.94Z"/><path class="cls-15" d="M43.93,87.81a3.84,3.84,0,0,0-1.21-.57l-.52-.81L41.91,86a.26.26,0,0,0,.15-.25.27.27,0,0,1,.08-.22,7,7,0,0,0,1.89.67,3.25,3.25,0,0,1,.84.3,1.18,1.18,0,0,1,.61.67,1.82,1.82,0,0,1,.07.25c0,.08,0,.16.05.24a.2.2,0,0,1-.2.2H43.93Z"/><path class="cls-26" d="M39.29,84.29a1,1,0,0,0-.39,1c0,.19.1.37.15.56a2.84,2.84,0,0,1,.09.42c0,.35.06.71.08,1.07a.83.83,0,0,1,0,.22l-.78,0a1.1,1.1,0,0,0,.1-.56c0-2,0-4,0-6,0-.14,0-.29,0-.43a1.55,1.55,0,0,1,.12.22l.64,1.6a2,2,0,0,1,.1.35A13.12,13.12,0,0,0,39.29,84.29Z"/><path class="cls-15" d="M83,86a1.75,1.75,0,0,1-.67.33c-.28.09-.56.15-.84.23a6.36,6.36,0,0,0-.62.19,1,1,0,0,0-.74,1s0,0,0,.07H78.78c0-.4-.07-.8-.1-1.2a1.48,1.48,0,0,1,0-.21l1-.26a4.73,4.73,0,0,0,1.46-.57l.12.49a4.48,4.48,0,0,0,1,0A3.14,3.14,0,0,1,83,86Z"/><path class="cls-15" d="M39.62,87.8c0-.32.05-.64.08-1s0-.38.07-.59a.58.58,0,0,1,.21.06,2.51,2.51,0,0,1,.48.38,2.9,2.9,0,0,1,.67,1A6.92,6.92,0,0,1,39.62,87.8Z"/><path class="cls-1" d="M107.72,45a1.34,1.34,0,1,1-2.67,0,1.39,1.39,0,0,1,1.36-1.33A1.3,1.3,0,0,1,107.72,45Z"/><path class="cls-13" d="M76.52,85.94a4.5,4.5,0,0,0-.64,0,5.9,5.9,0,0,1-.94,0l-.1,0a8.26,8.26,0,0,1-1-.09c0-.23,0-.45,0-.68,0-1.45,0-2.89-.12-4.34a39.29,39.29,0,0,0-.69-5.18c-.12-.64-.24-1.28-.34-1.92a4.92,4.92,0,0,1-.09-.86c0-.81,0-1.62,0-2.42H76.8a2,2,0,0,1,0,.25c-.2,1-.39,2-.59,3a.7.7,0,0,0,0,.35A16.33,16.33,0,0,1,77,77.67c0,.31.09.62.13.93,0,.48,0,1,0,1.44,0,.83,0,1.66-.07,2.48,0,.22,0,.44,0,.65,0,.51-.08,1-.13,1.51a.3.3,0,0,0,.14.3l-.08.58-.2.14Z"/><path class="cls-27" d="M46.05,79.51c-.17-.11-.33-.23-.5-.33A13.48,13.48,0,0,0,44,78.42a.58.58,0,0,0-.14,0l-.66-.28a12.58,12.58,0,0,1-2.7-1.4c0-.06-.06-.11-.07-.16l-.15-.82a6,6,0,0,0-.82-2.21,4.21,4.21,0,0,0-.6-.85l-.9-.89a2.88,2.88,0,0,0-.34-.27.62.62,0,0,0-.62-.06.79.79,0,0,0-.48.54c-.05.19-.08.38-.12.57a7.11,7.11,0,0,0-.18,1.53c0,.23,0,.46,0,.69H34.3l-.57,0-.07,0a.53.53,0,0,0-.35-.05h-2a5.5,5.5,0,0,1,.8-1.28,10.18,10.18,0,0,1,4.78-3.33c.21-.07.42-.11.63-.17l.19-.09.83-.07h.18a1.15,1.15,0,0,1,.8.36l.31.3,1,1.14.86,1c.07.09.14.19.22.28l2,2.28c.28.31.58.61.86.92L46,77.32l.23.21a3.38,3.38,0,0,0,1,.91,6.86,6.86,0,0,0,1.56.65,2.91,2.91,0,0,0,.88.16h.82a1.36,1.36,0,0,1-.51.91.5.5,0,0,1-.34.11c-.15,0-.3,0-.46.06a3.53,3.53,0,0,1-.46,0,1.55,1.55,0,0,0-.21,0A4.3,4.3,0,0,1,47.18,80c-.33-.12-.65-.26-1-.39Z"/><path class="cls-19" d="M77.1,85a.3.3,0,0,1-.14-.3c.05-.5.09-1,.13-1.51,0-.21,0-.43,0-.65,0-.82.05-1.65.07-2.48,0-.48,0-1,0-1.44,0-1,0-2,.1-2.95a9.92,9.92,0,0,1,.32-2.23c.25-.46.25-.47.7-.68s1.08-.49,1.62-.71,1.14-.45,1.71-.67l.18,0L84,70.53a1.11,1.11,0,0,0,.19-.09l.58-.16.51-.17,1.24-.35a17.34,17.34,0,0,1,2.37-.55.69.69,0,0,0,.39.3l.84.28.51.15s0,0-.09.06l-1.35.35c-1.19.28-2.34.65-3.5,1s-2.47.8-3.69,1.27c-.29.11-.57.26-.85.38a.55.55,0,0,0-.34.36,1.58,1.58,0,0,0-.09.42A5,5,0,0,0,80.78,75a1.39,1.39,0,0,0-.13.56l-.09,1.08c0,.3,0,.6-.08.9l-.12,1.18c0,.39-.09.79-.13,1.18s-.07.75-.1,1.12a.69.69,0,0,0,0,.13,25.12,25.12,0,0,1-.53,2.72,9.65,9.65,0,0,1-.32,1.17l-.47,0Z"/><path class="cls-24" d="M67,70.48c-.06.11-.09.19-.13.26L65.76,72.4l-2.52,3.83-1,1.52-.17.21c-.06-.06-.12-.1-.16-.15-.54-.84-1.08-1.68-1.63-2.52l-.54-.81-1.5-2.29c-.31-.48-.62-1-.92-1.43l-.13-.23c0-.09.11-.08.17-.08h9.15A1.43,1.43,0,0,1,67,70.48Z"/><path class="cls-13" d="M49.63,79.25a2.91,2.91,0,0,1-.88-.16,6.86,6.86,0,0,1-1.56-.65,3.38,3.38,0,0,1-1-.91,2.1,2.1,0,0,0,.06-.24c.06-.38.1-.76.16-1.14A14.49,14.49,0,0,1,47,73.63a.9.9,0,0,0,0-.46c-.09-.47-.17-.94-.26-1.41l-.24-1.31h4.08a16.68,16.68,0,0,1,0,2.45,15.25,15.25,0,0,1-.25,1.53c-.22,1.21-.44,2.41-.59,3.63C49.7,78.45,49.67,78.85,49.63,79.25Z"/><path class="cls-25" d="M38.53,69.77l-.83.07-1.17-.2-2.76-.44a1.6,1.6,0,0,1-.05-.21c0-.67-.11-1.34-.15-2a2.07,2.07,0,0,1,0-.5c.09-.43.19-.85.29-1.27l0-.06c.39.35.76.7,1.15,1s.79.63,1.17,1a1.65,1.65,0,0,0,1.24.38,10.65,10.65,0,0,0,2.1-.31c.57-.15,1.13-.33,1.69-.49l.25-.06c0,.43,0,.86,0,1.29L40.1,68a2.09,2.09,0,0,0-1.15.36,1.48,1.48,0,0,0-.34.32,1.05,1.05,0,0,0-.15.86C38.48,69.61,38.51,69.69,38.53,69.77Z"/><path class="cls-10" d="M44.74,76c-.28-.31-.58-.61-.86-.92l-2-2.28c-.08-.09-.15-.19-.22-.28v-.9c0-.4,0-.8,0-1.19H46.1a.79.79,0,0,1,0,.22l-.42,2.45A11.9,11.9,0,0,1,44.74,76Z"/><path class="cls-25" d="M88.89,69.21a17.34,17.34,0,0,0-2.37.55l-1.24.35a1.93,1.93,0,0,1,.22-.28.92.92,0,0,0,0-1.26A2,2,0,0,0,84.09,68c-.65,0-1.3,0-2,0H81.7l0-1,.61,0c.65.07,1.3.15,2,.19A15.68,15.68,0,0,0,87,67.11a6.11,6.11,0,0,0,1.27-.27,2.64,2.64,0,0,0,.38-.18c.22-.13.43-.27.64-.41a1.08,1.08,0,0,1,0,.18l-.3,2C89,68.72,88.93,69,88.89,69.21Z"/><path class="cls-26" d="M44.74,76a11.9,11.9,0,0,0,.93-2.91l.42-2.45a.79.79,0,0,0,0-.22h.46l.24,1.31c.09.47.17.94.26,1.41a.9.9,0,0,1,0,.46,14.49,14.49,0,0,0-.62,2.52c-.06.38-.1.76-.16,1.14a2.1,2.1,0,0,1-.06.24L46,77.32Z"/><path class="cls-10" d="M81.61,71.36c-.57.22-1.14.43-1.71.67s-1.08.46-1.62.71-.45.22-.7.68a.15.15,0,0,1,0-.07c-.13-.71-.26-1.42-.38-2.13,0-.26-.06-.52-.1-.78h4.56Z"/><path class="cls-26" d="M77.07,70.44c0,.26.06.52.1.78.12.71.25,1.42.38,2.13a.15.15,0,0,0,0,.07,9.92,9.92,0,0,0-.32,2.23c-.05,1-.07,2-.1,2.95,0-.31-.09-.62-.13-.93A16.33,16.33,0,0,0,76.22,74a.7.7,0,0,1,0-.35c.2-1,.39-2,.59-3a2,2,0,0,0,0-.25Z"/><path class="cls-26" d="M41.65,70.45c0,.39,0,.79,0,1.19v.9l-.86-1-1-1.14Z"/><path class="cls-10" d="M81.73,66.93l0,1c-.63,0-1.26,0-1.89,0h-.36l.3-.13a1,1,0,0,0,.57-.91l-.51-.08.27-.1a.59.59,0,0,1,.35,0Z"/><path class="cls-26" d="M81.61,71.36l0-.91h2.56a1.11,1.11,0,0,1-.19.09l-2.21.78Z"/><path class="cls-6" d="M87.38,27.44H81.16a1.82,1.82,0,0,1-.33,0,1.14,1.14,0,0,1-.8-.66.36.36,0,0,1,0-.18c0-.26,0-.53,0-.79,0,0,0-.07,0-.11a1.26,1.26,0,0,1,.73-.7,4.18,4.18,0,0,1,.71-.09c4,0,7.91,0,11.87,0a2.47,2.47,0,0,1,.6.08,1.07,1.07,0,0,1,.84,1.08,1.89,1.89,0,0,1-.07.71,1,1,0,0,1-.94.67H87.38Z"/><path class="cls-6" d="M84.52,31.27c-.94,0-1.88,0-2.82,0a1.25,1.25,0,0,1-1-.41,1.13,1.13,0,0,1-.34-.92,1.22,1.22,0,0,1,1-1.15,4.74,4.74,0,0,1,.75-.06h5.11a2.46,2.46,0,0,1,.6.07,1.31,1.31,0,0,1,.9.83,1.25,1.25,0,0,1-.85,1.6,1.42,1.42,0,0,1-.36,0Z"/><path class="cls-2" d="M80.64,37.12l-.23,0A.2.2,0,0,1,80.64,37.12Z"/><path class="cls-16" d="M25.18,62.61l.81-.55c.32.86.64,1.72,1,2.58a4.63,4.63,0,0,1,.28,1.77,14.59,14.59,0,0,1-.35,2.79c-.07.37-.2.72-.29,1.08-.15.55-.29,1.1-.43,1.65a2.56,2.56,0,0,0,.52,2.27c.09.13.19.24.29.36H25.64a.36.36,0,0,1-.37-.36c0-.11,0-.22,0-.33V63.09c0-.11,0-.22,0-.32A.48.48,0,0,0,25.18,62.61Z"/><path class="cls-14" d="M31.3,74.71h2a.53.53,0,0,1,.35.05l-.46,0H31.62l-.35,0A.05.05,0,0,1,31.3,74.71Z"/><path class="cls-6" d="M29.72,42.78h5.5a1.1,1.1,0,0,1,.71.21,1.2,1.2,0,0,1,.41,1.6,1.1,1.1,0,0,1-.61.59,3.1,3.1,0,0,1-.62.13.81.81,0,0,1-.22,0H24.47a2.42,2.42,0,0,1-.54-.06,1.27,1.27,0,0,1-1-1.09,1,1,0,0,1,.32-1l.18-.18a.77.77,0,0,1,.57-.25h5.69Z"/><path class="cls-6" d="M29.71,41.41H24.29a1.42,1.42,0,0,1-.46-.06,1.15,1.15,0,0,1-.68-.56,1.51,1.51,0,0,1-.15-.37.84.84,0,0,1-.05-.31A1.24,1.24,0,0,1,23.64,39a1.5,1.5,0,0,1,.69-.17c3.59,0,7.19,0,10.78,0a1.27,1.27,0,0,1,1,.41,1.2,1.2,0,0,1,0,1.69,1.17,1.17,0,0,1-1,.44Z"/><path class="cls-8" d="M80.78,75a5,5,0,0,1-.06-1.22,1.58,1.58,0,0,1,.09-.42.55.55,0,0,1,.34-.36c.28-.12.56-.27.85-.38,1.22-.47,2.45-.89,3.69-1.27s2.31-.73,3.5-1L90.54,70s.06,0,.09-.06.29,0,.43,0a22.37,22.37,0,0,1,2.32-.35,5,5,0,0,1,1.54.12,2.83,2.83,0,0,1,1.68,1,.32.32,0,0,0,.1.1A3.63,3.63,0,0,1,97.12,72a3.24,3.24,0,0,1-.39,2.09,4.41,4.41,0,0,1-.36.49,1.51,1.51,0,0,1-1,.27c-.77,0-1.55,0-2.32,0-1.08,0-2.16.09-3.25.14h-.36l-3.1.19-1.77.09c-.06,0-.12,0-.16,0s0,.05,0,.07a4,4,0,0,1,.67,1.66,1.15,1.15,0,0,0,.06.17c0,.38.07.76.11,1.14a1.1,1.1,0,0,1,0,.18c0,1,.06,2.07.07,3.1s0,1.93,0,2.89v.32l-.25.09H83.35c-.14-.08-.29,0-.43,0l-.23,0c-.06-.39-.1-.76-.16-1.13-.13-.81-.24-1.62-.4-2.42-.3-1.45-.64-2.9-1-4.34C81,76.34,80.91,75.67,80.78,75Z"/><path class="cls-7" d="M85.2,77.25a1.15,1.15,0,0,1-.06-.17,4,4,0,0,0-.67-1.66s0,0,0-.07.1,0,.16,0l1.77-.09,3.1-.19h.25a.7.7,0,0,0-.21.24A1.31,1.31,0,0,0,90,77c.08,0,.18.07.2.19l-.07,0H85.2Z"/><path class="cls-7" d="M90.85,77.24l-.5,0A.52.52,0,0,1,90.85,77.24Z"/><path class="cls-7" d="M94.18,77.25h-.43A.32.32,0,0,1,94.18,77.25Z"/><path class="cls-16" d="M33.73,74.79l.57,0h1.89a4.56,4.56,0,0,0,.41,1.44c.16.34.3.67.45,1h-3.6l-.08,0,.54-.48a1.05,1.05,0,0,0,.33-.77,1.26,1.26,0,0,0-.4-1A1.71,1.71,0,0,0,33.73,74.79Z"/><path class="cls-16" d="M29.9,77.24l-.5,0s0-.05,0-.05A.47.47,0,0,1,29.9,77.24Z"/><path class="cls-16" d="M33.23,77.23h-.44A.36.36,0,0,1,33.23,77.23Z"/><path class="cls-12" d="M96.7,70.8a.32.32,0,0,1-.1-.1,2.83,2.83,0,0,0-1.68-1,5,5,0,0,0-1.54-.12,22.37,22.37,0,0,0-2.32.35c-.14,0-.28,0-.43,0l-.51-.15-.84-.28a.69.69,0,0,1-.39-.3c0-.25.09-.49.13-.74l.3-2a1.08,1.08,0,0,0,0-.18l1.06-.86c.42-.35.85-.7,1.26-1.07s.8-.75,1.21-1.12l.11-.08.49.23.12-.17c.37-.52.76-1,1.12-1.58s.57-.91.85-1.37c0,.33,0,.65,0,1,0,.74-.11,1.48-.09,2.23,0,0,0,.09,0,.14a10.47,10.47,0,0,0,.22,1.93l1,4.84C96.65,70.5,96.67,70.65,96.7,70.8Z"/><path class="cls-17" d="M91.58,57.26a2.54,2.54,0,0,0,.23-.92l-.25-.08a2.08,2.08,0,0,1-1.15-.82,3.16,3.16,0,0,1-.54-1.95,3.79,3.79,0,0,1,.3-1.33L91.24,52a2.14,2.14,0,0,0,1-.46l.08.13a3.69,3.69,0,0,0,.82,1.17,5.88,5.88,0,0,0,1,.78.45.45,0,0,0,.34.1h.18a.49.49,0,0,1,.47.59.77.77,0,0,1-.56.64,1.37,1.37,0,0,1-.28,0,1.4,1.4,0,0,0-.41.83c0,.31-.13.62-.19.92a1.62,1.62,0,0,0,0,.22.33.33,0,0,0-.09.11,1.8,1.8,0,0,1-.51.59A1.19,1.19,0,0,1,92,58a.54.54,0,0,1-.46-.58ZM90.65,55c-.05.1,0,.15.09.21a.88.88,0,0,0,.57.25.8.8,0,0,0,.54-.16.46.46,0,0,0,.23-.28.12.12,0,0,1,0,0H90.71Zm-.34-2.26h.29c.05,0,.1,0,.09-.09s-.07-.08-.1-.08a1.34,1.34,0,0,0-.35,0,.31.31,0,0,0-.18.16c0,.05,0,.09.09.13s0,.06,0,.09,0,.08,0,.11a.22.22,0,0,0,.2.22.21.21,0,0,0,.24-.1.22.22,0,0,0,0-.3A2,2,0,0,0,90.31,52.71Zm1.86,1a.26.26,0,0,0,.27-.26.29.29,0,0,0-.24-.27.27.27,0,0,0-.27.27A.25.25,0,0,0,92.17,53.75Zm0-.9a.56.56,0,0,0,0,.08.13.13,0,0,0,0,.09,1.09,1.09,0,0,1,.52.36s.07,0,.09,0,0-.08,0-.09a1.43,1.43,0,0,0-.16-.24A.79.79,0,0,0,92.16,52.85Z"/><path class="cls-18" d="M95.54,60.23c-.28.46-.55.93-.85,1.37s-.75,1.06-1.12,1.58l-.12.17L93,63.12c0-.13-.13-.17-.21-.23-.69-.52-1.37-1-2.06-1.53a1.23,1.23,0,0,0-.26-.12L90.36,61a11.54,11.54,0,0,1,1.86-2.25,4.21,4.21,0,0,1,1.26-.82,1.19,1.19,0,0,1,.53-.1,2.86,2.86,0,0,1,.82.08l.27.23a1.48,1.48,0,0,1,.54,1,2.43,2.43,0,0,1-.07.89Z"/><path class="cls-12" d="M94.83,57.92a2.86,2.86,0,0,0-.82-.08,1.19,1.19,0,0,0-.53.1,4.21,4.21,0,0,0-1.26.82A11.54,11.54,0,0,0,90.36,61c0,.07,0,.15.07.23l-1.61,1.93c-.12.13-.24.27-.37.4a.45.45,0,0,1-.12.06,1.17,1.17,0,0,0-.07-.25,2.28,2.28,0,0,1-.1-1.48c.06-.24.15-.48.23-.72a11.15,11.15,0,0,1,1.17-1.93c.46-.64,1-1.21,1.51-1.81a.65.65,0,0,1,.51-.18v.14A.54.54,0,0,0,92,58a1.19,1.19,0,0,0,1-.33,1.8,1.8,0,0,0,.51-.59.33.33,0,0,1,.09-.11A3.18,3.18,0,0,1,94.83,57.92Z"/><path class="cls-18" d="M91.07,57.44c-.51.6-1,1.17-1.51,1.81a11.15,11.15,0,0,0-1.17,1.93L88,60.85l-.24-.19-.24-.33.58-.73.21-.25A10.66,10.66,0,0,1,89.55,58c.18-.11.35-.24.53-.34A1.48,1.48,0,0,1,91.07,57.44Z"/><path class="cls-3" d="M57,29.8c.11-.12.07-.24,0-.37-.19-.49-.38-1-.56-1.49a59.06,59.06,0,0,1-2-6.36c-.24-1-.45-2-.6-3a17.19,17.19,0,0,1-.22-2.49,7.63,7.63,0,0,1,.2-1.9,3.61,3.61,0,0,1,.37-.94,2,2,0,0,1,.63-.68,1.46,1.46,0,0,1,1.41-.19,2.49,2.49,0,0,1,.51.27,5.24,5.24,0,0,1,1.54,1.67c0,.09-.09.18-.14.26A9,9,0,0,0,57,17.86a4.86,4.86,0,0,0,0,1.9,2.24,2.24,0,0,0,.34.83,1.72,1.72,0,0,0,2,.68,1.39,1.39,0,0,0,.8-.65,2.5,2.5,0,0,0,.28-.85,5.18,5.18,0,0,0,0-1.62,10.86,10.86,0,0,0-1.25-3.57l-.09-.18.16-.23A4.82,4.82,0,0,1,60.47,13a2.67,2.67,0,0,1,1.69-.43,4.66,4.66,0,0,1,.63.12.68.68,0,0,1,.46.38,2.09,2.09,0,0,1,.23.72,7.69,7.69,0,0,1,.05,1.66,32.72,32.72,0,0,1-1,5.48c-.68,2.82-1.52,5.58-2.44,8.33l-.09.27a.29.29,0,0,0,.05.24Z"/><path class="cls-14" d="M48.2,54.87l-.34.07-.34.08a4.82,4.82,0,0,0-.11-.93c-.06-.19-.11-.39-.17-.58a.92.92,0,0,1,.21-.13,1,1,0,0,0,.51-.52,1.05,1.05,0,0,1,1-.59l-.25.89a.73.73,0,0,0,.62.09h0v0c.05.05.09,0,.13,0a1.67,1.67,0,0,0,.71-.24,1.19,1.19,0,0,1,.55-.12c.25,0,.36.08.43.3a.23.23,0,0,1,0,.11.36.36,0,0,0,.23.29c.14.07.16.14.09.27a1.72,1.72,0,0,1-.25.35,2.61,2.61,0,0,1-1.35.71l-.78.1A3.67,3.67,0,0,1,48.2,54.87Z"/><path class="cls-9" d="M49.37,53.25a.73.73,0,0,1-.62-.09l.25-.89c.19-.63.39-1.26.59-1.89L50,48.91a1.7,1.7,0,0,1,.09-.24.22.22,0,0,1,.18-.15l.17.06c.16.05.22.13.18.29a1,1,0,0,1,0,.1l-.51,1.62q-.36,1.14-.69,2.31C49.39,53,49.39,53.13,49.37,53.25Z"/><path class="cls-9" d="M48.2,54.87a3.67,3.67,0,0,0,1,.11l-.44.06c-.08.26-.17.52-.25.78-.21.67-.43,1.34-.64,2-.43,0-.54-.1-.42-.5C47.69,56.51,48,55.69,48.2,54.87Z"/><path class="cls-9" d="M49.53,53.21s-.08.06-.13,0Z"/><path class="cls-25" d="M88.12,59.6l-.58.73.23.33a1.49,1.49,0,0,1-.15.2c-.74.8-1.48,1.59-2.21,2.39a1,1,0,0,1-.36.24l-1.92.84-1.3.53c0-.72,0-1.45.08-2.17a1.36,1.36,0,0,1,0-.17,3.16,3.16,0,0,0,1-.43l-.24-1.61c-.13-.88-.27-1.76-.4-2.64,0-.05,0-.1,0-.15a3.79,3.79,0,0,1,0-1.5c.07-.54.12-1.08.17-1.62l.09-.82a.75.75,0,0,1,.06-.13c1.15,1.62,2.29,3.22,3.43,4.84a1.23,1.23,0,0,0,.6.48C87.13,59.15,87.62,59.38,88.12,59.6Z"/><path class="cls-16" d="M78.84,48.73a3.63,3.63,0,0,0,.81.64A1.92,1.92,0,0,0,80,49l.55-.88a3.16,3.16,0,0,1,0,.32c-.08.51-.17,1-.25,1.53-.14.79-.27,1.59-.4,2.38s-.32,1.87-.47,2.8c0,.24-.06.48-.08.72,0,0,0,0,0,0l0,.16c-.07.41-.15.81-.22,1.21-.22,1.27-.43,2.54-.64,3.82-.06.34-.11.68-.17,1,0,.09-.05.18-.07.28l-.23,0c-.61,0-1.23-.07-1.83-.18h-.18l-.73-.15c0-.31.1-.63.16-.95l1-4.76c0-.16,0-.33,0-.5v-.23c0-.08,0-.16,0-.24,0-.63,0-1.25.06-1.88,0-.89,0-1.79.08-2.69s0-1.76.08-2.63c0,0,0-.07,0-.11.1.23.19.46.28.69a1.36,1.36,0,0,0,.2.4,3.64,3.64,0,0,0,.73-.39l.22-.12a4.29,4.29,0,0,1,0,.71c-.07.65-.18,1.29-.28,1.94l-.33,2.25-.33,2.21c-.06.4-.11.79-.18,1.18a.49.49,0,0,0,.11.4c.12.15.22.32.34.47l.2.22.42-.31c.46-.37.4-.2.43-.83,0-1,.07-2,.1-3,0-1.3.1-2.6.14-3.9A4.89,4.89,0,0,1,78.84,48.73Z"/><path class="cls-14" d="M88.33,63.63a.45.45,0,0,0,.12-.06c.13-.13.25-.27.37-.4l1.61-1.93a1.23,1.23,0,0,1,.26.12c.69.5,1.37,1,2.06,1.53.08.06.19.1.21.23l-.11.08c-.41.37-.8.76-1.21,1.12s-.84.72-1.26,1.07l-1.06.86c-.21.14-.42.28-.64.41a2.64,2.64,0,0,1-.38.18,6.11,6.11,0,0,1-1.27.27,15.68,15.68,0,0,1-2.74.06c-.65,0-1.3-.12-2-.19l-.61,0-1.3-.23a.59.59,0,0,0-.35,0l-.27.1h-.6a1.41,1.41,0,0,1-.42-.26,2.83,2.83,0,0,0-.51-.34.8.8,0,0,0-1,.11c-.19.17-.4.32-.59.48h-.28l.06-.29.14-.21a1.89,1.89,0,0,1,1.65-.94,5,5,0,0,1,1.21.16l.17,0a.72.72,0,0,0,.46,0,3.25,3.25,0,0,0,.93-.07,2.09,2.09,0,0,1,.25,0h.22c.47-.07.94-.17,1.42-.2s.85-.14,1.28-.17a10.58,10.58,0,0,0,1.23-.22c.72-.15,1.42-.32,2.13-.49a.44.44,0,0,0,.17-.07A1.91,1.91,0,0,0,88.33,63.63Z"/><path class="cls-27" d="M88.33,63.63a1.91,1.91,0,0,1-.56.73.44.44,0,0,1-.17.07c-.71.17-1.41.34-2.13.49a10.58,10.58,0,0,1-1.23.22c-.43,0-.85.14-1.28.17s-.95.13-1.42.2h-.22a2.09,2.09,0,0,0-.25,0,3.25,3.25,0,0,1-.93.07l.52-.23.89-.35a2.49,2.49,0,0,0,.28-.15l1.3-.53,1.92-.84a1,1,0,0,0,.36-.24c.73-.8,1.47-1.59,2.21-2.39a1.49,1.49,0,0,0,.15-.2l.25.19.37.33c-.08.24-.17.48-.23.72a2.28,2.28,0,0,0,.1,1.48A1.17,1.17,0,0,1,88.33,63.63Z"/><path class="cls-28" d="M79.27,55.82c0-.24,0-.48.08-.72.15-.93.32-1.87.47-2.8s.26-1.59.4-2.38c.08-.51.17-1,.25-1.53a3.16,3.16,0,0,0,0-.32l.34-.58c.11.19.23.37.33.55l.62,1.15a.43.43,0,0,1,0,.4c-.45,1.12-.89,2.24-1.33,3.35-.34.86-.68,1.72-1,2.57A1.92,1.92,0,0,1,79.27,55.82Z"/><path class="cls-28" d="M79.21,56l0-.16A.12.12,0,0,1,79.21,56Z"/><path class="cls-29" d="M32.27,53.31a.12.12,0,0,0-.15,0,.34.34,0,0,1-.14.05l-.06,0c0-.1-.11-.12-.19-.13h-.22a.11.11,0,0,1-.12-.1c0-.07.05-.1.11-.12a.61.61,0,0,1,.42,0c.1,0,.18.12.3.09A.23.23,0,0,1,32.27,53.31Z"/><path class="cls-20" d="M43.7,64.65l.19-.58.25-.77.22-.66c.2-.59.4-1.18.59-1.78s.44-1.32.65-2a1.53,1.53,0,0,1,.11-.27.42.42,0,0,1,.52-.19.43.43,0,0,1,.3.48,1.81,1.81,0,0,1-.09.31l-1.07,3.29c0,.07,0,.14,0,.21l-.08.25c-.05.11-.1.22-.14.33l-.66,2c0,.13-.08.27-.12.41l-.45,1.33a1.25,1.25,0,0,1-.1.27.44.44,0,0,1-.53.2A.45.45,0,0,1,43,67c.06-.2.13-.41.2-.61s.07-.26.11-.38C43.41,65.55,43.56,65.1,43.7,64.65Z"/><path class="cls-28" d="M76.6,48.06s0,.07,0,.11c0,.87,0,1.75-.08,2.63s0,1.8-.08,2.69c0,.63,0,1.25-.06,1.88,0,.08,0,.16,0,.24s-.08-.07-.09-.11l-.6-3.07c-.2-1-.42-2-.63-3a2.33,2.33,0,0,0-.05-.28.74.74,0,0,1,.16-.74c.17-.2.33-.42.49-.62l.63-.75Z"/><path class="cls-28" d="M76.33,55.74v0Z"/><path class="cls-20" d="M78.3,44.22a.79.79,0,0,1-.38.34,1.12,1.12,0,0,1-1.46-.39l0,0a.59.59,0,0,1,0-.14s.05,0,.09,0a.09.09,0,0,1,.07,0,6.24,6.24,0,0,0,1.43.13C78.14,44.11,78.25,44.08,78.3,44.22Z"/><path class="cls-22" d="M79,41.61a.53.53,0,0,1,.42.21,1.9,1.9,0,0,1,.2.34.18.18,0,0,1-.09.24.16.16,0,0,1-.2-.12.53.53,0,0,0-.43-.38.13.13,0,0,1-.11-.16C78.77,41.65,78.84,41.61,79,41.61Z"/><path class="cls-22" d="M78.65,42.72a.32.32,0,0,1-.32-.32.33.33,0,0,1,.31-.33.36.36,0,0,1,.33.32A.34.34,0,0,1,78.65,42.72Z"/><path class="cls-22" d="M76.54,41.84a.29.29,0,0,1-.3-.28.28.28,0,0,1,.28-.3.27.27,0,0,1,.3.28A.3.3,0,0,1,76.54,41.84Z"/><path class="cls-27" d="M81.54,43.63l-.24,0c-.22,0-.3.15-.25.37,0,.07,0,.14,0,.19s-.14,0-.18-.13a.45.45,0,0,1,.3-.62.81.81,0,0,1,.31,0A.13.13,0,0,1,81.54,43.63Z"/><path class="cls-20" d="M31.4,55.64a.95.95,0,0,1-1.52.25c-.06-.07-.15-.13-.11-.27a2.37,2.37,0,0,1,.53,0h.54A1.5,1.5,0,0,1,31.4,55.64Z"/><path class="cls-22" d="M29.73,53.78a.29.29,0,0,1,.3.29.3.3,0,0,1-.3.29.29.29,0,0,1-.28-.28A.26.26,0,0,1,29.73,53.78Z"/><path class="cls-22" d="M31.92,53.31l.06,0a1.15,1.15,0,0,1,.06.17.27.27,0,0,1-.21.32.28.28,0,0,1-.31-.18.26.26,0,0,1,.16-.35A1,1,0,0,1,31.92,53.31Z"/><path class="cls-29" d="M29.32,53.43c.12,0,.22-.07.34-.07s.12,0,.15.06a.1.1,0,0,1-.08.14,1.07,1.07,0,0,0-.58.42c-.11,0-.15-.09-.11-.16a1,1,0,0,1,.17-.23c0-.06.12-.08.11-.17Z"/><path class="cls-30" d="M44.92,41.12c.12,0,.2.08.17.17s-.07.12-.11.12a.6.6,0,0,0-.46.42s0,.05,0,.06a.32.32,0,0,1-.16,0,.19.19,0,0,1-.1-.13A.73.73,0,0,1,44.92,41.12Z"/><path class="cls-22" d="M45.2,41.61a.32.32,0,0,1,.34.3.33.33,0,0,1-.31.37.35.35,0,0,1-.35-.34A.34.34,0,0,1,45.2,41.61Z"/><path class="cls-30" d="M47.6,40.21l.09.06a.26.26,0,0,1-.08.26l-.15-.06a.32.32,0,0,0-.45.05.24.24,0,0,1-.08.06s-.08,0-.1,0a.16.16,0,0,1-.07-.11.2.2,0,0,1,0-.13.56.56,0,0,1,.57-.22A1.57,1.57,0,0,1,47.6,40.21Z"/><path class="cls-22" d="M47.42,40.74a.31.31,0,1,1,0,.61.31.31,0,0,1,0-.61Z"/><path class="cls-27" d="M41.8,43c0-.14,0-.22.12-.24a.54.54,0,0,1,.64.58.55.55,0,0,1-.12.21.12.12,0,0,1-.1,0,.08.08,0,0,1-.05-.08,1.26,1.26,0,0,1,0-.27C42.11,43,42.11,43,41.8,43Z"/><path class="cls-27" d="M47.27,42.93a.87.87,0,0,1,0-.1.41.41,0,0,0,0-.47.82.82,0,0,1-.19-.37h0a1.37,1.37,0,0,1,.51.35.2.2,0,0,1,0,.19C47.58,42.72,47.5,42.9,47.27,42.93Z"/><path class="cls-27" d="M47,41.92l.08.07h0L47,41.91Z"/><path class="cls-27" d="M47,41.91h0l0,0Z"/><polygon class="cls-27" points="47.27 42.93 47.26 42.96 47.24 42.95 47.27 42.93"/><path class="cls-29" d="M76.73,66.82c.19-.16.4-.31.59-.48a.8.8,0,0,1,1-.11,2.83,2.83,0,0,1,.51.34,1.41,1.41,0,0,0,.42.26,1.35,1.35,0,0,1-.28,0H77C76.9,66.87,76.8,66.9,76.73,66.82Z"/><path class="cls-17" d="M44.32,65.73c0-.14.07-.28.12-.41l.66-2c0-.11.09-.22.14-.33a2,2,0,0,1,.12,1.53,2.44,2.44,0,0,1-.62,1A.86.86,0,0,1,44.32,65.73Z"/><path class="cls-27" d="M45.77,43.82s.11-.06.14,0,.25.1.37.14a1.11,1.11,0,0,0,1-.11,1.6,1.6,0,0,0,.26-.26s0-.06.07-.07h.1a.12.12,0,0,1,0,.1,1.08,1.08,0,0,1-.79.58,1.57,1.57,0,0,1-1.13-.24S45.8,43.87,45.77,43.82Z"/><path class="cls-6" d="M28.91,22.3a1.81,1.81,0,0,1,1.84,1.78,1.78,1.78,0,0,1-.67,1.41,1.72,1.72,0,0,1-1.18.43,1.86,1.86,0,0,1-1.84-1.82A1.83,1.83,0,0,1,28.91,22.3Z"/><path class="cls-17" d="M44.14,63.3l-.25.77a2.55,2.55,0,0,1-.25-.78c0-.1,0-.22.08-.29s.21,0,.31.12A1.74,1.74,0,0,1,44.14,63.3Z"/><path class="cls-10" d="M78.84,48.73a4.89,4.89,0,0,0-.15,1.21c0,1.3-.1,2.6-.14,3.9,0,1-.06,2-.1,3,0,.63,0,.46-.43.83L77.6,58l-.2-.22c-.12-.15-.22-.32-.34-.47a.49.49,0,0,1-.11-.4c.07-.39.12-.78.18-1.18l.33-2.21.33-2.25c.1-.65.21-1.29.28-1.94a4.29,4.29,0,0,0,0-.71l.4-.42A4.82,4.82,0,0,1,78.84,48.73Z"/><path class="cls-6" d="M8.75,54.22a1,1,0,0,1,.84.35,1.21,1.21,0,0,1,.33.85,1.24,1.24,0,0,1-1.2,1.19,1.23,1.23,0,0,1-1.2-1.19A1.16,1.16,0,0,1,8.75,54.22Z"/><path class="cls-5" d="M58.69,15c.05.09.09.15.12.22a10.74,10.74,0,0,1,1,2.86,6.27,6.27,0,0,1,.09,1.3,2.58,2.58,0,0,1-.16.77.86.86,0,0,1-.87.58,1.05,1.05,0,0,1-1-.62A2.7,2.7,0,0,1,57.56,19a5.71,5.71,0,0,1,.15-1.54,8.68,8.68,0,0,1,.88-2.32Z"/><path class="cls-13" d="M46.05,79.51l.16.12-.1.27a.93.93,0,0,0,.36,1.17,2.08,2.08,0,0,0,.51.27,3,3,0,0,1,.75.36l.75.5.39.25a.3.3,0,0,0,.2-.27l-1.21-1.13a.94.94,0,0,1,.49-.26,2.62,2.62,0,0,1,1.15,0c-.11,1.66-.14,3.33-.11,5a4.33,4.33,0,0,1-1.13.15c-.31,0-.62,0-.93,0a3.66,3.66,0,0,1-.57-.05,4.18,4.18,0,0,0-.71,0l-.15-.11c0-1.76,0-3.51.07-5.27C46,80.16,46,79.84,46.05,79.51Z"/><path class="cls-12" d="M49.5,80.79a2.62,2.62,0,0,0-1.15,0,.94.94,0,0,0-.49.26l1.21,1.13a.3.3,0,0,1-.2.27l-.39-.25-.75-.5a3,3,0,0,0-.75-.36,2.08,2.08,0,0,1-.51-.27.93.93,0,0,1-.36-1.17l.1-.27c.32.13.64.27,1,.39a4.3,4.3,0,0,0,1.29.27,1.55,1.55,0,0,1,.21,0,3.53,3.53,0,0,0,.46,0c.16,0,.31,0,.46-.06a.5.5,0,0,0,.34-.11,1.36,1.36,0,0,0,.51-.91,3.26,3.26,0,0,1,.86-.51.83.83,0,0,1,.49-.07c.16,0,.2.1.15.25a2.1,2.1,0,0,1-.13.26,6,6,0,0,1-1.52,1.7Z"/><path class="cls-14" d="M37.05,77.23c-.15-.34-.29-.67-.45-1a4.56,4.56,0,0,1-.41-1.44c0-.23,0-.46,0-.69a7.11,7.11,0,0,1,.18-1.53c0-.19.07-.38.12-.57a.79.79,0,0,1,.48-.54.62.62,0,0,1,.62.06,2.88,2.88,0,0,1,.34.27l.9.89a4.21,4.21,0,0,1,.6.85,6,6,0,0,1,.82,2.21l.15.82s.05.1.07.16-.06.15,0,.23c0,.49.09,1,.11,1.48,0,1.46.13,2.93.31,4.39a8.62,8.62,0,0,0,.42,1.94,4,4,0,0,0,.65,1.2l.29.48.52.81a.49.49,0,0,1-.32.14.82.82,0,0,0-.22,0,.74.74,0,0,1-.78-.23,4.67,4.67,0,0,1-.74-.92,6,6,0,0,1-.8-2.07s0,0,0-.06a4.3,4.3,0,0,0-.42-1.36,2,2,0,0,0-.1-.35l-.64-1.6a1.55,1.55,0,0,0-.12-.22c-.26-.62-.52-1.23-.79-1.85-.1-.22-.21-.43-.31-.64Z"/><path class="cls-10" d="M41.91,86a4,4,0,0,1-.65-1.2,8.62,8.62,0,0,1-.42-1.94c-.18-1.46-.26-2.93-.31-4.39,0-.5-.07-1-.11-1.48,0-.08,0-.17,0-.23a12.58,12.58,0,0,0,2.7,1.4l.66.28c-.21.72-.44,1.43-.64,2.15-.37,1.32-.66,2.67-.91,4-.06.3-.1.61-.14.92a.27.27,0,0,0-.08.22A.26.26,0,0,1,41.91,86Z"/><path class="cls-14" d="M83.35,85h1.77c0,.37,0,.74,0,1.11l-.69.13a1.92,1.92,0,0,1-.24,0c-.21-.28-.39-.57-.75-.64Z"/><path class="cls-26" d="M78.76,85.08l.47,0a9.65,9.65,0,0,0,.32-1.17,25.12,25.12,0,0,0,.53-2.72.69.69,0,0,1,0-.13c.05.17.11.34.15.51.35,1.31.62,2.63.87,4a4.73,4.73,0,0,1-1.46.57l-1,.26-.09-.25Z"/><path class="cls-14" d="M78.76,85.08l-.16,1a5,5,0,0,1-.93.14l-.11-.16a.84.84,0,0,0-.4-.39L77,85.56,77.1,85Z"/><path class="cls-30" d="M73.64,87.6a.2.2,0,0,1,0-.22Z"/><path class="cls-10" d="M81.15,85.5c-.25-1.33-.52-2.65-.87-4,0-.17-.1-.34-.15-.51,0-.37.07-.75.1-1.12s.09-.79.13-1.18l.12-1.18c0-.3.06-.6.08-.9l.09-1.08a1.39,1.39,0,0,1,.13-.56c.13.66.25,1.33.39,2,.32,1.44.66,2.89,1,4.34.16.8.27,1.61.4,2.42.06.37.1.74.16,1.13l.23,0c.14,0,.29,0,.43,0s0,.4.05.6A1.07,1.07,0,0,1,83,86a3.14,3.14,0,0,0-.75,0,4.48,4.48,0,0,1-1,0Z"/><path class="cls-29" d="M39.4,82.76a4.3,4.3,0,0,1,.42,1.36l-.53.17A13.12,13.12,0,0,1,39.4,82.76Z"/><path class="cls-20" d="M90.65,55l.06,0H92a.12.12,0,0,0,0,0,.46.46,0,0,1-.23.28.8.8,0,0,1-.54.16.88.88,0,0,1-.57-.25C90.68,55.12,90.6,55.07,90.65,55Z"/><path class="cls-22" d="M90.31,52.71a2,2,0,0,1,.24.17.22.22,0,0,1,0,.3.21.21,0,0,1-.24.1.22.22,0,0,1-.2-.22s0-.07,0-.11,0-.08,0-.09-.12-.08-.09-.13a.31.31,0,0,1,.18-.16,1.34,1.34,0,0,1,.35,0s.08,0,.1.08,0,.08-.09.09Z"/><path class="cls-22" d="M92.17,53.75a.25.25,0,0,1-.24-.26.27.27,0,0,1,.27-.27.29.29,0,0,1,.24.27A.26.26,0,0,1,92.17,53.75Z"/><path class="cls-29" d="M92.16,52.85a.79.79,0,0,1,.48.21,1.43,1.43,0,0,1,.16.24s0,.07,0,.09-.08,0-.09,0a1.09,1.09,0,0,0-.52-.36.13.13,0,0,1,0-.09A.56.56,0,0,1,92.16,52.85Z"/></g></g></svg>